STARTFONT 2.1
FONT -FontForge-IBM Plex Mono Medium-Medium-R-Normal--24-240-75-75-P-132-ISO10646-1
SIZE 24 75 75
FONTBOUNDINGBOX 22 35 -7 -6
COMMENT "Generated by fontforge, http://fontforge.sourceforge.net"
COMMENT "Copyright 2017 IBM Corp. All rights reserved."
COMMENT "Tuned for Matrix clock by John Park"
STARTPROPERTIES 41
FOUNDRY "FontForge"
FAMILY_NAME "IBM Plex Mono Medium"
WEIGHT_NAME "Medium"
SLANT "R"
SETWIDTH_NAME "Normal"
ADD_STYLE_NAME ""
PIXEL_SIZE 24
POINT_SIZE 240
RESOLUTION_X 75
RESOLUTION_Y 75
SPACING "P"
AVERAGE_WIDTH 132
CHARSET_REGISTRY "ISO10646"
CHARSET_ENCODING "1"
FONTNAME_REGISTRY ""
CHARSET_COLLECTIONS "ISO8859-2 ISO8859-5 ISO8859-9 ISO8859-4 ISO10646-1"
FONT_NAME "IBMPlexMono-Medium"
FACE_NAME "IBM Plex Mono Medium"
COPYRIGHT "Copyright 2017 IBM Corp. All rights reserved."
FONT_VERSION "2.000"
FONT_ASCENT 19
FONT_DESCENT 5
UNDERLINE_POSITION -4
UNDERLINE_THICKNESS 2
X_HEIGHT 11
CAP_HEIGHT 16
DEFAULT_CHAR 1
RAW_ASCENT 780
RAW_DESCENT 220
NORM_SPACE 14
RELATIVE_WEIGHT 50
RELATIVE_SETWIDTH 50
SUPERSCRIPT_X 0
SUPERSCRIPT_Y 8
SUPERSCRIPT_SIZE 14
SUBSCRIPT_X 0
SUBSCRIPT_Y 1
SUBSCRIPT_SIZE 14
FIGURE_WIDTH 14
AVG_LOWERCASE_WIDTH 140
AVG_UPPERCASE_WIDTH 140
ENDPROPERTIES
CHARS 848
STARTCHAR .null.dup1
ENCODING 0
SWIDTH 0 0
DWIDTH 0 0
BBX 1 1 0 0
BITMAP
00
ENDCHAR
STARTCHAR uni000D
ENCODING 13
SWIDTH 600 0
DWIDTH 14 0
BBX 1 1 0 0
BITMAP
00
ENDCHAR
STARTCHAR space
ENCODING 32
SWIDTH 600 0
DWIDTH 8 0
BBX 1 1 0 0
BITMAP
00
ENDCHAR
STARTCHAR exclam
ENCODING 33
SWIDTH 600 0
DWIDTH 14 0
BBX 4 17 5 0
BITMAP
60
60
60
60
60
60
60
60
60
60
00
00
00
F0
F0
F0
F0
ENDCHAR
STARTCHAR quotedbl
ENCODING 34
SWIDTH 600 0
DWIDTH 14 0
BBX 8 7 3 11
BITMAP
E7
E7
E7
E7
E7
E7
E7
ENDCHAR
STARTCHAR numbersign
ENCODING 35
SWIDTH 600 0
DWIDTH 14 0
BBX 14 17 0 0
BITMAP
0630
0670
0660
0660
0E60
7C7C
7C7C
0CE0
0CC0
1CC0
FCF8
F8F8
19C0
19C0
1980
3980
3180
ENDCHAR
STARTCHAR dollar
ENCODING 36
SWIDTH 600 0
DWIDTH 14 0
BBX 12 21 1 -2
BITMAP
0600
0600
1F80
3FE0
7670
6620
E600
E600
7600
7F00
1FC0
07F0
0670
0630
0630
4670
F6F0
7FE0
1F80
0600
0600
ENDCHAR
STARTCHAR percent
ENCODING 37
SWIDTH 600 0
DWIDTH 14 0
BBX 14 17 0 0
BITMAP
3C1C
7E18
E638
C630
C670
C660
E6C0
7E00
3CF0
01F8
0D9C
198C
398C
318C
719C
61F8
E0F0
ENDCHAR
STARTCHAR ampersand
ENCODING 38
SWIDTH 600 0
DWIDTH 14 0
BBX 14 17 0 0
BITMAP
0F00
1FC0
38C0
3080
3000
3000
3800
1C00
3E38
7738
6330
E3E0
E1E0
E0E0
71F0
7F38
1E3C
ENDCHAR
STARTCHAR quotesingle
ENCODING 39
SWIDTH 600 0
DWIDTH 14 0
BBX 2 7 6 11
BITMAP
C0
C0
C0
C0
C0
C0
C0
ENDCHAR
STARTCHAR parenleft
ENCODING 40
SWIDTH 600 0
DWIDTH 14 0
BBX 8 21 4 -3
BITMAP
07
0C
18
38
30
70
60
60
60
E0
E0
E0
60
60
60
70
30
38
18
0C
07
ENDCHAR
STARTCHAR parenright
ENCODING 41
SWIDTH 600 0
DWIDTH 14 0
BBX 8 21 2 -3
BITMAP
E0
30
18
1C
0C
0E
06
06
06
07
07
07
06
06
06
0E
0C
1C
18
30
E0
ENDCHAR
STARTCHAR asterisk
ENCODING 42
SWIDTH 600 0
DWIDTH 14 0
BBX 12 12 1 1
BITMAP
0600
0600
0600
8610
F6F0
FFF0
1F80
0F00
1F80
39C0
70C0
30E0
ENDCHAR
STARTCHAR plus
ENCODING 43
SWIDTH 600 0
DWIDTH 14 0
BBX 12 12 1 1
BITMAP
0600
0600
0600
0600
0600
FFF0
FFF0
0600
0600
0600
0600
0600
ENDCHAR
STARTCHAR comma
ENCODING 44
SWIDTH 600 0
DWIDTH 14 0
BBX 5 7 4 -3
BITMAP
38
78
70
70
60
60
E0
ENDCHAR
STARTCHAR hyphen
ENCODING 45
SWIDTH 600 0
DWIDTH 14 0
BBX 8 2 3 6
BITMAP
FF
FF
ENDCHAR
STARTCHAR period
ENCODING 46
SWIDTH 600 0
DWIDTH 14 0
BBX 4 4 5 0
BITMAP
F0
F0
F0
F0
ENDCHAR
STARTCHAR slash
ENCODING 47
SWIDTH 600 0
DWIDTH 14 0
BBX 10 21 2 -3
BITMAP
00C0
01C0
0180
0180
0380
0300
0700
0600
0600
0E00
0C00
0C00
1800
1800
3800
3000
3000
7000
6000
E000
C000
ENDCHAR
STARTCHAR zero
ENCODING 48
SWIDTH 600 0
DWIDTH 14 0
BBX 12 17 1 0
BITMAP
1F80
3FC0
70E0
6060
E070
E070
E070
E670
E670
E670
E070
E070
E070
6060
70E0
3FC0
1F80
ENDCHAR
STARTCHAR one
ENCODING 49
SWIDTH 600 0
DWIDTH 14 0
BBX 12 17 1 0
BITMAP
0F00
1F00
3B00
7300
E300
6300
4300
0300
0300
0300
0300
0300
0300
0300
0300
7FF0
7FF0
ENDCHAR
STARTCHAR two
ENCODING 50
SWIDTH 600 0
DWIDTH 14 0
BBX 12 17 1 0
BITMAP
1F00
7FC0
71E0
E0E0
20E0
00E0
00E0
00E0
01C0
0380
0700
0E00
1C00
7800
F000
FFF0
FFF0
ENDCHAR
STARTCHAR three
ENCODING 51
SWIDTH 600 0
DWIDTH 14 0
BBX 12 17 1 0
BITMAP
1F80
7FC0
F1E0
20E0
00E0
00E0
01C0
0F80
0F80
00E0
00E0
0070
0070
40E0
E0E0
7FC0
1F00
ENDCHAR
STARTCHAR four
ENCODING 52
SWIDTH 600 0
DWIDTH 14 0
BBX 13 17 0 0
BITMAP
01E0
01E0
03E0
07E0
06E0
0EE0
0CE0
18E0
38E0
30E0
70E0
60E0
FFF8
FFF8
00E0
00E0
00E0
ENDCHAR
STARTCHAR five
ENCODING 53
SWIDTH 600 0
DWIDTH 14 0
BBX 12 17 1 0
BITMAP
7FE0
7FE0
6000
6000
6000
6000
6780
6FE0
70E0
0070
0070
0070
0070
6070
F0E0
7FC0
1F80
ENDCHAR
STARTCHAR six
ENCODING 54
SWIDTH 600 0
DWIDTH 14 0
BBX 12 17 1 0
BITMAP
07C0
0F00
1E00
3C00
3800
7000
7780
EFE0
F0E0
E070
E070
E070
E070
6070
70E0
3FC0
1F80
ENDCHAR
STARTCHAR seven
ENCODING 55
SWIDTH 600 0
DWIDTH 14 0
BBX 12 17 1 0
BITMAP
FFF0
FFF0
E070
E0E0
E0E0
00C0
01C0
01C0
0380
0380
0300
0700
0700
0E00
0E00
1C00
1C00
ENDCHAR
STARTCHAR eight
ENCODING 56
SWIDTH 600 0
DWIDTH 14 0
BBX 12 17 1 0
BITMAP
1F80
7FE0
70E0
E070
E070
6060
70E0
1F80
3FC0
70E0
E070
E070
E070
E070
70E0
7FE0
1F80
ENDCHAR
STARTCHAR nine
ENCODING 57
SWIDTH 600 0
DWIDTH 14 0
BBX 12 17 1 0
BITMAP
1F80
3FC0
70E0
E060
E070
E070
E070
E070
70F0
7F70
1EE0
00E0
01C0
03C0
0780
0F00
3E00
ENDCHAR
STARTCHAR colon
ENCODING 58
SWIDTH 600 0
DWIDTH 8 0
BBX 4 13 2 0
BITMAP
F0
F0
F0
F0
00
00
00
00
00
F0
F0
F0
F0
ENDCHAR
STARTCHAR semicolon
ENCODING 59
SWIDTH 600 0
DWIDTH 14 0
BBX 5 16 4 -3
BITMAP
78
78
78
78
00
00
00
00
00
38
78
70
70
60
60
E0
ENDCHAR
STARTCHAR less
ENCODING 60
SWIDTH 600 0
DWIDTH 14 0
BBX 10 14 2 0
BITMAP
0040
00C0
03C0
0F00
3E00
F800
E000
E000
F800
3E00
0F80
03C0
00C0
0040
ENDCHAR
STARTCHAR equal
ENCODING 61
SWIDTH 600 0
DWIDTH 14 0
BBX 12 7 1 4
BITMAP
FFF0
FFF0
0000
0000
0000
FFF0
FFF0
ENDCHAR
STARTCHAR greater
ENCODING 62
SWIDTH 600 0
DWIDTH 14 0
BBX 10 14 2 0
BITMAP
8000
C000
F000
7C00
1F00
07C0
01C0
01C0
07C0
1F00
3C00
F000
C000
8000
ENDCHAR
STARTCHAR question
ENCODING 63
SWIDTH 600 0
DWIDTH 14 0
BBX 11 17 1 0
BITMAP
1F80
3FC0
70E0
60E0
A0E0
00E0
00E0
0FC0
0F00
0E00
0E00
0000
0000
0E00
0F00
0F00
0E00
ENDCHAR
STARTCHAR at
ENCODING 64
SWIDTH 600 0
DWIDTH 14 0
BBX 12 20 1 -3
BITMAP
1F80
3FC0
70E0
6060
6070
C3B0
C7B0
CE70
CC30
CC30
CC30
CC30
CC70
C7B0
C7B0
6000
6000
3800
3FC0
0FC0
ENDCHAR
STARTCHAR A
ENCODING 65
SWIDTH 600 0
DWIDTH 14 0
BBX 14 17 0 0
BITMAP
0780
0780
0FC0
0FC0
0CC0
0CC0
1CE0
1CE0
1860
3870
3FF0
3FF0
3030
7038
7038
6018
E01C
ENDCHAR
STARTCHAR B
ENCODING 66
SWIDTH 600 0
DWIDTH 14 0
BBX 11 17 2 0
BITMAP
FF00
FF80
C1C0
C0C0
C0C0
C0C0
C1C0
FF00
FF80
C1C0
C0E0
C0E0
C0E0
C0E0
C1C0
FFC0
FF00
ENDCHAR
STARTCHAR C
ENCODING 67
SWIDTH 600 0
DWIDTH 14 0
BBX 12 17 1 0
BITMAP
0F80
3FE0
38E0
7070
6040
E000
E000
E000
E000
E000
E000
E000
6040
7070
78E0
3FE0
0F80
ENDCHAR
STARTCHAR D
ENCODING 68
SWIDTH 600 0
DWIDTH 14 0
BBX 11 17 2 0
BITMAP
FE00
FF80
C3C0
C1C0
C0E0
C0E0
C0E0
C0E0
C0E0
C0E0
C0E0
C0E0
C0E0
C1C0
C3C0
FF80
FE00
ENDCHAR
STARTCHAR E
ENCODING 69
SWIDTH 600 0
DWIDTH 14 0
BBX 10 17 2 0
BITMAP
FFC0
FFC0
E000
E000
E000
E000
E000
FFC0
FFC0
E000
E000
E000
E000
E000
E000
FFC0
FFC0
ENDCHAR
STARTCHAR F
ENCODING 70
SWIDTH 600 0
DWIDTH 14 0
BBX 11 17 2 0
BITMAP
FFE0
FFE0
E000
E000
E000
E000
E000
FFC0
FFC0
E000
E000
E000
E000
E000
E000
E000
E000
ENDCHAR
STARTCHAR G
ENCODING 71
SWIDTH 600 0
DWIDTH 14 0
BBX 12 17 1 0
BITMAP
0F80
3FC0
70E0
7060
E050
E000
E000
E000
E3F0
E3F0
E070
E070
E070
6070
70F0
3F70
1E70
ENDCHAR
STARTCHAR H
ENCODING 72
SWIDTH 600 0
DWIDTH 14 0
BBX 11 17 2 0
BITMAP
C0E0
C0E0
C0E0
C0E0
C0E0
C0E0
C0E0
FFE0
FFE0
C0E0
C0E0
C0E0
C0E0
C0E0
C0E0
C0E0
C0E0
ENDCHAR
STARTCHAR I
ENCODING 73
SWIDTH 600 0
DWIDTH 14 0
BBX 10 17 2 0
BITMAP
FFC0
FFC0
0C00
0C00
0C00
0C00
0C00
0C00
0C00
0C00
0C00
0C00
0C00
0C00
0C00
FFC0
FFC0
ENDCHAR
STARTCHAR J
ENCODING 74
SWIDTH 600 0
DWIDTH 14 0
BBX 11 17 1 0
BITMAP
3FE0
3FE0
00E0
00E0
00E0
00E0
00E0
00E0
00E0
00E0
00E0
00E0
00E0
E0E0
71C0
7F80
1F00
ENDCHAR
STARTCHAR K
ENCODING 75
SWIDTH 600 0
DWIDTH 14 0
BBX 12 17 2 0
BITMAP
C0F0
C1E0
C1C0
C380
C700
CF00
CE00
DC00
FE00
FF00
F700
E380
C380
C1C0
C1C0
C0E0
C070
ENDCHAR
STARTCHAR L
ENCODING 76
SWIDTH 600 0
DWIDTH 14 0
BBX 11 17 2 0
BITMAP
E000
E000
E000
E000
E000
E000
E000
E000
E000
E000
E000
E000
E000
E000
E000
FFE0
FFE0
ENDCHAR
STARTCHAR M
ENCODING 77
SWIDTH 600 0
DWIDTH 14 0
BBX 12 17 1 0
BITMAP
F070
F0F0
F0F0
F8F0
D9B0
D9B0
CF70
CF70
EF70
E670
E670
E670
E470
E070
E070
E070
E070
ENDCHAR
STARTCHAR N
ENCODING 78
SWIDTH 600 0
DWIDTH 14 0
BBX 11 17 1 0
BITMAP
F060
F060
F860
F860
FC60
EC60
EC60
EE60
E660
E660
E360
E360
E3E0
E1E0
E1E0
E1E0
E0E0
ENDCHAR
STARTCHAR O
ENCODING 79
SWIDTH 600 0
DWIDTH 14 0
BBX 12 17 1 0
BITMAP
1F80
3FC0
70E0
6060
E070
E070
E070
E070
E070
E070
E070
E070
E070
6060
70E0
3FC0
1F80
ENDCHAR
STARTCHAR P
ENCODING 80
SWIDTH 600 0
DWIDTH 14 0
BBX 11 17 2 0
BITMAP
FF80
FFC0
C1C0
C0E0
C0E0
C0E0
C0E0
C1C0
FFC0
FF00
C000
C000
C000
C000
C000
C000
C000
ENDCHAR
STARTCHAR Q
ENCODING 81
SWIDTH 600 0
DWIDTH 14 0
BBX 12 21 1 -4
BITMAP
1F80
3FC0
70E0
6060
E070
E070
E070
E070
E070
E070
E070
E070
E070
6060
70E0
3FC0
1F80
0600
0600
07E0
03E0
ENDCHAR
STARTCHAR R
ENCODING 82
SWIDTH 600 0
DWIDTH 14 0
BBX 11 17 2 0
BITMAP
FF80
FFC0
E1E0
E0E0
E0E0
E0E0
E0E0
E1E0
FFC0
FF00
E700
E700
E380
E180
E1C0
E0C0
E0E0
ENDCHAR
STARTCHAR S
ENCODING 83
SWIDTH 600 0
DWIDTH 14 0
BBX 12 17 1 0
BITMAP
1F80
3FE0
70F0
E040
E000
E000
7000
7F00
3FC0
03E0
0070
0070
0070
4070
F0E0
7FE0
1F80
ENDCHAR
STARTCHAR T
ENCODING 84
SWIDTH 600 0
DWIDTH 14 0
BBX 14 17 0 0
BITMAP
FFFC
FFFC
0300
0300
0300
0300
0300
0300
0300
0300
0300
0300
0300
0300
0300
0300
0300
ENDCHAR
STARTCHAR U
ENCODING 85
SWIDTH 600 0
DWIDTH 14 0
BBX 12 17 1 0
BITMAP
E070
E070
E070
E070
E070
E070
E070
E070
E070
E070
E070
6060
6060
6060
70E0
3FC0
1F80
ENDCHAR
STARTCHAR V
ENCODING 86
SWIDTH 600 0
DWIDTH 14 0
BBX 14 17 0 0
BITMAP
E01C
7038
7038
7038
3030
3870
3870
3870
1C60
1CE0
1CE0
0CC0
0EC0
0FC0
0FC0
0780
0780
ENDCHAR
STARTCHAR W
ENCODING 87
SWIDTH 600 0
DWIDTH 14 0
BBX 14 17 0 0
BITMAP
E01C
601C
6018
6018
6318
6798
6798
6798
6798
6698
6CD8
6CD8
6CD8
7CF8
7CF8
7878
3870
ENDCHAR
STARTCHAR X
ENCODING 88
SWIDTH 600 0
DWIDTH 14 0
BBX 14 17 0 0
BITMAP
703C
7038
3870
1C60
1CE0
0EC0
0FC0
0780
0780
0780
0FC0
1CE0
1CE0
3870
3870
7038
E03C
ENDCHAR
STARTCHAR Y
ENCODING 89
SWIDTH 600 0
DWIDTH 14 0
BBX 14 17 0 0
BITMAP
E01C
7038
7038
3870
3870
1CE0
1CE0
0FC0
0780
0780
0300
0300
0300
0300
0300
0300
0300
ENDCHAR
STARTCHAR Z
ENCODING 90
SWIDTH 600 0
DWIDTH 14 0
BBX 12 17 1 0
BITMAP
FFF0
FFF0
00E0
00E0
01C0
0380
0380
0700
0E00
0E00
1C00
3800
7800
7000
E000
FFF0
FFF0
ENDCHAR
STARTCHAR bracketleft
ENCODING 91
SWIDTH 600 0
DWIDTH 14 0
BBX 7 21 5 -3
BITMAP
FE
FE
C0
C0
C0
C0
C0
C0
C0
C0
C0
C0
C0
C0
C0
C0
C0
C0
C0
FE
FE
ENDCHAR
STARTCHAR backslash
ENCODING 92
SWIDTH 600 0
DWIDTH 14 0
BBX 10 21 2 -3
BITMAP
C000
E000
6000
6000
7000
3000
3800
1800
1800
1C00
0C00
0C00
0600
0600
0700
0300
0300
0380
0180
01C0
00C0
ENDCHAR
STARTCHAR bracketright
ENCODING 93
SWIDTH 600 0
DWIDTH 14 0
BBX 7 21 2 -3
BITMAP
FE
FE
06
06
06
06
06
06
06
06
06
06
06
06
06
06
06
06
06
FE
FE
ENDCHAR
STARTCHAR asciicircum
ENCODING 94
SWIDTH 600 0
DWIDTH 14 0
BBX 12 10 1 7
BITMAP
0F00
0F00
1F80
1980
39C0
30C0
70E0
6060
E070
C030
ENDCHAR
STARTCHAR underscore
ENCODING 95
SWIDTH 600 0
DWIDTH 14 0
BBX 12 2 1 -4
BITMAP
FFF0
FFF0
ENDCHAR
STARTCHAR grave
ENCODING 96
SWIDTH 600 0
DWIDTH 14 0
BBX 4 5 4 14
BITMAP
40
E0
60
30
30
ENDCHAR
STARTCHAR a
ENCODING 97
SWIDTH 600 0
DWIDTH 14 0
BBX 12 12 1 0
BITMAP
1F00
7FC0
61C0
40E0
00E0
3FE0
7FE0
E0E0
E0E0
E1E0
7FF0
3E70
ENDCHAR
STARTCHAR b
ENCODING 98
SWIDTH 600 0
DWIDTH 14 0
BBX 11 18 2 0
BITMAP
C000
C000
C000
C000
C000
C000
CF00
DFC0
E1C0
C0E0
C0E0
C0E0
C0E0
C0E0
C0E0
E1C0
DFC0
CF00
ENDCHAR
STARTCHAR c
ENCODING 99
SWIDTH 600 0
DWIDTH 14 0
BBX 10 12 2 0
BITMAP
1F00
7F80
F1C0
E080
C000
C000
C000
C000
E080
F1C0
7FC0
1F00
ENDCHAR
STARTCHAR d
ENCODING 100
SWIDTH 600 0
DWIDTH 14 0
BBX 11 18 1 0
BITMAP
0060
0060
0060
0060
0060
0060
1E60
7F60
70E0
E060
E060
E060
E060
E060
E060
70E0
7F60
1E60
ENDCHAR
STARTCHAR e
ENCODING 101
SWIDTH 600 0
DWIDTH 14 0
BBX 12 12 1 0
BITMAP
1F80
3FC0
70E0
6060
E070
FFF0
FFF0
E000
6040
70E0
3FE0
0F80
ENDCHAR
STARTCHAR f
ENCODING 102
SWIDTH 600 0
DWIDTH 14 0
BBX 12 18 1 0
BITMAP
03F0
07F0
0600
0600
0600
0600
FFF0
FFF0
0600
0600
0600
0600
0600
0600
0600
0600
7FE0
7FE0
ENDCHAR
STARTCHAR g
ENCODING 103
SWIDTH 600 0
DWIDTH 14 0
BBX 13 19 1 -5
BITMAP
0070
00F0
1F80
3FC0
70E0
60E0
60E0
70E0
3FC0
1F80
2000
6000
7FE0
3FF0
6030
E038
E070
7FF0
3FC0
ENDCHAR
STARTCHAR h
ENCODING 104
SWIDTH 600 0
DWIDTH 14 0
BBX 10 18 2 0
BITMAP
C000
C000
C000
C000
C000
C000
CF00
DF80
E1C0
E1C0
C0C0
C0C0
C0C0
C0C0
C0C0
C0C0
C0C0
C0C0
ENDCHAR
STARTCHAR i
ENCODING 105
SWIDTH 600 0
DWIDTH 14 0
BBX 11 18 2 0
BITMAP
0E00
0F00
0E00
0000
0000
0000
FE00
FE00
0E00
0E00
0E00
0E00
0E00
0E00
0E00
0E00
FFE0
FFE0
ENDCHAR
STARTCHAR j
ENCODING 106
SWIDTH 600 0
DWIDTH 14 0
BBX 9 23 2 -5
BITMAP
0700
0780
0700
0000
0000
0000
FF00
FF00
0300
0300
0300
0300
0300
0300
0300
0300
0300
0300
0300
0300
0300
FF00
FE00
ENDCHAR
STARTCHAR k
ENCODING 107
SWIDTH 600 0
DWIDTH 14 0
BBX 12 18 2 0
BITMAP
E000
E000
E000
E000
E000
E000
E0E0
E3C0
E780
EE00
FC00
FE00
FF00
E700
E380
E1C0
E1E0
E0F0
ENDCHAR
STARTCHAR l
ENCODING 108
SWIDTH 600 0
DWIDTH 14 0
BBX 10 18 2 0
BITMAP
FC00
FC00
0C00
0C00
0C00
0C00
0C00
0C00
0C00
0C00
0C00
0C00
0C00
0C00
0C00
0C00
FFC0
FFC0
ENDCHAR
STARTCHAR m
ENCODING 109
SWIDTH 600 0
DWIDTH 14 0
BBX 12 12 1 0
BITMAP
DCE0
FFF0
C630
C630
C630
C630
C630
C630
C630
C630
C630
C630
ENDCHAR
STARTCHAR n
ENCODING 110
SWIDTH 600 0
DWIDTH 14 0
BBX 10 12 2 0
BITMAP
CF00
DF80
E1C0
E1C0
C0C0
C0C0
C0C0
C0C0
C0C0
C0C0
C0C0
C0C0
ENDCHAR
STARTCHAR o
ENCODING 111
SWIDTH 600 0
DWIDTH 14 0
BBX 12 12 1 0
BITMAP
1F80
3FC0
70E0
6060
E070
E070
E070
E070
6060
70E0
3FC0
1F80
ENDCHAR
STARTCHAR p
ENCODING 112
SWIDTH 600 0
DWIDTH 14 0
BBX 11 17 2 -5
BITMAP
CF00
DFC0
E1C0
C0E0
C0E0
C0E0
C0E0
C0E0
C0E0
E1C0
DFC0
CF00
C000
C000
C000
C000
C000
ENDCHAR
STARTCHAR q
ENCODING 113
SWIDTH 600 0
DWIDTH 14 0
BBX 11 17 1 -5
BITMAP
1E60
7F60
70E0
E060
E060
E060
E060
E060
E060
70E0
7F60
1E60
0060
0060
0060
0060
0060
ENDCHAR
STARTCHAR r
ENCODING 114
SWIDTH 600 0
DWIDTH 14 0
BBX 11 12 2 0
BITMAP
FCE0
FDE0
1E00
1C00
1C00
1C00
1C00
1C00
1C00
1C00
FFC0
FFC0
ENDCHAR
STARTCHAR s
ENCODING 115
SWIDTH 600 0
DWIDTH 14 0
BBX 11 12 1 0
BITMAP
1F80
3FE0
7060
6000
7800
3FC0
1FE0
00E0
4060
60E0
FFE0
1F80
ENDCHAR
STARTCHAR t
ENCODING 116
SWIDTH 600 0
DWIDTH 14 0
BBX 11 17 1 0
BITMAP
0C00
0C00
0C00
0C00
0C00
FFE0
FFE0
0C00
0C00
0C00
0C00
0C00
0C00
0C00
0C00
0FE0
07E0
ENDCHAR
STARTCHAR u
ENCODING 117
SWIDTH 600 0
DWIDTH 14 0
BBX 10 12 2 0
BITMAP
C0C0
C0C0
C0C0
C0C0
C0C0
C0C0
C0C0
C0C0
E1C0
E1C0
7EC0
3CC0
ENDCHAR
STARTCHAR v
ENCODING 118
SWIDTH 600 0
DWIDTH 14 0
BBX 12 12 1 0
BITMAP
E070
6070
7060
70E0
30C0
38C0
39C0
1980
1D80
1F80
0F00
0F00
ENDCHAR
STARTCHAR w
ENCODING 119
SWIDTH 600 0
DWIDTH 14 0
BBX 14 12 0 0
BITMAP
E30C
E79C
6798
6798
6798
6498
64D8
6CD8
7CD0
3CF0
3CF0
3870
ENDCHAR
STARTCHAR x
ENCODING 120
SWIDTH 600 0
DWIDTH 14 0
BBX 12 12 1 0
BITMAP
E070
70E0
39C0
1D80
1F80
0F00
0F00
1F80
19C0
39C0
70E0
E070
ENDCHAR
STARTCHAR y
ENCODING 121
SWIDTH 600 0
DWIDTH 14 0
BBX 12 17 1 -5
BITMAP
E070
E070
6060
70E0
30C0
38C0
39C0
1980
1F80
0F00
0F00
0F00
0600
0E00
0C00
7C00
7800
ENDCHAR
STARTCHAR z
ENCODING 122
SWIDTH 600 0
DWIDTH 14 0
BBX 10 12 2 0
BITMAP
FFC0
FFC0
01C0
0380
0700
0E00
1C00
3800
7000
E000
FFC0
FFC0
ENDCHAR
STARTCHAR braceleft
ENCODING 123
SWIDTH 600 0
DWIDTH 14 0
BBX 10 21 2 -3
BITMAP
0FC0
1FC0
1800
1800
1800
0C00
0600
0600
0600
FC00
FC00
0600
0600
0600
0E00
0C00
1800
1800
1800
1FC0
0FC0
ENDCHAR
STARTCHAR bar
ENCODING 124
SWIDTH 600 0
DWIDTH 14 0
BBX 2 21 6 -3
BITMAP
C0
C0
C0
C0
C0
C0
C0
C0
C0
C0
C0
C0
C0
C0
C0
C0
C0
C0
C0
C0
C0
ENDCHAR
STARTCHAR braceright
ENCODING 125
SWIDTH 600 0
DWIDTH 14 0
BBX 10 21 2 -3
BITMAP
FC00
FE00
0600
0600
0600
0C00
1800
1800
1800
0FC0
0FC0
1800
1800
1800
1C00
0C00
0600
0600
0600
FE00
FC00
ENDCHAR
STARTCHAR asciitilde
ENCODING 126
SWIDTH 600 0
DWIDTH 14 0
BBX 12 4 1 5
BITMAP
3820
7E70
E7E0
41C0
ENDCHAR
STARTCHAR uni00A0
ENCODING 160
SWIDTH 600 0
DWIDTH 14 0
BBX 1 1 0 0
BITMAP
00
ENDCHAR
STARTCHAR exclamdown
ENCODING 161
SWIDTH 600 0
DWIDTH 14 0
BBX 4 18 5 -6
BITMAP
F0
F0
F0
F0
00
00
00
60
60
60
60
60
60
60
60
60
60
60
ENDCHAR
STARTCHAR cent
ENCODING 162
SWIDTH 600 0
DWIDTH 14 0
BBX 10 18 2 -3
BITMAP
0C00
0C00
0C00
1F00
7F80
EDC0
EC80
CC00
CC00
CC00
CC00
EC80
EDC0
7FC0
1F00
0C00
0C00
0C00
ENDCHAR
STARTCHAR sterling
ENCODING 163
SWIDTH 600 0
DWIDTH 14 0
BBX 12 17 1 0
BITMAP
0FC0
3FE0
3870
7020
7000
7000
7000
3000
FF80
FF80
3800
3800
3800
7000
7000
7FF0
7FF0
ENDCHAR
STARTCHAR yen
ENCODING 165
SWIDTH 600 0
DWIDTH 14 0
BBX 14 17 0 0
BITMAP
E01C
7038
7038
3030
3870
1860
1CE0
0CC0
0FC0
7FF8
7FF8
0300
0300
0300
0300
7FF8
7FF8
ENDCHAR
STARTCHAR brokenbar
ENCODING 166
SWIDTH 600 0
DWIDTH 14 0
BBX 2 21 6 -3
BITMAP
C0
C0
C0
C0
C0
C0
C0
C0
C0
00
00
00
00
C0
C0
C0
C0
C0
C0
C0
C0
ENDCHAR
STARTCHAR section
ENCODING 167
SWIDTH 600 0
DWIDTH 14 0
BBX 11 21 2 -4
BITMAP
1F00
7FC0
7180
E000
E000
7000
7E00
3F80
43C0
C0C0
C0E0
C0C0
F0C0
7F00
1F80
0380
01C0
01C0
6180
FF80
3E00
ENDCHAR
STARTCHAR dieresis
ENCODING 168
SWIDTH 600 0
DWIDTH 14 0
BBX 8 3 3 15
BITMAP
E7
E7
E7
ENDCHAR
STARTCHAR copyright
ENCODING 169
SWIDTH 600 0
DWIDTH 14 0
BBX 14 16 0 0
BITMAP
0FC0
1860
2010
4788
CFCC
CCCC
9804
9804
9804
9804
CC4C
CFEC
4788
2010
1860
0FC0
ENDCHAR
STARTCHAR ordfeminine
ENCODING 170
SWIDTH 600 0
DWIDTH 14 0
BBX 8 8 3 9
BITMAP
3C
7E
C6
7E
C6
C6
FB
73
ENDCHAR
STARTCHAR guillemotleft
ENCODING 171
SWIDTH 600 0
DWIDTH 14 0
BBX 12 11 1 1
BITMAP
0420
0C70
3CE0
79C0
F380
E300
F380
79C0
3CE0
0C70
0420
ENDCHAR
STARTCHAR logicalnot
ENCODING 172
SWIDTH 600 0
DWIDTH 14 0
BBX 11 7 1 1
BITMAP
FFE0
FFE0
0060
0060
0060
0060
0060
ENDCHAR
STARTCHAR uni00AD
ENCODING 173
SWIDTH 600 0
DWIDTH 14 0
BBX 8 2 3 6
BITMAP
FF
FF
ENDCHAR
STARTCHAR registered
ENCODING 174
SWIDTH 600 0
DWIDTH 14 0
BBX 8 9 3 8
BITMAP
3C
42
BD
A5
B9
A9
A5
42
3C
ENDCHAR
STARTCHAR macron
ENCODING 175
SWIDTH 600 0
DWIDTH 14 0
BBX 7 2 4 15
BITMAP
FE
FE
ENDCHAR
STARTCHAR degree
ENCODING 176
SWIDTH 600 0
DWIDTH 14 0
BBX 8 8 3 9
BITMAP
3C
7E
C3
C3
C3
C3
7E
3C
ENDCHAR
STARTCHAR plusminus
ENCODING 177
SWIDTH 600 0
DWIDTH 14 0
BBX 12 14 1 0
BITMAP
0600
0600
0600
0600
FFF0
FFF0
0600
0600
0600
0600
0000
0000
FFF0
FFF0
ENDCHAR
STARTCHAR twosuperior
ENCODING 178
SWIDTH 600 0
DWIDTH 14 0
BBX 6 9 4 8
BITMAP
78
FC
CC
0C
1C
38
E0
FC
FC
ENDCHAR
STARTCHAR threesuperior
ENCODING 179
SWIDTH 600 0
DWIDTH 14 0
BBX 7 9 3 8
BITMAP
3C
7E
46
06
18
06
46
FE
3C
ENDCHAR
STARTCHAR acute
ENCODING 180
SWIDTH 600 0
DWIDTH 14 0
BBX 4 5 6 14
BITMAP
20
70
60
C0
C0
ENDCHAR
STARTCHAR mu
ENCODING 181
SWIDTH 600 0
DWIDTH 14 0
BBX 10 17 2 -5
BITMAP
C0C0
C0C0
C0C0
C0C0
C0C0
C0C0
C0C0
C0C0
E1C0
E2C0
FEC0
DCC0
C000
C000
C000
C000
C000
ENDCHAR
STARTCHAR paragraph
ENCODING 182
SWIDTH 600 0
DWIDTH 14 0
BBX 11 21 1 -4
BITMAP
1FE0
7FE0
FE60
FE60
FE60
FE60
FE60
FE60
FE60
7E60
1E60
0660
0660
0660
0660
0660
0660
0660
0660
0660
0660
ENDCHAR
STARTCHAR periodcentered
ENCODING 183
SWIDTH 600 0
DWIDTH 14 0
BBX 4 4 5 5
BITMAP
F0
F0
F0
F0
ENDCHAR
STARTCHAR cedilla
ENCODING 184
SWIDTH 600 0
DWIDTH 14 0
BBX 5 6 5 -5
BITMAP
60
60
78
18
F8
20
ENDCHAR
STARTCHAR onesuperior
ENCODING 185
SWIDTH 600 0
DWIDTH 14 0
BBX 7 9 4 8
BITMAP
78
F8
D8
18
18
18
18
FE
FE
ENDCHAR
STARTCHAR ordmasculine
ENCODING 186
SWIDTH 600 0
DWIDTH 14 0
BBX 8 8 3 9
BITMAP
3C
7E
C3
C3
C3
C3
7E
3C
ENDCHAR
STARTCHAR guillemotright
ENCODING 187
SWIDTH 600 0
DWIDTH 14 0
BBX 12 11 1 1
BITMAP
4200
E300
71C0
39E0
1CF0
0C70
1CF0
39E0
71C0
E300
4200
ENDCHAR
STARTCHAR onequarter
ENCODING 188
SWIDTH 600 0
DWIDTH 14 0
BBX 14 17 0 0
BITMAP
380C
D818
1838
1830
1860
1860
18C0
7E00
0000
0038
0C38
1878
18D8
3198
71FC
6018
C018
ENDCHAR
STARTCHAR onehalf
ENCODING 189
SWIDTH 600 0
DWIDTH 14 0
BBX 14 17 0 0
BITMAP
380C
D818
1838
1830
1860
1860
18C0
7E00
0000
00F0
0D98
1808
1818
3030
7060
60C0
C0FC
ENDCHAR
STARTCHAR threequarters
ENCODING 190
SWIDTH 600 0
DWIDTH 14 0
BBX 14 17 0 0
BITMAP
780C
CC18
0C38
0C30
3860
0C60
CCC0
7C00
0000
0038
0C38
1878
18D8
3198
71FC
6018
C018
ENDCHAR
STARTCHAR questiondown
ENCODING 191
SWIDTH 600 0
DWIDTH 14 0
BBX 11 17 2 -5
BITMAP
0E00
1E00
1E00
0E00
0000
0000
0E00
0E00
1E00
7E00
E000
E000
E100
E0E0
E1C0
7F80
3F00
ENDCHAR
STARTCHAR Agrave
ENCODING 192
SWIDTH 600 0
DWIDTH 14 0
BBX 14 23 0 0
BITMAP
0400
0E00
0600
0300
0300
0000
0780
0780
0FC0
0FC0
0CC0
0CC0
1CE0
1CE0
1860
3870
3FF0
3FF0
3030
7038
7038
6018
E01C
ENDCHAR
STARTCHAR Aacute
ENCODING 193
SWIDTH 600 0
DWIDTH 14 0
BBX 14 23 0 0
BITMAP
0080
01C0
0380
0300
0300
0000
0780
0780
0FC0
0FC0
0CC0
0CC0
1CE0
1CE0
1860
3870
3FF0
3FF0
3030
7038
7038
6018
E01C
ENDCHAR
STARTCHAR Acircumflex
ENCODING 194
SWIDTH 600 0
DWIDTH 14 0
BBX 14 23 0 0
BITMAP
0780
0780
0FC0
1CE0
0840
0000
0780
0780
0FC0
0FC0
0CC0
0CC0
1CE0
1CE0
1860
3870
3FF0
3FF0
3030
7038
7038
6018
E01C
ENDCHAR
STARTCHAR Atilde
ENCODING 195
SWIDTH 600 0
DWIDTH 14 0
BBX 14 22 0 0
BITMAP
0E20
1FE0
11C0
0000
0000
0780
0780
0FC0
0FC0
0CC0
0CC0
1CE0
1CE0
1860
3870
3FF0
3FF0
3030
7038
7038
6018
E01C
ENDCHAR
STARTCHAR Adieresis
ENCODING 196
SWIDTH 600 0
DWIDTH 14 0
BBX 14 22 0 0
BITMAP
1CE0
1CE0
1CE0
0000
0000
0780
0780
0FC0
0FC0
0CC0
0CC0
1CE0
1CE0
1860
3870
3FF0
3FF0
3030
7038
7038
6018
E01C
ENDCHAR
STARTCHAR Aring
ENCODING 197
SWIDTH 600 0
DWIDTH 14 0
BBX 14 25 0 0
BITMAP
0780
0FC0
0CC0
0CC0
0CC0
0FC0
0780
0000
0780
0780
0FC0
0FC0
0CC0
0CC0
1CE0
1CE0
1860
3870
3FF0
3FF0
3030
7038
7038
6018
E01C
ENDCHAR
STARTCHAR AE
ENCODING 198
SWIDTH 600 0
DWIDTH 14 0
BBX 13 17 0 0
BITMAP
0FF8
0FF8
0D80
0D80
1D80
1980
1980
19F8
39F8
3180
3F80
7F80
7180
6180
6180
E1F8
E1F8
ENDCHAR
STARTCHAR Ccedilla
ENCODING 199
SWIDTH 600 0
DWIDTH 14 0
BBX 12 22 1 -5
BITMAP
0F80
3FE0
38E0
7070
6040
E000
E000
E000
E000
E000
E000
E000
6040
7070
38E0
3FE0
0F80
0600
0780
0180
0980
0F00
ENDCHAR
STARTCHAR Egrave
ENCODING 200
SWIDTH 600 0
DWIDTH 14 0
BBX 10 23 2 0
BITMAP
1800
3800
1C00
0C00
0C00
0000
FFC0
FFC0
E000
E000
E000
E000
E000
FFC0
FFC0
E000
E000
E000
E000
E000
E000
FFC0
FFC0
ENDCHAR
STARTCHAR Eacute
ENCODING 201
SWIDTH 600 0
DWIDTH 14 0
BBX 10 23 2 0
BITMAP
0200
0700
0600
0C00
0C00
0000
FFC0
FFC0
E000
E000
E000
E000
E000
FFC0
FFC0
E000
E000
E000
E000
E000
E000
FFC0
FFC0
ENDCHAR
STARTCHAR Ecircumflex
ENCODING 202
SWIDTH 600 0
DWIDTH 14 0
BBX 10 23 2 0
BITMAP
1E00
1F00
3B00
7180
2180
0000
FFC0
FFC0
E000
E000
E000
E000
E000
FFC0
FFC0
E000
E000
E000
E000
E000
E000
FFC0
FFC0
ENDCHAR
STARTCHAR Edieresis
ENCODING 203
SWIDTH 600 0
DWIDTH 14 0
BBX 10 22 2 0
BITMAP
7380
7380
7380
0000
0000
FFC0
FFC0
E000
E000
E000
E000
E000
FFC0
FFC0
E000
E000
E000
E000
E000
E000
FFC0
FFC0
ENDCHAR
STARTCHAR Igrave
ENCODING 204
SWIDTH 600 0
DWIDTH 14 0
BBX 10 23 2 0
BITMAP
1000
3800
1800
0C00
0C00
0000
FFC0
FFC0
0C00
0C00
0C00
0C00
0C00
0C00
0C00
0C00
0C00
0C00
0C00
0C00
0C00
FFC0
FFC0
ENDCHAR
STARTCHAR Iacute
ENCODING 205
SWIDTH 600 0
DWIDTH 14 0
BBX 10 23 2 0
BITMAP
0200
0700
0E00
0C00
0C00
0000
FFC0
FFC0
0C00
0C00
0C00
0C00
0C00
0C00
0C00
0C00
0C00
0C00
0C00
0C00
0C00
FFC0
FFC0
ENDCHAR
STARTCHAR Icircumflex
ENCODING 206
SWIDTH 600 0
DWIDTH 14 0
BBX 10 23 2 0
BITMAP
1E00
1E00
3F00
7380
2100
0000
FFC0
FFC0
0C00
0C00
0C00
0C00
0C00
0C00
0C00
0C00
0C00
0C00
0C00
0C00
0C00
FFC0
FFC0
ENDCHAR
STARTCHAR Idieresis
ENCODING 207
SWIDTH 600 0
DWIDTH 14 0
BBX 10 22 2 0
BITMAP
7380
7380
7380
0000
0000
FFC0
FFC0
0C00
0C00
0C00
0C00
0C00
0C00
0C00
0C00
0C00
0C00
0C00
0C00
0C00
FFC0
FFC0
ENDCHAR
STARTCHAR Eth
ENCODING 208
SWIDTH 600 0
DWIDTH 14 0
BBX 13 17 0 0
BITMAP
3F80
3FE0
38F0
3870
3838
3838
3838
FF38
FF38
3838
3838
3838
3838
3870
38F0
3FE0
3F80
ENDCHAR
STARTCHAR Ntilde
ENCODING 209
SWIDTH 600 0
DWIDTH 14 0
BBX 11 22 1 0
BITMAP
1C40
3FC0
2380
0000
0000
F060
F060
F860
F860
FC60
EC60
EC60
EE60
E660
E660
E360
E360
E3E0
E1E0
E1E0
E1E0
E0E0
ENDCHAR
STARTCHAR Ograve
ENCODING 210
SWIDTH 600 0
DWIDTH 14 0
BBX 12 23 1 0
BITMAP
0800
1C00
0C00
0600
0600
0000
1F80
3FC0
70E0
6060
E070
E070
E070
E070
E070
E070
E070
E070
E070
6060
70E0
3FC0
1F80
ENDCHAR
STARTCHAR Oacute
ENCODING 211
SWIDTH 600 0
DWIDTH 14 0
BBX 12 23 1 0
BITMAP
0100
0380
0700
0600
0600
0000
1F80
3FC0
70E0
6060
E070
E070
E070
E070
E070
E070
E070
E070
E070
6060
70E0
3FC0
1F80
ENDCHAR
STARTCHAR Ocircumflex
ENCODING 212
SWIDTH 600 0
DWIDTH 14 0
BBX 12 23 1 0
BITMAP
0F00
0F00
1F80
39C0
1080
0000
1F80
3FC0
70E0
6060
E070
E070
E070
E070
E070
E070
E070
E070
E070
6060
70E0
3FC0
1F80
ENDCHAR
STARTCHAR Otilde
ENCODING 213
SWIDTH 600 0
DWIDTH 14 0
BBX 12 22 1 0
BITMAP
1C40
3FC0
2380
0000
0000
1F80
3FC0
70E0
6060
E070
E070
E070
E070
E070
E070
E070
E070
E070
6060
70E0
3FC0
1F80
ENDCHAR
STARTCHAR Odieresis
ENCODING 214
SWIDTH 600 0
DWIDTH 14 0
BBX 12 22 1 0
BITMAP
39C0
39C0
39C0
0000
0000
1F80
3FC0
70E0
6060
E070
E070
E070
E070
E070
E070
E070
E070
E070
6060
70E0
3FC0
1F80
ENDCHAR
STARTCHAR multiply
ENCODING 215
SWIDTH 600 0
DWIDTH 14 0
BBX 10 11 2 1
BITMAP
4080
E1C0
7380
3F00
1E00
1E00
3F00
7380
E1C0
C0C0
8080
ENDCHAR
STARTCHAR Oslash
ENCODING 216
SWIDTH 600 0
DWIDTH 14 0
BBX 12 19 1 -1
BITMAP
0020
1FB0
3FE0
70E0
60E0
E1F0
E1F0
E370
E370
E670
EC70
EC70
F870
F870
7060
70E0
7FC0
DF80
4000
ENDCHAR
STARTCHAR Ugrave
ENCODING 217
SWIDTH 600 0
DWIDTH 14 0
BBX 12 23 1 0
BITMAP
0800
1C00
0C00
0600
0600
0000
E070
E070
E070
E070
E070
E070
E070
E070
E070
E070
E070
6060
6060
6060
70E0
3FC0
1F80
ENDCHAR
STARTCHAR Uacute
ENCODING 218
SWIDTH 600 0
DWIDTH 14 0
BBX 12 23 1 0
BITMAP
0100
0380
0700
0600
0600
0000
E070
E070
E070
E070
E070
E070
E070
E070
E070
E070
E070
6060
6060
6060
70E0
3FC0
1F80
ENDCHAR
STARTCHAR Ucircumflex
ENCODING 219
SWIDTH 600 0
DWIDTH 14 0
BBX 12 23 1 0
BITMAP
0F00
0F00
1F80
39C0
1080
0000
E070
E070
E070
E070
E070
E070
E070
E070
E070
E070
E070
6060
6060
6060
70E0
3FC0
1F80
ENDCHAR
STARTCHAR Udieresis
ENCODING 220
SWIDTH 600 0
DWIDTH 14 0
BBX 12 22 1 0
BITMAP
39C0
39C0
39C0
0000
0000
E070
E070
E070
E070
E070
E070
E070
E070
E070
E070
E070
6060
6060
6060
70E0
3FC0
1F80
ENDCHAR
STARTCHAR Yacute
ENCODING 221
SWIDTH 600 0
DWIDTH 14 0
BBX 14 23 0 0
BITMAP
0080
01C0
0380
0300
0300
0000
E01C
7038
7038
3870
3870
1CE0
1CE0
0FC0
0780
0780
0300
0300
0300
0300
0300
0300
0300
ENDCHAR
STARTCHAR Thorn
ENCODING 222
SWIDTH 600 0
DWIDTH 14 0
BBX 11 17 2 0
BITMAP
C000
C000
C000
FF00
FFC0
C1C0
C0E0
C0E0
C0E0
C0E0
C1C0
FFC0
FF00
C000
C000
C000
C000
ENDCHAR
STARTCHAR germandbls
ENCODING 223
SWIDTH 600 0
DWIDTH 14 0
BBX 12 23 2 -5
BITMAP
7E00
FE00
C000
C000
C000
C000
FFE0
FFE0
C0C0
C1C0
C380
C700
C600
CF00
CFC0
C0E0
C060
C070
0070
0060
00E0
0FC0
0F00
ENDCHAR
STARTCHAR agrave
ENCODING 224
SWIDTH 600 0
DWIDTH 14 0
BBX 12 19 1 0
BITMAP
0800
1C00
0C00
0E00
0600
0000
0000
1F00
7FC0
61C0
40E0
00E0
3FE0
7FE0
E0E0
E0E0
E1E0
7FF0
3E70
ENDCHAR
STARTCHAR aacute
ENCODING 225
SWIDTH 600 0
DWIDTH 14 0
BBX 12 19 1 0
BITMAP
0300
0380
0700
0600
0C00
0000
0000
1F00
7FC0
61C0
40E0
00E0
3FE0
7FE0
E0E0
E0E0
E1E0
7FF0
3E70
ENDCHAR
STARTCHAR acircumflex
ENCODING 226
SWIDTH 600 0
DWIDTH 14 0
BBX 12 19 1 0
BITMAP
0E00
1F00
1B80
31C0
2080
0000
0000
1F00
7FC0
61C0
40E0
00E0
3FE0
7FE0
E0E0
E0E0
E1E0
7FF0
3E70
ENDCHAR
STARTCHAR atilde
ENCODING 227
SWIDTH 600 0
DWIDTH 14 0
BBX 12 17 1 0
BITMAP
3C80
7FC0
2380
0000
0000
1F00
7FC0
61C0
40E0
00E0
3FE0
7FE0
E0E0
E0E0
E1E0
7FF0
3E70
ENDCHAR
STARTCHAR adieresis
ENCODING 228
SWIDTH 600 0
DWIDTH 14 0
BBX 12 18 1 0
BITMAP
3980
39C0
3980
0000
0000
0000
1F00
7FC0
61C0
40E0
00E0
3FE0
7FE0
E0E0
E0E0
E1E0
7FF0
3E70
ENDCHAR
STARTCHAR aring
ENCODING 229
SWIDTH 600 0
DWIDTH 14 0
BBX 12 21 1 0
BITMAP
0E00
1F00
1980
1180
1980
1F00
0E00
0000
0000
1F00
7FC0
61C0
40E0
00E0
3FE0
7FE0
E0E0
E0E0
E1E0
7FF0
3E70
ENDCHAR
STARTCHAR ae
ENCODING 230
SWIDTH 600 0
DWIDTH 14 0
BBX 14 12 0 0
BITMAP
3CF0
7FF8
E718
430C
030C
3FFC
7FFC
E300
C300
C79C
FDF8
78F0
ENDCHAR
STARTCHAR ccedilla
ENCODING 231
SWIDTH 600 0
DWIDTH 14 0
BBX 10 17 2 -5
BITMAP
1F00
7F80
F1C0
E080
C000
C000
C000
C000
E080
F1C0
7FC0
1F00
0C00
0F00
0300
1300
1E00
ENDCHAR
STARTCHAR egrave
ENCODING 232
SWIDTH 600 0
DWIDTH 14 0
BBX 12 19 1 0
BITMAP
0C00
1C00
0E00
0600
0600
0000
0000
1F80
3FC0
70E0
6060
E070
FFF0
FFF0
E000
6040
70E0
3FE0
0F80
ENDCHAR
STARTCHAR eacute
ENCODING 233
SWIDTH 600 0
DWIDTH 14 0
BBX 12 19 1 0
BITMAP
0100
0380
0300
0600
0600
0000
0000
1F80
3FC0
70E0
6060
E070
FFF0
FFF0
E000
6040
70E0
3FE0
0F80
ENDCHAR
STARTCHAR ecircumflex
ENCODING 234
SWIDTH 600 0
DWIDTH 14 0
BBX 12 19 1 0
BITMAP
0F00
0F00
1D80
39C0
10C0
0000
0000
1F80
3FC0
70E0
6060
E070
FFF0
FFF0
E000
6040
70E0
3FE0
0F80
ENDCHAR
STARTCHAR edieresis
ENCODING 235
SWIDTH 600 0
DWIDTH 14 0
BBX 12 18 1 0
BITMAP
39C0
39C0
39C0
0000
0000
0000
1F80
3FC0
70E0
6060
E070
FFF0
FFF0
E000
6040
70E0
3FE0
0F80
ENDCHAR
STARTCHAR igrave
ENCODING 236
SWIDTH 600 0
DWIDTH 14 0
BBX 11 19 2 0
BITMAP
0800
1C00
0C00
0E00
0600
0000
0000
FE00
FE00
0E00
0E00
0E00
0E00
0E00
0E00
0E00
0E00
FFE0
FFE0
ENDCHAR
STARTCHAR iacute
ENCODING 237
SWIDTH 600 0
DWIDTH 14 0
BBX 11 19 2 0
BITMAP
0300
0380
0700
0600
0C00
0000
0000
FE00
FE00
0E00
0E00
0E00
0E00
0E00
0E00
0E00
0E00
FFE0
FFE0
ENDCHAR
STARTCHAR icircumflex
ENCODING 238
SWIDTH 600 0
DWIDTH 14 0
BBX 11 19 2 0
BITMAP
0E00
1F00
1B80
31C0
2080
0000
0000
FE00
FE00
0E00
0E00
0E00
0E00
0E00
0E00
0E00
0E00
FFE0
FFE0
ENDCHAR
STARTCHAR idieresis
ENCODING 239
SWIDTH 600 0
DWIDTH 14 0
BBX 11 18 2 0
BITMAP
39C0
39C0
39C0
0000
0000
0000
FE00
FE00
0E00
0E00
0E00
0E00
0E00
0E00
0E00
0E00
FFE0
FFE0
ENDCHAR
STARTCHAR eth
ENCODING 240
SWIDTH 600 0
DWIDTH 14 0
BBX 12 18 1 0
BITMAP
7CC0
0F80
0700
1F80
19C0
00C0
1EE0
3FE0
70F0
E070
E070
E070
E070
E070
6060
70E0
3FC0
1F80
ENDCHAR
STARTCHAR ntilde
ENCODING 241
SWIDTH 600 0
DWIDTH 14 0
BBX 10 17 2 0
BITMAP
3880
7F80
4700
0000
0000
CF00
DF80
E1C0
E1C0
C0C0
C0C0
C0C0
C0C0
C0C0
C0C0
C0C0
C0C0
ENDCHAR
STARTCHAR ograve
ENCODING 242
SWIDTH 600 0
DWIDTH 14 0
BBX 12 19 1 0
BITMAP
0800
1C00
0C00
0600
0600
0000
0000
1F80
3FC0
70E0
6060
E070
E070
E070
E070
6060
70E0
3FC0
1F80
ENDCHAR
STARTCHAR oacute
ENCODING 243
SWIDTH 600 0
DWIDTH 14 0
BBX 12 19 1 0
BITMAP
0100
0380
0300
0600
0600
0000
0000
1F80
3FC0
70E0
6060
E070
E070
E070
E070
6060
70E0
3FC0
1F80
ENDCHAR
STARTCHAR ocircumflex
ENCODING 244
SWIDTH 600 0
DWIDTH 14 0
BBX 12 19 1 0
BITMAP
0F00
0F00
1F80
39C0
1080
0000
0000
1F80
3FC0
70E0
6060
E070
E070
E070
E070
6060
70E0
3FC0
1F80
ENDCHAR
STARTCHAR otilde
ENCODING 245
SWIDTH 600 0
DWIDTH 14 0
BBX 12 17 1 0
BITMAP
1C40
3FC0
2380
0000
0000
1F80
3FC0
70E0
6060
E070
E070
E070
E070
6060
70E0
3FC0
1F80
ENDCHAR
STARTCHAR odieresis
ENCODING 246
SWIDTH 600 0
DWIDTH 14 0
BBX 12 18 1 0
BITMAP
39C0
39C0
39C0
0000
0000
0000
1F80
3FC0
70E0
6060
E070
E070
E070
E070
6060
70E0
3FC0
1F80
ENDCHAR
STARTCHAR divide
ENCODING 247
SWIDTH 600 0
DWIDTH 14 0
BBX 12 12 1 1
BITMAP
0600
0F00
0600
0000
0000
FFF0
FFF0
0000
0000
0600
0F00
0600
ENDCHAR
STARTCHAR oslash
ENCODING 248
SWIDTH 600 0
DWIDTH 14 0
BBX 12 14 1 -1
BITMAP
0020
1FB0
3FE0
70E0
61E0
E370
E770
EE70
EC70
7860
70E0
7FC0
DF80
4000
ENDCHAR
STARTCHAR ugrave
ENCODING 249
SWIDTH 600 0
DWIDTH 14 0
BBX 10 19 2 0
BITMAP
1000
3800
1800
0C00
0C00
0000
0000
C0C0
C0C0
C0C0
C0C0
C0C0
C0C0
C0C0
C0C0
E1C0
E1C0
7EC0
3CC0
ENDCHAR
STARTCHAR uacute
ENCODING 250
SWIDTH 600 0
DWIDTH 14 0
BBX 10 19 2 0
BITMAP
0600
0700
0E00
0C00
0C00
0000
0000
C0C0
C0C0
C0C0
C0C0
C0C0
C0C0
C0C0
C0C0
E1C0
E1C0
7EC0
3CC0
ENDCHAR
STARTCHAR ucircumflex
ENCODING 251
SWIDTH 600 0
DWIDTH 14 0
BBX 10 19 2 0
BITMAP
1E00
1E00
3700
7380
6100
0000
0000
C0C0
C0C0
C0C0
C0C0
C0C0
C0C0
C0C0
C0C0
E1C0
E1C0
7EC0
3CC0
ENDCHAR
STARTCHAR udieresis
ENCODING 252
SWIDTH 600 0
DWIDTH 14 0
BBX 10 18 2 0
BITMAP
7380
7380
7380
0000
0000
0000
C0C0
C0C0
C0C0
C0C0
C0C0
C0C0
C0C0
C0C0
E1C0
E1C0
7EC0
3CC0
ENDCHAR
STARTCHAR yacute
ENCODING 253
SWIDTH 600 0
DWIDTH 14 0
BBX 12 24 1 -5
BITMAP
0100
0380
0300
0600
0600
0000
0000
E070
E070
6060
70E0
30C0
38C0
39C0
1980
1F80
0F00
0F00
0F00
0600
0E00
0C00
7C00
7800
ENDCHAR
STARTCHAR thorn
ENCODING 254
SWIDTH 600 0
DWIDTH 14 0
BBX 11 23 2 -5
BITMAP
C000
C000
C000
C000
C000
C000
CF00
DFC0
E1C0
C0E0
C0E0
C0E0
C0E0
C0E0
C0E0
E1C0
DFC0
CF00
C000
C000
C000
C000
C000
ENDCHAR
STARTCHAR ydieresis
ENCODING 255
SWIDTH 600 0
DWIDTH 14 0
BBX 12 23 1 -5
BITMAP
39C0
39C0
39C0
0000
0000
0000
E070
E070
6060
70E0
30C0
38C0
39C0
1980
1F80
0F00
0F00
0F00
0600
0E00
0C00
7C00
7800
ENDCHAR
STARTCHAR Amacron
ENCODING 256
SWIDTH 600 0
DWIDTH 14 0
BBX 14 21 0 0
BITMAP
0FE0
0FE0
0000
0000
0780
0780
0FC0
0FC0
0CC0
0CC0
1CE0
1CE0
1860
3870
3FF0
3FF0
3030
7038
7038
6018
E01C
ENDCHAR
STARTCHAR amacron
ENCODING 257
SWIDTH 600 0
DWIDTH 14 0
BBX 12 17 1 0
BITMAP
3F80
3F80
0000
0000
0000
1F00
7FC0
61C0
40E0
00E0
3FE0
7FE0
E0E0
E0E0
E1E0
7FF0
3E70
ENDCHAR
STARTCHAR Abreve
ENCODING 258
SWIDTH 600 0
DWIDTH 14 0
BBX 14 23 0 0
BITMAP
1040
1860
1CE0
0FC0
0780
0000
0780
0780
0FC0
0FC0
0CC0
0CC0
1CE0
1CE0
1860
3870
3FF0
3FF0
3030
7038
7038
6018
E01C
ENDCHAR
STARTCHAR abreve
ENCODING 259
SWIDTH 600 0
DWIDTH 14 0
BBX 12 19 1 0
BITMAP
2080
30C0
3980
1F80
0F00
0000
0000
1F00
7FC0
61C0
40E0
00E0
3FE0
7FE0
E0E0
E0E0
E1E0
7FF0
3E70
ENDCHAR
STARTCHAR Aogonek
ENCODING 260
SWIDTH 600 0
DWIDTH 14 0
BBX 14 22 0 -5
BITMAP
0780
0780
0FC0
0FC0
0CC0
0CC0
1CE0
1CE0
1860
3870
3FF0
3FF0
3038
7038
7038
6018
E01C
0010
0020
0068
007C
003C
ENDCHAR
STARTCHAR aogonek
ENCODING 261
SWIDTH 600 0
DWIDTH 14 0
BBX 13 17 1 -5
BITMAP
1F00
7FC0
61C0
40E0
00E0
3FE0
7FE0
E0E0
E0E0
E1E0
7FF0
3E70
0020
00C0
00D0
00F8
00F0
ENDCHAR
STARTCHAR Cacute
ENCODING 262
SWIDTH 600 0
DWIDTH 14 0
BBX 12 23 1 0
BITMAP
0180
03C0
0380
0700
0200
0000
0F80
3FE0
38E0
7070
6040
E000
E000
E000
E000
E000
E000
E000
6040
7070
78E0
3FE0
0F80
ENDCHAR
STARTCHAR cacute
ENCODING 263
SWIDTH 600 0
DWIDTH 14 0
BBX 10 19 2 0
BITMAP
0200
0700
0600
0E00
0400
0000
0000
1F00
7F80
F1C0
E080
C000
C000
C000
C000
E080
F1C0
7FC0
1F00
ENDCHAR
STARTCHAR Ccircumflex
ENCODING 264
SWIDTH 600 0
DWIDTH 14 0
BBX 12 23 1 0
BITMAP
0700
0F80
1DC0
18C0
3060
0000
0F80
3FE0
38E0
7070
6040
E000
E000
E000
E000
E000
E000
E000
6040
7070
78E0
3FE0
0F80
ENDCHAR
STARTCHAR ccircumflex
ENCODING 265
SWIDTH 600 0
DWIDTH 14 0
BBX 10 19 2 0
BITMAP
0E00
1F00
3B00
7180
20C0
0000
0000
1F00
7F80
F1C0
E080
C000
C000
C000
C000
E080
F1C0
7FC0
1F00
ENDCHAR
STARTCHAR Cdotaccent
ENCODING 266
SWIDTH 600 0
DWIDTH 14 0
BBX 12 22 1 0
BITMAP
0700
0700
0700
0000
0000
0F80
3FE0
38E0
7070
6040
E000
E000
E000
E000
E000
E000
E000
6040
7070
78E0
3FE0
0F80
ENDCHAR
STARTCHAR cdotaccent
ENCODING 267
SWIDTH 600 0
DWIDTH 14 0
BBX 10 17 2 0
BITMAP
0E00
0E00
0E00
0000
0000
1F00
7F80
F1C0
E080
C000
C000
C000
C000
E080
F1C0
7FC0
1F00
ENDCHAR
STARTCHAR Ccaron
ENCODING 268
SWIDTH 600 0
DWIDTH 14 0
BBX 12 23 1 0
BITMAP
1040
38E0
1DC0
0F80
0700
0000
0F80
3FE0
38E0
7070
6040
E000
E000
E000
E000
E000
E000
E000
6040
7070
78E0
3FE0
0F80
ENDCHAR
STARTCHAR ccaron
ENCODING 269
SWIDTH 600 0
DWIDTH 14 0
BBX 10 19 2 0
BITMAP
2080
71C0
3B00
1F00
0E00
0000
0000
1F00
7F80
F1C0
E080
C000
C000
C000
C000
E080
F1C0
7FC0
1F00
ENDCHAR
STARTCHAR Dcaron
ENCODING 270
SWIDTH 600 0
DWIDTH 14 0
BBX 11 23 2 0
BITMAP
4100
E380
7700
3E00
1C00
0000
FE00
FF80
C3C0
C1C0
C0E0
C0E0
C0E0
C0E0
C0E0
C0E0
C0E0
C0E0
C0E0
C1C0
C3C0
FF80
FE00
ENDCHAR
STARTCHAR dcaron
ENCODING 271
SWIDTH 600 0
DWIDTH 14 0
BBX 14 18 1 0
BITMAP
01CC
01DC
01DC
01D8
01D8
01C0
3DC0
7FC0
E1C0
E1C0
C1C0
C1C0
C1C0
C1C0
E1C0
E1C0
7FC0
3DC0
ENDCHAR
STARTCHAR Dcroat
ENCODING 272
SWIDTH 600 0
DWIDTH 14 0
BBX 13 17 0 0
BITMAP
3F80
3FE0
38F0
3870
3838
3838
3838
FF38
FF38
3838
3838
3838
3838
3870
38F0
3FE0
3F80
ENDCHAR
STARTCHAR dcroat
ENCODING 273
SWIDTH 600 0
DWIDTH 14 0
BBX 13 18 1 0
BITMAP
0060
0060
07F8
07F8
0060
0060
1E60
7F60
70E0
E060
E060
E060
E060
E060
E060
70E0
7F60
1E60
ENDCHAR
STARTCHAR Emacron
ENCODING 274
SWIDTH 600 0
DWIDTH 14 0
BBX 10 21 2 0
BITMAP
3F80
3F80
0000
0000
FFC0
FFC0
E000
E000
E000
E000
E000
FFC0
FFC0
E000
E000
E000
E000
E000
E000
FFC0
FFC0
ENDCHAR
STARTCHAR emacron
ENCODING 275
SWIDTH 600 0
DWIDTH 14 0
BBX 12 17 1 0
BITMAP
1FC0
1FC0
0000
0000
0000
1F80
3FC0
70E0
6060
E070
FFF0
FFF0
E000
6040
70E0
3FE0
0F80
ENDCHAR
STARTCHAR Ebreve
ENCODING 276
SWIDTH 600 0
DWIDTH 14 0
BBX 10 23 2 0
BITMAP
2100
6180
7380
3F00
1E00
0000
FFC0
FFC0
E000
E000
E000
E000
E000
FFC0
FFC0
E000
E000
E000
E000
E000
E000
FFC0
FFC0
ENDCHAR
STARTCHAR ebreve
ENCODING 277
SWIDTH 600 0
DWIDTH 14 0
BBX 12 19 1 0
BITMAP
2080
30C0
39C0
1F80
0F00
0000
0000
1F80
3FC0
70E0
6060
E070
FFF0
FFF0
E000
6040
70E0
3FE0
0F80
ENDCHAR
STARTCHAR Edotaccent
ENCODING 278
SWIDTH 600 0
DWIDTH 14 0
BBX 10 22 2 0
BITMAP
0E00
1E00
0E00
0000
0000
FFC0
FFC0
E000
E000
E000
E000
E000
FFC0
FFC0
E000
E000
E000
E000
E000
E000
FFC0
FFC0
ENDCHAR
STARTCHAR edotaccent
ENCODING 279
SWIDTH 600 0
DWIDTH 14 0
BBX 12 17 1 0
BITMAP
0600
0F00
0700
0000
0000
1F80
3FC0
70E0
6060
E070
FFF0
FFF0
E000
6040
70E0
3FE0
0F80
ENDCHAR
STARTCHAR Eogonek
ENCODING 280
SWIDTH 600 0
DWIDTH 14 0
BBX 11 22 2 -5
BITMAP
FFC0
FFC0
E000
E000
E000
E000
E000
FFC0
FFC0
E000
E000
E000
E000
E000
E000
FFC0
FFC0
0080
0300
0340
03E0
03C0
ENDCHAR
STARTCHAR eogonek
ENCODING 281
SWIDTH 600 0
DWIDTH 14 0
BBX 12 17 1 -5
BITMAP
1F80
3FC0
70E0
6060
E070
FFF0
FFF0
E000
6040
70E0
3FE0
0FC0
0300
0600
0680
07C0
0780
ENDCHAR
STARTCHAR Ecaron
ENCODING 282
SWIDTH 600 0
DWIDTH 14 0
BBX 10 23 2 0
BITMAP
2180
7380
3F00
1F00
1E00
0000
FFC0
FFC0
E000
E000
E000
E000
E000
FFC0
FFC0
E000
E000
E000
E000
E000
E000
FFC0
FFC0
ENDCHAR
STARTCHAR ecaron
ENCODING 283
SWIDTH 600 0
DWIDTH 14 0
BBX 12 19 1 0
BITMAP
10C0
39C0
1D80
0F00
0F00
0000
0000
1F80
3FC0
70E0
6060
E070
FFF0
FFF0
E000
6040
70E0
3FE0
0F80
ENDCHAR
STARTCHAR Gcircumflex
ENCODING 284
SWIDTH 600 0
DWIDTH 14 0
BBX 12 23 1 0
BITMAP
0F00
0F80
1D80
39C0
10C0
0000
0F80
3FC0
70E0
7060
E050
E000
E000
E000
E3F0
E3F0
E070
E070
E070
6070
70F0
3F70
1E70
ENDCHAR
STARTCHAR gcircumflex
ENCODING 285
SWIDTH 600 0
DWIDTH 14 0
BBX 13 24 1 -5
BITMAP
0F00
0F00
1F80
39C0
1080
0000
0000
1FF0
3FF0
70E0
60E0
60E0
70E0
3FC0
1F80
2000
6000
7FE0
3FF0
6030
E038
E070
7FF0
3FC0
ENDCHAR
STARTCHAR Gbreve
ENCODING 286
SWIDTH 600 0
DWIDTH 14 0
BBX 12 23 1 0
BITMAP
1080
30C0
39C0
1F80
0F00
0000
0F80
3FC0
70E0
7060
E050
E000
E000
E000
E3F0
E3F0
E070
E070
E070
6070
70F0
3F70
1E70
ENDCHAR
STARTCHAR gbreve
ENCODING 287
SWIDTH 600 0
DWIDTH 14 0
BBX 13 24 1 -5
BITMAP
2080
30C0
39C0
1F80
0F00
0000
0000
1FF0
3FF0
70E0
60E0
60E0
70E0
3FC0
1F80
2000
6000
7FE0
3FF0
6030
E038
E070
7FF0
3FC0
ENDCHAR
STARTCHAR Gdotaccent
ENCODING 288
SWIDTH 600 0
DWIDTH 14 0
BBX 12 22 1 0
BITMAP
0700
0F00
0700
0000
0000
0F80
3FC0
70E0
7060
E050
E000
E000
E000
E3F0
E3F0
E070
E070
E070
6070
70F0
3F70
1E70
ENDCHAR
STARTCHAR gdotaccent
ENCODING 289
SWIDTH 600 0
DWIDTH 14 0
BBX 13 22 1 -5
BITMAP
0E00
0F00
0E00
0070
00F0
1F80
3FC0
70E0
60E0
60E0
70E0
3FC0
1F80
2000
6000
7FE0
3FF0
6030
E038
E070
7FF0
3FC0
ENDCHAR
STARTCHAR Gcommaaccent
ENCODING 290
SWIDTH 600 0
DWIDTH 14 0
BBX 12 23 1 -6
BITMAP
0F80
3FC0
70E0
7060
E050
E000
E000
E000
E3F0
E3F0
E070
E070
E070
6070
70F0
3F70
1E70
0000
0700
0E00
0E00
0C00
0C00
ENDCHAR
STARTCHAR gcommaaccent
ENCODING 291
SWIDTH 600 0
DWIDTH 14 0
BBX 13 24 1 -5
BITMAP
0300
0300
0700
0700
0600
0870
00F0
1F80
3FC0
70E0
60E0
60E0
70E0
3FC0
1F80
2000
6000
7FE0
3FF0
6030
E038
E070
7FF0
3FC0
ENDCHAR
STARTCHAR Hcircumflex
ENCODING 292
SWIDTH 600 0
DWIDTH 14 0
BBX 11 23 2 0
BITMAP
1E00
1E00
3F00
7380
2100
0000
C0E0
C0E0
C0E0
C0E0
C0E0
C0E0
C0E0
FFE0
FFE0
C0E0
C0E0
C0E0
C0E0
C0E0
C0E0
C0E0
C0E0
ENDCHAR
STARTCHAR hcircumflex
ENCODING 293
SWIDTH 600 0
DWIDTH 14 0
BBX 13 23 -1 0
BITMAP
3C00
3E00
7600
E300
4300
1800
1800
1800
1800
1800
1800
19E0
1BF0
1C38
1C38
1818
1818
1818
1818
1818
1818
1818
1818
ENDCHAR
STARTCHAR Hbar
ENCODING 294
SWIDTH 600 0
DWIDTH 14 0
BBX 14 17 0 0
BITMAP
3038
3038
FFFC
FFFC
3038
3038
3038
3FF8
3FF8
3038
3038
3038
3038
3038
3038
3038
3038
ENDCHAR
STARTCHAR hbar
ENCODING 295
SWIDTH 600 0
DWIDTH 14 0
BBX 12 18 0 0
BITMAP
3000
3000
FF00
FF00
3000
3000
33C0
37E0
3870
3870
3030
3030
3030
3030
3030
3030
3030
3030
ENDCHAR
STARTCHAR Itilde
ENCODING 296
SWIDTH 600 0
DWIDTH 14 0
BBX 10 22 2 0
BITMAP
3880
7F80
4700
0000
0000
FFC0
FFC0
0C00
0C00
0C00
0C00
0C00
0C00
0C00
0C00
0C00
0C00
0C00
0C00
0C00
FFC0
FFC0
ENDCHAR
STARTCHAR itilde
ENCODING 297
SWIDTH 600 0
DWIDTH 14 0
BBX 11 17 2 0
BITMAP
3C80
3FC0
2380
0000
0000
FE00
FE00
0E00
0E00
0E00
0E00
0E00
0E00
0E00
0E00
FFE0
FFE0
ENDCHAR
STARTCHAR Imacron
ENCODING 298
SWIDTH 600 0
DWIDTH 14 0
BBX 10 21 2 0
BITMAP
3F80
3F80
0000
0000
FFC0
FFC0
0C00
0C00
0C00
0C00
0C00
0C00
0C00
0C00
0C00
0C00
0C00
0C00
0C00
FFC0
FFC0
ENDCHAR
STARTCHAR imacron
ENCODING 299
SWIDTH 600 0
DWIDTH 14 0
BBX 11 17 2 0
BITMAP
3F80
3F80
0000
0000
0000
FE00
FE00
0E00
0E00
0E00
0E00
0E00
0E00
0E00
0E00
FFE0
FFE0
ENDCHAR
STARTCHAR Ibreve
ENCODING 300
SWIDTH 600 0
DWIDTH 14 0
BBX 10 23 2 0
BITMAP
4100
6180
7380
3F00
1E00
0000
FFC0
FFC0
0C00
0C00
0C00
0C00
0C00
0C00
0C00
0C00
0C00
0C00
0C00
0C00
0C00
FFC0
FFC0
ENDCHAR
STARTCHAR ibreve
ENCODING 301
SWIDTH 600 0
DWIDTH 14 0
BBX 11 19 2 0
BITMAP
2080
30C0
3980
1F80
0F00
0000
0000
FE00
FE00
0E00
0E00
0E00
0E00
0E00
0E00
0E00
0E00
FFE0
FFE0
ENDCHAR
STARTCHAR Iogonek
ENCODING 302
SWIDTH 600 0
DWIDTH 14 0
BBX 11 22 2 -5
BITMAP
FFC0
FFC0
0C00
0C00
0C00
0C00
0C00
0C00
0C00
0C00
0C00
0C00
0C00
0C00
0C00
FFC0
FFC0
0080
0300
0340
03E0
03C0
ENDCHAR
STARTCHAR iogonek
ENCODING 303
SWIDTH 600 0
DWIDTH 14 0
BBX 12 23 2 -5
BITMAP
0E00
0F00
0E00
0000
0000
0000
FE00
FE00
0E00
0E00
0E00
0E00
0E00
0E00
0E00
0E00
FFE0
FFE0
00C0
0180
0320
03F0
01E0
ENDCHAR
STARTCHAR Idotaccent
ENCODING 304
SWIDTH 600 0
DWIDTH 14 0
BBX 10 22 2 0
BITMAP
0C00
1E00
0C00
0000
0000
FFC0
FFC0
0C00
0C00
0C00
0C00
0C00
0C00
0C00
0C00
0C00
0C00
0C00
0C00
0C00
FFC0
FFC0
ENDCHAR
STARTCHAR dotlessi
ENCODING 305
SWIDTH 600 0
DWIDTH 14 0
BBX 11 12 2 0
BITMAP
FE00
FE00
0E00
0E00
0E00
0E00
0E00
0E00
0E00
0E00
FFE0
FFE0
ENDCHAR
STARTCHAR IJ
ENCODING 306
SWIDTH 600 0
DWIDTH 14 0
BBX 10 17 2 0
BITMAP
C0C0
C0C0
C0C0
C0C0
C0C0
C0C0
C0C0
C0C0
C0C0
C0C0
00C0
00C0
41C0
C1C0
E1C0
7F80
3E00
ENDCHAR
STARTCHAR ij
ENCODING 307
SWIDTH 600 0
DWIDTH 14 0
BBX 11 23 1 -5
BITMAP
70E0
F0E0
70E0
0000
0000
0000
70E0
70E0
70E0
70E0
70E0
70E0
70E0
70E0
70E0
70E0
70E0
70E0
00E0
00E0
00E0
0FE0
0FC0
ENDCHAR
STARTCHAR Jcircumflex
ENCODING 308
SWIDTH 600 0
DWIDTH 14 0
BBX 11 23 1 0
BITMAP
0700
0F80
1DC0
38C0
1060
0000
3FE0
3FE0
00E0
00E0
00E0
00E0
00E0
00E0
00E0
00E0
00E0
00E0
00E0
E0E0
71C0
7F80
1F00
ENDCHAR
STARTCHAR jcircumflex
ENCODING 309
SWIDTH 600 0
DWIDTH 14 0
BBX 11 24 2 -5
BITMAP
0780
0F80
0DC0
18E0
1840
0000
0000
FF00
FF00
0300
0300
0300
0300
0300
0300
0300
0300
0300
0300
0300
0300
0300
FF00
FE00
ENDCHAR
STARTCHAR Kcommaaccent
ENCODING 310
SWIDTH 600 0
DWIDTH 14 0
BBX 12 23 2 -6
BITMAP
C0F0
C1E0
C1C0
C380
C700
CF00
CE00
DC00
FE00
FF00
F700
E380
C380
C1C0
C1C0
C0E0
C070
0000
0E00
0E00
0C00
0C00
0C00
ENDCHAR
STARTCHAR kcommaaccent
ENCODING 311
SWIDTH 600 0
DWIDTH 14 0
BBX 12 24 2 -6
BITMAP
E000
E000
E000
E000
E000
E000
E0E0
E3C0
E780
EE00
FC00
FE00
FF00
E700
E380
E1C0
E1E0
E0E0
0010
0E00
0E00
0C00
0C00
1800
ENDCHAR
STARTCHAR kgreenlandic
ENCODING 312
SWIDTH 600 0
DWIDTH 14 0
BBX 12 12 2 0
BITMAP
E0E0
E1C0
E380
E700
EE00
FE00
FF00
E700
E380
E1C0
E0E0
E0F0
ENDCHAR
STARTCHAR Lacute
ENCODING 313
SWIDTH 600 0
DWIDTH 14 0
BBX 11 23 2 0
BITMAP
3000
3800
7000
6000
C000
0000
E000
E000
E000
E000
E000
E000
E000
E000
E000
E000
E000
E000
E000
E000
E000
FFE0
FFE0
ENDCHAR
STARTCHAR lacute
ENCODING 314
SWIDTH 600 0
DWIDTH 14 0
BBX 10 24 2 0
BITMAP
0200
0700
0600
0C00
0C00
0000
FC00
FC00
0C00
0C00
0C00
0C00
0C00
0C00
0C00
0C00
0C00
0C00
0C00
0C00
0C00
0C00
FFC0
FFC0
ENDCHAR
STARTCHAR Lcommaaccent
ENCODING 315
SWIDTH 600 0
DWIDTH 14 0
BBX 11 23 2 -6
BITMAP
E000
E000
E000
E000
E000
E000
E000
E000
E000
E000
E000
E000
E000
E000
E000
FFE0
FFE0
0000
0E00
0E00
0C00
0C00
0C00
ENDCHAR
STARTCHAR lcommaaccent
ENCODING 316
SWIDTH 600 0
DWIDTH 14 0
BBX 10 24 2 -6
BITMAP
FC00
FC00
0C00
0C00
0C00
0C00
0C00
0C00
0C00
0C00
0C00
0C00
0C00
0C00
0C00
0C00
FFC0
FFC0
0000
0E00
1C00
1C00
1800
1800
ENDCHAR
STARTCHAR Lcaron
ENCODING 317
SWIDTH 600 0
DWIDTH 14 0
BBX 11 18 2 0
BITMAP
0700
E700
E700
E600
E600
E000
E000
E000
E000
E000
E000
E000
E000
E000
E000
E000
FFE0
FFE0
ENDCHAR
STARTCHAR lcaron
ENCODING 318
SWIDTH 600 0
DWIDTH 14 0
BBX 11 18 2 0
BITMAP
FCE0
FCE0
0CE0
0CC0
0CC0
0C00
0C00
0C00
0C00
0C00
0C00
0C00
0C00
0C00
0C00
0C00
FFC0
FFC0
ENDCHAR
STARTCHAR Ldot
ENCODING 319
SWIDTH 600 0
DWIDTH 14 0
BBX 11 17 2 0
BITMAP
E000
E000
E000
E000
E000
E000
E000
E000
E1C0
E1C0
E1C0
E000
E000
E000
E000
FFE0
FFE0
ENDCHAR
STARTCHAR ldot
ENCODING 320
SWIDTH 600 0
DWIDTH 14 0
BBX 13 18 1 0
BITMAP
FE00
FE00
0600
0600
0600
0600
0600
0600
0600
0600
0638
0678
0638
0600
0600
0600
FFE0
FFE0
ENDCHAR
STARTCHAR Lslash
ENCODING 321
SWIDTH 600 0
DWIDTH 14 0
BBX 12 17 1 0
BITMAP
3000
3000
3000
3000
3000
3000
3080
3780
7F00
F800
B000
3000
3000
3000
3000
3FF0
3FF0
ENDCHAR
STARTCHAR lslash
ENCODING 322
SWIDTH 600 0
DWIDTH 14 0
BBX 10 18 2 0
BITMAP
FC00
FC00
0C00
0C00
0C00
0C00
0C00
0C40
0FC0
0F80
7C00
FC00
8C00
0C00
0C00
0C00
FFC0
FFC0
ENDCHAR
STARTCHAR Nacute
ENCODING 323
SWIDTH 600 0
DWIDTH 14 0
BBX 11 23 1 0
BITMAP
0100
0380
0700
0600
0600
0000
F060
F060
F860
F860
FC60
EC60
EC60
EE60
E660
E660
E360
E360
E3E0
E1E0
E1E0
E1E0
E0E0
ENDCHAR
STARTCHAR nacute
ENCODING 324
SWIDTH 600 0
DWIDTH 14 0
BBX 10 19 2 0
BITMAP
0200
0700
0600
0C00
0C00
0000
0000
CF00
DF80
E1C0
E1C0
C0C0
C0C0
C0C0
C0C0
C0C0
C0C0
C0C0
C0C0
ENDCHAR
STARTCHAR Ncommaaccent
ENCODING 325
SWIDTH 600 0
DWIDTH 14 0
BBX 11 23 1 -6
BITMAP
F060
F060
F860
F860
FC60
EC60
EC60
EE60
E660
E660
E360
E360
E3E0
E1E0
E1E0
E1E0
E0E0
0000
0700
0E00
0E00
0C00
0C00
ENDCHAR
STARTCHAR ncommaaccent
ENCODING 326
SWIDTH 600 0
DWIDTH 14 0
BBX 10 18 2 -6
BITMAP
CF00
DF80
E1C0
E1C0
C0C0
C0C0
C0C0
C0C0
C0C0
C0C0
C0C0
C0C0
0000
0E00
0C00
1C00
1800
1800
ENDCHAR
STARTCHAR Ncaron
ENCODING 327
SWIDTH 600 0
DWIDTH 14 0
BBX 11 23 1 0
BITMAP
1080
39C0
1F80
0F00
0F00
0000
F060
F060
F860
F860
FC60
EC60
EC60
EE60
E660
E660
E360
E360
E3E0
E1E0
E1E0
E1E0
E0E0
ENDCHAR
STARTCHAR ncaron
ENCODING 328
SWIDTH 600 0
DWIDTH 14 0
BBX 10 19 2 0
BITMAP
2180
7180
3B00
1E00
1E00
0000
0000
CF00
DF80
E1C0
E1C0
C0C0
C0C0
C0C0
C0C0
C0C0
C0C0
C0C0
C0C0
ENDCHAR
STARTCHAR napostrophe
ENCODING 329
SWIDTH 600 0
DWIDTH 14 0
BBX 12 18 0 0
BITMAP
E000
C000
C000
C000
8000
0000
39C0
3BF0
3C70
3830
3830
3830
3830
3830
3830
3830
3830
3830
ENDCHAR
STARTCHAR Eng
ENCODING 330
SWIDTH 600 0
DWIDTH 14 0
BBX 11 22 1 -5
BITMAP
F060
F060
F860
F860
FC60
EC60
EC60
EE60
E660
E660
E360
E360
E3E0
E1E0
E1E0
E1E0
E0E0
0060
0060
0060
1FE0
1FC0
ENDCHAR
STARTCHAR eng
ENCODING 331
SWIDTH 600 0
DWIDTH 14 0
BBX 10 17 2 -5
BITMAP
CF00
DF80
E1C0
E1C0
C0C0
C0C0
C0C0
C0C0
C0C0
C0C0
C0C0
C0C0
00C0
00C0
00C0
3FC0
3F80
ENDCHAR
STARTCHAR Omacron
ENCODING 332
SWIDTH 600 0
DWIDTH 14 0
BBX 12 21 1 0
BITMAP
1FC0
1FC0
0000
0000
1F80
3FC0
70E0
6060
E070
E070
E070
E070
E070
E070
E070
E070
E070
6060
70E0
3FC0
1F80
ENDCHAR
STARTCHAR omacron
ENCODING 333
SWIDTH 600 0
DWIDTH 14 0
BBX 12 17 1 0
BITMAP
1FC0
1FC0
0000
0000
0000
1F80
3FC0
70E0
6060
E070
E070
E070
E070
6060
70E0
3FC0
1F80
ENDCHAR
STARTCHAR Obreve
ENCODING 334
SWIDTH 600 0
DWIDTH 14 0
BBX 12 23 1 0
BITMAP
2080
30C0
39C0
1F80
0F00
0000
1F80
3FC0
70E0
6060
E070
E070
E070
E070
E070
E070
E070
E070
E070
6060
70E0
3FC0
1F80
ENDCHAR
STARTCHAR obreve
ENCODING 335
SWIDTH 600 0
DWIDTH 14 0
BBX 12 19 1 0
BITMAP
2080
30C0
39C0
1F80
0F00
0000
0000
1F80
3FC0
70E0
6060
E070
E070
E070
E070
6060
70E0
3FC0
1F80
ENDCHAR
STARTCHAR Ohungarumlaut
ENCODING 336
SWIDTH 600 0
DWIDTH 14 0
BBX 12 23 1 0
BITMAP
0C40
0EE0
1CC0
1980
1180
0000
1F80
3FC0
70E0
6060
E070
E070
E070
E070
E070
E070
E070
E070
E070
6060
70E0
3FC0
1F80
ENDCHAR
STARTCHAR ohungarumlaut
ENCODING 337
SWIDTH 600 0
DWIDTH 14 0
BBX 12 19 1 0
BITMAP
0C40
0EE0
1CC0
1980
1180
0000
0000
1F80
3FC0
70E0
6060
E070
E070
E070
E070
6060
70E0
3FC0
1F80
ENDCHAR
STARTCHAR OE
ENCODING 338
SWIDTH 600 0
DWIDTH 14 0
BBX 14 17 0 0
BITMAP
0FFC
3FFC
39C0
71C0
61C0
61C0
61C0
E1F8
E1F8
E1C0
61C0
61C0
61C0
71C0
39C0
3FFC
0FFC
ENDCHAR
STARTCHAR oe
ENCODING 339
SWIDTH 600 0
DWIDTH 14 0
BBX 14 12 0 0
BITMAP
3CF0
7FF8
6798
C30C
C30C
C3FC
C3FC
C300
C308
679C
7FF8
3CF0
ENDCHAR
STARTCHAR Racute
ENCODING 340
SWIDTH 600 0
DWIDTH 14 0
BBX 11 23 2 0
BITMAP
0200
0700
0600
0C00
0C00
0000
FF80
FFC0
E1E0
E0E0
E0E0
E0E0
E0E0
E1E0
FFC0
FF00
E700
E700
E380
E180
E1C0
E0C0
E0E0
ENDCHAR
STARTCHAR racute
ENCODING 341
SWIDTH 600 0
DWIDTH 14 0
BBX 11 19 2 0
BITMAP
0100
0380
0700
0600
0600
0000
0000
FCE0
FDE0
1E00
1C00
1C00
1C00
1C00
1C00
1C00
1C00
FFC0
FFC0
ENDCHAR
STARTCHAR Rcommaaccent
ENCODING 342
SWIDTH 600 0
DWIDTH 14 0
BBX 11 23 2 -6
BITMAP
FF80
FFC0
E1E0
E0E0
E0E0
E0E0
E0E0
E1E0
FFC0
FF00
E700
E700
E380
E180
E1C0
E0C0
E0E0
0000
0E00
0C00
0C00
1C00
1800
ENDCHAR
STARTCHAR rcommaaccent
ENCODING 343
SWIDTH 600 0
DWIDTH 14 0
BBX 11 18 2 -6
BITMAP
FCE0
FDE0
1E00
1C00
1C00
1C00
1C00
1C00
1C00
1C00
FFC0
FFC0
0000
1C00
1800
1800
3800
3000
ENDCHAR
STARTCHAR Rcaron
ENCODING 344
SWIDTH 600 0
DWIDTH 14 0
BBX 11 23 2 0
BITMAP
2180
7380
3F00
1F00
1E00
0000
FF80
FFC0
E1E0
E0E0
E0E0
E0E0
E0E0
E1E0
FFC0
FF00
E700
E700
E380
E180
E1C0
E0C0
E0E0
ENDCHAR
STARTCHAR rcaron
ENCODING 345
SWIDTH 600 0
DWIDTH 14 0
BBX 11 19 2 0
BITMAP
1080
39C0
1D80
0F00
0F00
0000
0000
FCE0
FDE0
1E00
1C00
1C00
1C00
1C00
1C00
1C00
1C00
FFC0
FFC0
ENDCHAR
STARTCHAR Sacute
ENCODING 346
SWIDTH 600 0
DWIDTH 14 0
BBX 12 23 1 0
BITMAP
0100
0380
0700
0600
0600
0000
1F80
3FE0
70F0
E040
E000
E000
7000
7F00
3FC0
03E0
0070
0070
0070
4070
F0E0
7FE0
1F80
ENDCHAR
STARTCHAR sacute
ENCODING 347
SWIDTH 600 0
DWIDTH 14 0
BBX 11 19 1 0
BITMAP
0100
0380
0300
0600
0600
0000
0000
1F80
3FE0
7060
6000
7800
3FC0
1FE0
00E0
4060
60E0
FFE0
1F80
ENDCHAR
STARTCHAR Scircumflex
ENCODING 348
SWIDTH 600 0
DWIDTH 14 0
BBX 12 23 1 0
BITMAP
0F00
0F00
1F80
39C0
1080
0000
1F80
3FE0
70F0
E040
E000
E000
7000
7F00
3FC0
03E0
0070
0070
0070
4070
F0E0
7FE0
1F80
ENDCHAR
STARTCHAR scircumflex
ENCODING 349
SWIDTH 600 0
DWIDTH 14 0
BBX 11 19 1 0
BITMAP
0F00
0F00
1F80
39C0
1080
0000
0000
1F80
3FE0
7060
6000
7800
3FC0
1FE0
00E0
4060
60E0
FFE0
1F80
ENDCHAR
STARTCHAR Scedilla
ENCODING 350
SWIDTH 600 0
DWIDTH 14 0
BBX 12 22 1 -5
BITMAP
1F80
3FE0
70F0
E040
E000
E000
7000
7F00
3FC0
03E0
0070
0070
0070
4070
F0E0
7FE0
1F80
0400
0780
0180
0980
0F00
ENDCHAR
STARTCHAR scedilla
ENCODING 351
SWIDTH 600 0
DWIDTH 14 0
BBX 11 17 1 -5
BITMAP
1F80
3FE0
7060
6000
7800
3FC0
1FE0
00E0
4060
60E0
FFE0
1F80
0400
0780
0180
0980
0F00
ENDCHAR
STARTCHAR Scaron
ENCODING 352
SWIDTH 600 0
DWIDTH 14 0
BBX 12 23 1 0
BITMAP
1080
39C0
1F80
0F00
0F00
0000
1F80
3FE0
70F0
E040
E000
E000
7000
7F00
3FC0
03E0
0070
0070
0070
4070
F0E0
7FE0
1F80
ENDCHAR
STARTCHAR scaron
ENCODING 353
SWIDTH 600 0
DWIDTH 14 0
BBX 11 19 1 0
BITMAP
10C0
39C0
1D80
0F00
0F00
0000
0000
1F80
3FE0
7060
6000
7800
3FC0
1FE0
00E0
4060
60E0
FFE0
1F80
ENDCHAR
STARTCHAR Tcommaaccent
ENCODING 354
SWIDTH 600 0
DWIDTH 14 0
BBX 14 23 0 -6
BITMAP
FFFC
FFFC
0300
0300
0300
0300
0300
0300
0300
0300
0300
0300
0300
0300
0300
0300
0300
0000
0380
0700
0700
0600
0600
ENDCHAR
STARTCHAR tcommaaccent
ENCODING 355
SWIDTH 600 0
DWIDTH 14 0
BBX 11 23 1 -6
BITMAP
0C00
0C00
0C00
0C00
0C00
FFE0
FFE0
0C00
0C00
0C00
0C00
0C00
0C00
0C00
0C00
0FE0
07E0
0000
0380
0380
0300
0300
0300
ENDCHAR
STARTCHAR Tcaron
ENCODING 356
SWIDTH 600 0
DWIDTH 14 0
BBX 14 23 0 0
BITMAP
0840
1CE0
0FC0
0780
0780
0000
FFFC
FFFC
0300
0300
0300
0300
0300
0300
0300
0300
0300
0300
0300
0300
0300
0300
0300
ENDCHAR
STARTCHAR tcaron
ENCODING 357
SWIDTH 600 0
DWIDTH 14 0
BBX 11 19 1 0
BITMAP
00E0
00E0
0CE0
0CC0
0CC0
0C00
0C00
FFE0
FFE0
0C00
0C00
0C00
0C00
0C00
0C00
0C00
0C00
0FE0
07E0
ENDCHAR
STARTCHAR Tbar
ENCODING 358
SWIDTH 600 0
DWIDTH 14 0
BBX 14 17 0 0
BITMAP
FFFC
FFFC
0300
0300
0300
0300
0300
3FF0
3FF0
0300
0300
0300
0300
0300
0300
0300
0300
ENDCHAR
STARTCHAR tbar
ENCODING 359
SWIDTH 600 0
DWIDTH 14 0
BBX 11 17 1 0
BITMAP
0C00
0C00
0C00
0C00
0C00
FFE0
FFE0
0C00
0C00
0C00
7FC0
7FC0
0C00
0C00
0C00
0FE0
07E0
ENDCHAR
STARTCHAR Utilde
ENCODING 360
SWIDTH 600 0
DWIDTH 14 0
BBX 12 22 1 0
BITMAP
1C40
3FC0
2380
0000
0000
E070
E070
E070
E070
E070
E070
E070
E070
E070
E070
E070
6060
6060
6060
70E0
3FC0
1F80
ENDCHAR
STARTCHAR utilde
ENCODING 361
SWIDTH 600 0
DWIDTH 14 0
BBX 10 17 2 0
BITMAP
3880
7F80
4700
0000
0000
C0C0
C0C0
C0C0
C0C0
C0C0
C0C0
C0C0
C0C0
E1C0
E1C0
7EC0
3CC0
ENDCHAR
STARTCHAR Umacron
ENCODING 362
SWIDTH 600 0
DWIDTH 14 0
BBX 12 21 1 0
BITMAP
1FC0
1FC0
0000
0000
E070
E070
E070
E070
E070
E070
E070
E070
E070
E070
E070
6060
6060
6060
70E0
3FC0
1F80
ENDCHAR
STARTCHAR umacron
ENCODING 363
SWIDTH 600 0
DWIDTH 14 0
BBX 10 17 2 0
BITMAP
3F80
3F80
0000
0000
0000
C0C0
C0C0
C0C0
C0C0
C0C0
C0C0
C0C0
C0C0
E1C0
E1C0
7EC0
3CC0
ENDCHAR
STARTCHAR Ubreve
ENCODING 364
SWIDTH 600 0
DWIDTH 14 0
BBX 12 23 1 0
BITMAP
2080
30C0
39C0
1F80
0F00
0000
E070
E070
E070
E070
E070
E070
E070
E070
E070
E070
E070
6060
6060
6060
70E0
3FC0
1F80
ENDCHAR
STARTCHAR ubreve
ENCODING 365
SWIDTH 600 0
DWIDTH 14 0
BBX 10 19 2 0
BITMAP
4100
6180
7380
3F00
1E00
0000
0000
C0C0
C0C0
C0C0
C0C0
C0C0
C0C0
C0C0
C0C0
E1C0
E1C0
7EC0
3CC0
ENDCHAR
STARTCHAR Uring
ENCODING 366
SWIDTH 600 0
DWIDTH 14 0
BBX 12 25 1 0
BITMAP
0F00
1F80
1980
1980
1980
1F80
0F00
0000
E070
E070
E070
E070
E070
E070
E070
E070
E070
E070
E070
6060
6060
6060
70E0
3FC0
1F80
ENDCHAR
STARTCHAR uring
ENCODING 367
SWIDTH 600 0
DWIDTH 14 0
BBX 10 21 2 0
BITMAP
1E00
3F00
3300
3300
3300
3F00
1E00
0000
0000
C0C0
C0C0
C0C0
C0C0
C0C0
C0C0
C0C0
C0C0
E1C0
E1C0
7EC0
3CC0
ENDCHAR
STARTCHAR Uhungarumlaut
ENCODING 368
SWIDTH 600 0
DWIDTH 14 0
BBX 12 23 1 0
BITMAP
0C40
0EE0
1CC0
1980
1180
0000
E070
E070
E070
E070
E070
E070
E070
E070
E070
E070
E070
6060
6060
6060
70E0
3FC0
1F80
ENDCHAR
STARTCHAR uhungarumlaut
ENCODING 369
SWIDTH 600 0
DWIDTH 14 0
BBX 10 19 2 0
BITMAP
1880
1DC0
3980
3300
2300
0000
0000
C0C0
C0C0
C0C0
C0C0
C0C0
C0C0
C0C0
C0C0
E1C0
E1C0
7EC0
3CC0
ENDCHAR
STARTCHAR Uogonek
ENCODING 370
SWIDTH 600 0
DWIDTH 14 0
BBX 12 22 1 -5
BITMAP
E070
E070
E070
E070
E070
E070
E070
E070
E070
E070
E070
6070
6060
6060
70E0
3FC0
1F80
0300
0400
0C80
0F80
07C0
ENDCHAR
STARTCHAR uogonek
ENCODING 371
SWIDTH 600 0
DWIDTH 14 0
BBX 11 17 2 -5
BITMAP
C0C0
C0C0
C0C0
C0C0
C0C0
C0C0
C0C0
C0C0
E1C0
E1C0
7EC0
3CC0
0080
0300
0240
03E0
03C0
ENDCHAR
STARTCHAR Wcircumflex
ENCODING 372
SWIDTH 600 0
DWIDTH 14 0
BBX 14 23 0 0
BITMAP
0780
0780
0FC0
1CE0
0840
0000
E01C
601C
6018
6018
6318
6798
6798
6798
6798
6698
6CD8
6CD8
6CD8
7CF8
7CF8
7878
3870
ENDCHAR
STARTCHAR wcircumflex
ENCODING 373
SWIDTH 600 0
DWIDTH 14 0
BBX 14 19 0 0
BITMAP
0780
0780
0FC0
1CE0
0840
0000
0000
E30C
E79C
6798
6798
6798
6498
64D8
6CD8
7CD0
3CF0
3CF0
3870
ENDCHAR
STARTCHAR Ycircumflex
ENCODING 374
SWIDTH 600 0
DWIDTH 14 0
BBX 14 23 0 0
BITMAP
0780
0780
0FC0
1CE0
0840
0000
E01C
7038
7038
3870
3870
1CE0
1CE0
0FC0
0780
0780
0300
0300
0300
0300
0300
0300
0300
ENDCHAR
STARTCHAR ycircumflex
ENCODING 375
SWIDTH 600 0
DWIDTH 14 0
BBX 12 24 1 -5
BITMAP
0F00
0F00
1D80
39C0
10C0
0000
0000
E070
E070
6060
70E0
30C0
38C0
39C0
1980
1F80
0F00
0F00
0F00
0600
0E00
0C00
7C00
7800
ENDCHAR
STARTCHAR Ydieresis
ENCODING 376
SWIDTH 600 0
DWIDTH 14 0
BBX 14 22 0 0
BITMAP
1CE0
1CE0
1CE0
0000
0000
E01C
7038
7038
3870
3870
1CE0
1CE0
0FC0
0780
0780
0300
0300
0300
0300
0300
0300
0300
ENDCHAR
STARTCHAR Zacute
ENCODING 377
SWIDTH 600 0
DWIDTH 14 0
BBX 12 23 1 0
BITMAP
0100
0380
0700
0600
0600
0000
FFF0
FFF0
00E0
00E0
01C0
0380
0380
0700
0E00
0E00
1C00
3800
7800
7000
E000
FFF0
FFF0
ENDCHAR
STARTCHAR zacute
ENCODING 378
SWIDTH 600 0
DWIDTH 14 0
BBX 10 19 2 0
BITMAP
0200
0700
0600
0C00
0C00
0000
0000
FFC0
FFC0
01C0
0380
0700
0E00
1C00
3800
7000
E000
FFC0
FFC0
ENDCHAR
STARTCHAR Zdotaccent
ENCODING 379
SWIDTH 600 0
DWIDTH 14 0
BBX 12 22 1 0
BITMAP
0600
0F00
0600
0000
0000
FFF0
FFF0
00E0
00E0
01C0
0380
0380
0700
0E00
0E00
1C00
3800
7800
7000
E000
FFF0
FFF0
ENDCHAR
STARTCHAR zdotaccent
ENCODING 380
SWIDTH 600 0
DWIDTH 14 0
BBX 10 17 2 0
BITMAP
0C00
1E00
0C00
0000
0000
FFC0
FFC0
01C0
0380
0700
0E00
1C00
3800
7000
E000
FFC0
FFC0
ENDCHAR
STARTCHAR Zcaron
ENCODING 381
SWIDTH 600 0
DWIDTH 14 0
BBX 12 23 1 0
BITMAP
1080
39C0
1F80
0F00
0F00
0000
FFF0
FFF0
00E0
00E0
01C0
0380
0380
0700
0E00
0E00
1C00
3800
7800
7000
E000
FFF0
FFF0
ENDCHAR
STARTCHAR zcaron
ENCODING 382
SWIDTH 600 0
DWIDTH 14 0
BBX 10 19 2 0
BITMAP
2180
7380
3B00
1E00
1E00
0000
0000
FFC0
FFC0
01C0
0380
0700
0E00
1C00
3800
7000
E000
FFC0
FFC0
ENDCHAR
STARTCHAR uni018F
ENCODING 399
SWIDTH 600 0
DWIDTH 14 0
BBX 12 17 1 0
BITMAP
1F80
3FC0
70E0
E060
6070
0070
0070
0070
FFF0
FFF0
E070
E070
E070
6060
70E0
3FC0
1F80
ENDCHAR
STARTCHAR florin
ENCODING 402
SWIDTH 600 0
DWIDTH 14 0
BBX 16 22 -1 -5
BITMAP
007F
00FE
00C0
01C0
01C0
01C0
1FFC
1FFC
2180
0380
0380
0380
0380
0300
0300
0300
0700
0700
0700
0600
FE00
FC00
ENDCHAR
STARTCHAR Ohorn
ENCODING 416
SWIDTH 600 0
DWIDTH 14 0
BBX 12 19 1 0
BITMAP
0030
0030
1FF0
3FF0
70E0
6060
E070
E070
E070
E070
E070
E070
E070
E070
E070
6060
70E0
3FC0
1F80
ENDCHAR
STARTCHAR ohorn
ENCODING 417
SWIDTH 600 0
DWIDTH 14 0
BBX 12 14 1 0
BITMAP
0030
0030
1FF0
3FF0
70E0
6060
E070
E070
E070
E070
6070
70E0
3FC0
1F80
ENDCHAR
STARTCHAR Uhorn
ENCODING 431
SWIDTH 600 0
DWIDTH 14 0
BBX 13 20 1 0
BITMAP
0018
0018
0018
E078
E078
E070
E070
E070
E070
E070
E070
E070
E070
E070
6070
6060
6060
70E0
3FC0
1F80
ENDCHAR
STARTCHAR uhorn
ENCODING 432
SWIDTH 600 0
DWIDTH 14 0
BBX 12 15 2 0
BITMAP
0030
0030
0030
C0F0
C0F0
C0C0
C0C0
C0C0
C0C0
C0C0
C0C0
E1C0
E1C0
7EC0
3CC0
ENDCHAR
STARTCHAR Aringacute
ENCODING 506
SWIDTH 600 0
DWIDTH 14 0
BBX 14 29 0 0
BITMAP
0100
01C0
0380
0300
0000
0780
0FC0
0CC0
0CC0
0FC0
0780
0000
0780
0780
0FC0
0FC0
0CC0
0CC0
1CE0
1CE0
1860
3870
3FF0
3FF0
3030
7038
7038
6018
E01C
ENDCHAR
STARTCHAR aringacute
ENCODING 507
SWIDTH 600 0
DWIDTH 14 0
BBX 12 24 1 0
BITMAP
0200
0380
0700
0400
0000
0F00
1F00
1180
1180
1F00
0F00
0000
1F00
7FC0
61C0
40E0
00E0
3FE0
7FE0
E0E0
E0E0
E1E0
7FF0
3E70
ENDCHAR
STARTCHAR AEacute
ENCODING 508
SWIDTH 600 0
DWIDTH 14 0
BBX 13 23 0 0
BITMAP
0060
0070
00E0
00C0
00C0
0000
0FF8
0FF8
0D80
0D80
1D80
1980
1980
19F8
39F8
3180
3F80
7F80
7180
6180
6180
E1F8
E1F8
ENDCHAR
STARTCHAR aeacute
ENCODING 509
SWIDTH 600 0
DWIDTH 14 0
BBX 14 19 0 0
BITMAP
0080
01C0
0180
0300
0300
0000
0000
3CF0
7FF8
E718
430C
030C
3FFC
7FFC
E300
C300
C79C
FDF8
78F0
ENDCHAR
STARTCHAR Oslashacute
ENCODING 510
SWIDTH 600 0
DWIDTH 14 0
BBX 12 24 1 -1
BITMAP
0100
0380
0700
0600
0600
0020
1FB0
3FE0
70E0
60E0
E1F0
E1F0
E370
E370
E670
EC70
EC70
F870
F870
7060
70E0
7FC0
DF80
4000
ENDCHAR
STARTCHAR oslashacute
ENCODING 511
SWIDTH 600 0
DWIDTH 14 0
BBX 12 20 1 -1
BITMAP
0100
0380
0300
0600
0600
0000
0020
1FB0
3FE0
70E0
61E0
E370
E770
EE70
EC70
7860
70E0
7FC0
DF80
4000
ENDCHAR
STARTCHAR Scommaaccent
ENCODING 536
SWIDTH 600 0
DWIDTH 14 0
BBX 12 23 1 -6
BITMAP
1F80
3FE0
70F0
E040
E000
E000
7000
7F00
3FC0
03E0
0070
0070
0070
4070
F0E0
7FE0
1F80
0000
0F00
0E00
0E00
0C00
0C00
ENDCHAR
STARTCHAR scommaaccent
ENCODING 537
SWIDTH 600 0
DWIDTH 14 0
BBX 11 18 1 -6
BITMAP
1F80
3FE0
7060
6000
7800
3FC0
1FE0
00E0
4060
60E0
FFE0
1F80
0000
0700
0E00
0E00
0C00
0C00
ENDCHAR
STARTCHAR uni021A
ENCODING 538
SWIDTH 600 0
DWIDTH 14 0
BBX 14 23 0 -6
BITMAP
FFFC
FFFC
0300
0300
0300
0300
0300
0300
0300
0300
0300
0300
0300
0300
0300
0300
0300
0000
0380
0700
0700
0600
0600
ENDCHAR
STARTCHAR uni021B
ENCODING 539
SWIDTH 600 0
DWIDTH 14 0
BBX 11 23 1 -6
BITMAP
0C00
0C00
0C00
0C00
0C00
FFE0
FFE0
0C00
0C00
0C00
0C00
0C00
0C00
0C00
0C00
0FE0
07E0
0000
0380
0380
0300
0300
0300
ENDCHAR
STARTCHAR uni0237
ENCODING 567
SWIDTH 600 0
DWIDTH 14 0
BBX 8 17 2 -5
BITMAP
FF
FF
03
03
03
03
03
03
03
03
03
03
03
03
03
FF
FE
ENDCHAR
STARTCHAR uni0259
ENCODING 601
SWIDTH 600 0
DWIDTH 14 0
BBX 12 12 1 0
BITMAP
1F00
7FC0
70E0
4060
0070
FFF0
FFF0
E070
6060
70E0
3FC0
1F80
ENDCHAR
STARTCHAR uni02BB
ENCODING 699
SWIDTH 600 0
DWIDTH 14 0
BBX 4 5 5 14
BITMAP
30
30
70
70
F0
ENDCHAR
STARTCHAR uni02BC
ENCODING 700
SWIDTH 600 0
DWIDTH 14 0
BBX 3 5 4 13
BITMAP
E0
E0
C0
C0
C0
ENDCHAR
STARTCHAR circumflex
ENCODING 710
SWIDTH 600 0
DWIDTH 14 0
BBX 8 5 3 14
BITMAP
3C
3C
7E
E7
42
ENDCHAR
STARTCHAR caron
ENCODING 711
SWIDTH 600 0
DWIDTH 14 0
BBX 8 5 3 14
BITMAP
43
E7
76
3C
3C
ENDCHAR
STARTCHAR breve
ENCODING 728
SWIDTH 600 0
DWIDTH 14 0
BBX 8 5 3 14
BITMAP
82
C3
E7
7E
3C
ENDCHAR
STARTCHAR dotaccent
ENCODING 729
SWIDTH 600 0
DWIDTH 14 0
BBX 4 3 5 14
BITMAP
60
F0
60
ENDCHAR
STARTCHAR ring
ENCODING 730
SWIDTH 600 0
DWIDTH 14 0
BBX 6 7 4 14
BITMAP
78
FC
CC
CC
CC
FC
78
ENDCHAR
STARTCHAR ogonek
ENCODING 731
SWIDTH 600 0
DWIDTH 14 0
BBX 6 6 2 -5
BITMAP
18
30
40
C8
FC
78
ENDCHAR
STARTCHAR tilde
ENCODING 732
SWIDTH 600 0
DWIDTH 14 0
BBX 8 3 3 14
BITMAP
71
FF
8E
ENDCHAR
STARTCHAR hungarumlaut
ENCODING 733
SWIDTH 600 0
DWIDTH 14 0
BBX 8 5 4 14
BITMAP
62
77
E6
CC
8C
ENDCHAR
STARTCHAR uni0300
ENCODING 768
SWIDTH 0 0
DWIDTH 0 0
BBX 4 5 -3 14
BITMAP
40
E0
60
30
30
ENDCHAR
STARTCHAR uni0301
ENCODING 769
SWIDTH 0 0
DWIDTH 0 0
BBX 5 5 -2 14
BITMAP
30
38
70
60
C0
ENDCHAR
STARTCHAR uni0302
ENCODING 770
SWIDTH 0 0
DWIDTH 0 0
BBX 8 5 -4 14
BITMAP
3C
7C
6E
C7
82
ENDCHAR
STARTCHAR uni0303
ENCODING 771
SWIDTH 0 0
DWIDTH 0 0
BBX 8 3 -4 14
BITMAP
F2
FF
8E
ENDCHAR
STARTCHAR uni0304
ENCODING 772
SWIDTH 0 0
DWIDTH 0 0
BBX 7 2 -4 15
BITMAP
FE
FE
ENDCHAR
STARTCHAR uni0306
ENCODING 774
SWIDTH 0 0
DWIDTH 0 0
BBX 8 5 -4 14
BITMAP
82
C3
E6
7E
3C
ENDCHAR
STARTCHAR uni0307
ENCODING 775
SWIDTH 0 0
DWIDTH 0 0
BBX 4 3 -2 14
BITMAP
E0
F0
E0
ENDCHAR
STARTCHAR uni0308
ENCODING 776
SWIDTH 0 0
DWIDTH 0 0
BBX 8 3 -4 15
BITMAP
E7
E7
E7
ENDCHAR
STARTCHAR uni0309
ENCODING 777
SWIDTH 0 0
DWIDTH 0 0
BBX 5 5 -2 14
BITMAP
F0
F8
30
30
60
ENDCHAR
STARTCHAR uni030A
ENCODING 778
SWIDTH 0 0
DWIDTH 0 0
BBX 6 7 -3 14
BITMAP
70
F8
CC
CC
CC
F8
70
ENDCHAR
STARTCHAR uni030B
ENCODING 779
SWIDTH 0 0
DWIDTH 0 0
BBX 9 5 -4 14
BITMAP
3100
3B80
7300
6600
C600
ENDCHAR
STARTCHAR uni030C
ENCODING 780
SWIDTH 0 0
DWIDTH 0 0
BBX 8 5 -4 14
BITMAP
82
C7
6E
7C
3C
ENDCHAR
STARTCHAR uni0312
ENCODING 786
SWIDTH 0 0
DWIDTH 0 0
BBX 4 5 -2 14
BITMAP
30
30
70
70
E0
ENDCHAR
STARTCHAR uni0315
ENCODING 789
SWIDTH 0 0
DWIDTH 0 0
BBX 3 5 0 13
BITMAP
E0
E0
C0
C0
C0
ENDCHAR
STARTCHAR uni031B
ENCODING 795
SWIDTH 0 0
DWIDTH 0 0
BBX 4 5 -2 10
BITMAP
30
30
30
F0
F0
ENDCHAR
STARTCHAR uni0323
ENCODING 803
SWIDTH 0 0
DWIDTH 0 0
BBX 4 3 -2 -4
BITMAP
60
F0
60
ENDCHAR
STARTCHAR uni0326
ENCODING 806
SWIDTH 0 0
DWIDTH 0 0
BBX 4 5 -2 -6
BITMAP
F0
E0
E0
C0
C0
ENDCHAR
STARTCHAR uni0327
ENCODING 807
SWIDTH 0 0
DWIDTH 0 0
BBX 6 6 -3 -5
BITMAP
30
20
3C
0C
7C
90
ENDCHAR
STARTCHAR uni0328
ENCODING 808
SWIDTH 0 0
DWIDTH 0 0
BBX 5 6 -5 -5
BITMAP
18
60
C0
D0
F8
78
ENDCHAR
STARTCHAR pi
ENCODING 960
SWIDTH 600 0
DWIDTH 14 0
BBX 13 12 0 0
BITMAP
FFF8
FFF8
3870
3870
3870
3870
3870
3870
3870
3870
3878
3838
ENDCHAR
STARTCHAR uni0400
ENCODING 1024
SWIDTH 600 0
DWIDTH 14 0
BBX 10 23 2 0
BITMAP
1800
3800
1C00
0C00
0C00
0000
FFC0
FFC0
E000
E000
E000
E000
E000
FFC0
FFC0
E000
E000
E000
E000
E000
E000
FFC0
FFC0
ENDCHAR
STARTCHAR uni0401
ENCODING 1025
SWIDTH 600 0
DWIDTH 14 0
BBX 10 22 2 0
BITMAP
7380
7380
7380
0000
0000
FFC0
FFC0
E000
E000
E000
E000
E000
FFC0
FFC0
E000
E000
E000
E000
E000
E000
FFC0
FFC0
ENDCHAR
STARTCHAR uni0402
ENCODING 1026
SWIDTH 600 0
DWIDTH 14 0
BBX 13 21 0 -4
BITMAP
FFC0
FFC0
0C00
0C00
0C00
0C00
0FE0
0FF0
0C38
0C38
0C18
0C18
0C18
0C18
0C18
0C18
0C18
0018
0018
03F8
03F0
ENDCHAR
STARTCHAR uni0403
ENCODING 1027
SWIDTH 600 0
DWIDTH 14 0
BBX 9 23 3 0
BITMAP
0600
0700
0E00
0C00
1800
0000
FF80
FF80
C000
C000
C000
C000
C000
C000
C000
C000
C000
C000
C000
C000
C000
C000
C000
ENDCHAR
STARTCHAR uni0404
ENCODING 1028
SWIDTH 600 0
DWIDTH 14 0
BBX 12 17 1 0
BITMAP
0F80
3FE0
38E0
7070
6040
E000
E000
FF00
FF00
E000
E000
E000
6040
7070
78E0
3FE0
0F80
ENDCHAR
STARTCHAR uni0405
ENCODING 1029
SWIDTH 600 0
DWIDTH 14 0
BBX 12 17 1 0
BITMAP
1F80
3FE0
70F0
E040
E000
E000
7000
7F00
3FC0
03E0
0070
0070
0070
4070
F0E0
7FE0
1F80
ENDCHAR
STARTCHAR uni0406
ENCODING 1030
SWIDTH 600 0
DWIDTH 14 0
BBX 10 17 2 0
BITMAP
FFC0
FFC0
0C00
0C00
0C00
0C00
0C00
0C00
0C00
0C00
0C00
0C00
0C00
0C00
0C00
FFC0
FFC0
ENDCHAR
STARTCHAR uni0407
ENCODING 1031
SWIDTH 600 0
DWIDTH 14 0
BBX 10 22 2 0
BITMAP
7380
7380
7380
0000
0000
FFC0
FFC0
0C00
0C00
0C00
0C00
0C00
0C00
0C00
0C00
0C00
0C00
0C00
0C00
0C00
FFC0
FFC0
ENDCHAR
STARTCHAR uni0408
ENCODING 1032
SWIDTH 600 0
DWIDTH 14 0
BBX 11 17 1 0
BITMAP
3FE0
3FE0
00E0
00E0
00E0
00E0
00E0
00E0
00E0
00E0
00E0
00E0
00E0
E0E0
71C0
7F80
1F00
ENDCHAR
STARTCHAR uni0409
ENCODING 1033
SWIDTH 600 0
DWIDTH 14 0
BBX 14 17 0 0
BITMAP
3F80
3F80
3980
3980
3980
3980
3980
39F0
31F8
319C
318C
318C
318C
319C
719C
E1F8
C1F0
ENDCHAR
STARTCHAR uni040A
ENCODING 1034
SWIDTH 600 0
DWIDTH 14 0
BBX 13 17 1 0
BITMAP
C700
C700
C700
C700
C700
C700
C700
FFE0
FFF0
C738
C718
C718
C718
C738
C738
C7F0
C7E0
ENDCHAR
STARTCHAR uni040B
ENCODING 1035
SWIDTH 600 0
DWIDTH 14 0
BBX 13 17 0 0
BITMAP
FFC0
FFC0
0C00
0C00
0C00
0C00
0FE0
0FF0
0C38
0C38
0C18
0C18
0C18
0C18
0C18
0C18
0C18
ENDCHAR
STARTCHAR uni040C
ENCODING 1036
SWIDTH 600 0
DWIDTH 14 0
BBX 11 23 2 0
BITMAP
0600
0700
0E00
0C00
1800
0000
C0E0
C1C0
C1C0
C180
C380
C380
C700
C700
FE00
FE00
C700
C700
C380
C380
C1C0
C1E0
C0E0
ENDCHAR
STARTCHAR uni040D
ENCODING 1037
SWIDTH 600 0
DWIDTH 14 0
BBX 11 23 1 0
BITMAP
0800
1C00
0C00
0600
0600
0000
E060
E0E0
E0E0
E1E0
E1E0
E3E0
E360
E760
E660
EE60
EC60
FC60
F860
F860
F060
F060
E060
ENDCHAR
STARTCHAR uni040E
ENCODING 1038
SWIDTH 600 0
DWIDTH 14 0
BBX 13 23 1 0
BITMAP
1080
30C0
39C0
1F80
0F00
0000
E038
E070
6070
7060
70E0
38E0
38C0
19C0
1D80
0D80
0F80
0700
0700
0700
0600
3E00
3C00
ENDCHAR
STARTCHAR uni040F
ENCODING 1039
SWIDTH 600 0
DWIDTH 14 0
BBX 10 20 2 -3
BITMAP
C0C0
C0C0
C0C0
C0C0
C0C0
C0C0
C0C0
C0C0
C0C0
C0C0
C0C0
C0C0
C0C0
C0C0
C0C0
FFC0
FFC0
0C00
0C00
0C00
ENDCHAR
STARTCHAR uni0410
ENCODING 1040
SWIDTH 600 0
DWIDTH 14 0
BBX 14 17 0 0
BITMAP
0780
0780
0FC0
0FC0
0CC0
0CC0
1CE0
1CE0
1860
3870
3FF0
3FF0
3030
7038
7038
6018
E01C
ENDCHAR
STARTCHAR uni0411
ENCODING 1041
SWIDTH 600 0
DWIDTH 14 0
BBX 11 17 2 0
BITMAP
FF80
FF80
C000
C000
C000
C000
C000
FF00
FFC0
C1C0
C0E0
C0E0
C0E0
C0E0
C1C0
FFC0
FF00
ENDCHAR
STARTCHAR uni0412
ENCODING 1042
SWIDTH 600 0
DWIDTH 14 0
BBX 11 17 2 0
BITMAP
FF00
FF80
C1C0
C0C0
C0C0
C0C0
C1C0
FF00
FF80
C1C0
C0E0
C0E0
C0E0
C0E0
C1C0
FFC0
FF00
ENDCHAR
STARTCHAR uni0413
ENCODING 1043
SWIDTH 600 0
DWIDTH 14 0
BBX 9 17 3 0
BITMAP
FF80
FF80
C000
C000
C000
C000
C000
C000
C000
C000
C000
C000
C000
C000
C000
C000
C000
ENDCHAR
STARTCHAR uni0414
ENCODING 1044
SWIDTH 600 0
DWIDTH 14 0
BBX 14 20 0 -3
BITMAP
0FF0
0FF0
0C70
0C70
0C70
0C70
1C70
1C70
1C70
1C70
1C70
1C70
1870
3870
3870
FFFC
FFFC
E01C
E01C
E01C
ENDCHAR
STARTCHAR uni0415
ENCODING 1045
SWIDTH 600 0
DWIDTH 14 0
BBX 10 17 2 0
BITMAP
FFC0
FFC0
E000
E000
E000
E000
E000
FFC0
FFC0
E000
E000
E000
E000
E000
E000
FFC0
FFC0
ENDCHAR
STARTCHAR uni0416
ENCODING 1046
SWIDTH 600 0
DWIDTH 14 0
BBX 14 17 0 0
BITMAP
E31C
631C
6318
7318
7338
3330
3330
1FE0
3FF0
3330
3338
7338
7318
6318
631C
E31C
E31C
ENDCHAR
STARTCHAR uni0417
ENCODING 1047
SWIDTH 600 0
DWIDTH 14 0
BBX 12 17 1 0
BITMAP
1F80
7FC0
E1E0
40E0
00E0
00E0
00C0
1F80
1FC0
00E0
00E0
0070
0070
40E0
E1E0
7FC0
3F00
ENDCHAR
STARTCHAR uni0418
ENCODING 1048
SWIDTH 600 0
DWIDTH 14 0
BBX 11 17 1 0
BITMAP
E060
E0E0
E0E0
E1E0
E1E0
E3E0
E360
E760
E660
EE60
EC60
FC60
F860
F860
F060
F060
E060
ENDCHAR
STARTCHAR uni0419
ENCODING 1049
SWIDTH 600 0
DWIDTH 14 0
BBX 11 23 1 0
BITMAP
1080
30C0
39C0
1F80
0F00
0000
E060
E0E0
E0E0
E1E0
E1E0
E3E0
E360
E760
E660
EE60
EC60
FC60
F860
F860
F060
F060
E060
ENDCHAR
STARTCHAR uni041A
ENCODING 1050
SWIDTH 600 0
DWIDTH 14 0
BBX 11 17 2 0
BITMAP
C0E0
C1C0
C1C0
C180
C380
C380
C700
C700
FE00
FE00
C700
C700
C380
C380
C1C0
C1E0
C0E0
ENDCHAR
STARTCHAR uni041B
ENCODING 1051
SWIDTH 600 0
DWIDTH 14 0
BBX 13 17 0 0
BITMAP
0FF8
0FF8
0C38
0C38
0C38
0C38
0C38
1C38
1C38
1C38
1C38
1C38
1838
1838
3838
F038
E038
ENDCHAR
STARTCHAR uni041C
ENCODING 1052
SWIDTH 600 0
DWIDTH 14 0
BBX 12 17 1 0
BITMAP
F070
F0F0
F0F0
F8F0
D9B0
D9B0
CF70
CF70
EF70
E670
E670
E670
E470
E070
E070
E070
E070
ENDCHAR
STARTCHAR uni041D
ENCODING 1053
SWIDTH 600 0
DWIDTH 14 0
BBX 11 17 2 0
BITMAP
C0E0
C0E0
C0E0
C0E0
C0E0
C0E0
C0E0
FFE0
FFE0
C0E0
C0E0
C0E0
C0E0
C0E0
C0E0
C0E0
C0E0
ENDCHAR
STARTCHAR uni041E
ENCODING 1054
SWIDTH 600 0
DWIDTH 14 0
BBX 12 17 1 0
BITMAP
1F80
3FC0
70E0
6060
E070
E070
E070
E070
E070
E070
E070
E070
E070
6060
70E0
3FC0
1F80
ENDCHAR
STARTCHAR uni041F
ENCODING 1055
SWIDTH 600 0
DWIDTH 14 0
BBX 11 17 2 0
BITMAP
FFE0
FFE0
C0E0
C0E0
C0E0
C0E0
C0E0
C0E0
C0E0
C0E0
C0E0
C0E0
C0E0
C0E0
C0E0
C0E0
C0E0
ENDCHAR
STARTCHAR uni0420
ENCODING 1056
SWIDTH 600 0
DWIDTH 14 0
BBX 11 17 2 0
BITMAP
FF80
FFC0
C1C0
C0E0
C0E0
C0E0
C0E0
C1C0
FFC0
FF00
C000
C000
C000
C000
C000
C000
C000
ENDCHAR
STARTCHAR uni0421
ENCODING 1057
SWIDTH 600 0
DWIDTH 14 0
BBX 12 17 1 0
BITMAP
0F80
3FE0
38E0
7070
6040
E000
E000
E000
E000
E000
E000
E000
6040
7070
78E0
3FE0
0F80
ENDCHAR
STARTCHAR uni0422
ENCODING 1058
SWIDTH 600 0
DWIDTH 14 0
BBX 14 17 0 0
BITMAP
FFFC
FFFC
0300
0300
0300
0300
0300
0300
0300
0300
0300
0300
0300
0300
0300
0300
0300
ENDCHAR
STARTCHAR uni0423
ENCODING 1059
SWIDTH 600 0
DWIDTH 14 0
BBX 13 17 1 0
BITMAP
E038
E070
6070
7060
70E0
38E0
38C0
19C0
1D80
0D80
0F80
0700
0700
0700
0600
3E00
3C00
ENDCHAR
STARTCHAR uni0424
ENCODING 1060
SWIDTH 600 0
DWIDTH 14 0
BBX 14 18 0 -1
BITMAP
0300
0300
0FC0
3FF0
7338
6318
6318
E31C
E31C
E31C
631C
6318
6318
7338
3FF0
0FC0
0300
0300
ENDCHAR
STARTCHAR uni0425
ENCODING 1061
SWIDTH 600 0
DWIDTH 14 0
BBX 14 17 0 0
BITMAP
703C
7038
3870
1C60
1CE0
0EC0
0FC0
0780
0780
0780
0FC0
1CE0
1CE0
3870
3870
7038
E03C
ENDCHAR
STARTCHAR uni0426
ENCODING 1062
SWIDTH 600 0
DWIDTH 14 0
BBX 13 20 1 -3
BITMAP
E0E0
E0E0
E0E0
E0E0
E0E0
E0E0
E0E0
E0E0
E0E0
E0E0
E0E0
E0E0
E0E0
E0E0
E0E0
FFF8
FFF8
0038
0038
0038
ENDCHAR
STARTCHAR uni0427
ENCODING 1063
SWIDTH 600 0
DWIDTH 14 0
BBX 11 17 1 0
BITMAP
E060
E060
E060
E060
E060
E060
E060
E060
7060
7FE0
1F60
0060
0060
0060
0060
0060
0060
ENDCHAR
STARTCHAR uni0428
ENCODING 1064
SWIDTH 600 0
DWIDTH 14 0
BBX 12 17 1 0
BITMAP
C630
C630
C630
C630
C630
C630
C630
C630
C630
C630
C630
C630
C630
C630
C630
FFF0
FFF0
ENDCHAR
STARTCHAR uni0429
ENCODING 1065
SWIDTH 600 0
DWIDTH 14 0
BBX 13 20 1 -3
BITMAP
CE60
CE60
CE60
CE60
CE60
CE60
CE60
CE60
CE60
CE60
CE60
CE60
CE60
CE60
CE60
FFF8
FFF8
0018
0018
0018
ENDCHAR
STARTCHAR uni042A
ENCODING 1066
SWIDTH 600 0
DWIDTH 14 0
BBX 14 17 0 0
BITMAP
FC00
FC00
1C00
1C00
1C00
1C00
1C00
1FE0
1FF8
1C38
1C1C
1C1C
1C1C
1C1C
1C38
1FF8
1FE0
ENDCHAR
STARTCHAR uni042B
ENCODING 1067
SWIDTH 600 0
DWIDTH 14 0
BBX 12 17 1 0
BITMAP
C030
C030
C030
C030
C030
C030
C030
FC30
FE30
C730
C330
C330
C330
C330
C730
FE30
FC30
ENDCHAR
STARTCHAR uni042C
ENCODING 1068
SWIDTH 600 0
DWIDTH 14 0
BBX 11 17 2 0
BITMAP
C000
C000
C000
C000
C000
C000
C000
FF80
FFC0
C1E0
C0E0
C0E0
C0E0
C0E0
C1E0
FFC0
FF80
ENDCHAR
STARTCHAR uni042D
ENCODING 1069
SWIDTH 600 0
DWIDTH 14 0
BBX 12 17 1 0
BITMAP
1F00
7FC0
71C0
E0E0
2060
0070
0070
0FF0
0FF0
0070
0070
0070
2060
E0E0
71C0
7FC0
1F00
ENDCHAR
STARTCHAR uni042E
ENCODING 1070
SWIDTH 600 0
DWIDTH 14 0
BBX 12 17 1 0
BITMAP
C3C0
C7E0
CE70
CE30
CC30
CC30
CC30
FC30
FC30
CC30
CC30
CC30
CC30
CE30
C670
C7E0
C3C0
ENDCHAR
STARTCHAR uni042F
ENCODING 1071
SWIDTH 600 0
DWIDTH 14 0
BBX 11 17 1 0
BITMAP
1FE0
7FE0
7060
E060
E060
E060
E060
7060
3FE0
0FE0
1C60
1C60
3860
3860
7060
F060
E060
ENDCHAR
STARTCHAR uni0430
ENCODING 1072
SWIDTH 600 0
DWIDTH 14 0
BBX 12 12 1 0
BITMAP
1F00
7FC0
61C0
40E0
00E0
3FE0
7FE0
E0E0
E0E0
E1E0
7FF0
3E70
ENDCHAR
STARTCHAR uni0431
ENCODING 1073
SWIDTH 600 0
DWIDTH 14 0
BBX 12 18 1 0
BITMAP
07E0
1FE0
3C00
7000
7000
6000
6780
EFC0
F0E0
E060
E070
E070
E070
6070
6060
70E0
3FC0
0F80
ENDCHAR
STARTCHAR uni0432
ENCODING 1074
SWIDTH 600 0
DWIDTH 14 0
BBX 11 12 2 0
BITMAP
FF80
FFC0
E1C0
E1C0
E1C0
FF00
FFC0
E0C0
E0E0
E0C0
FFC0
FF80
ENDCHAR
STARTCHAR uni0433
ENCODING 1075
SWIDTH 600 0
DWIDTH 14 0
BBX 9 12 3 0
BITMAP
FF80
FF80
E000
E000
E000
E000
E000
E000
E000
E000
E000
E000
ENDCHAR
STARTCHAR uni0434
ENCODING 1076
SWIDTH 600 0
DWIDTH 14 0
BBX 14 15 0 -3
BITMAP
1FF0
1FF0
1C70
1C70
1C70
1C70
1870
1870
3870
3870
FFFC
FFFC
E01C
E01C
E01C
ENDCHAR
STARTCHAR uni0435
ENCODING 1077
SWIDTH 600 0
DWIDTH 14 0
BBX 12 12 1 0
BITMAP
1F80
3FC0
70E0
6060
E070
FFF0
FFF0
E000
6040
70E0
3FE0
0F80
ENDCHAR
STARTCHAR uni0436
ENCODING 1078
SWIDTH 600 0
DWIDTH 14 0
BBX 14 12 0 0
BITMAP
631C
6318
7318
3330
3330
3FE0
3FF0
3330
7338
6318
6318
E31C
ENDCHAR
STARTCHAR uni0437
ENCODING 1079
SWIDTH 600 0
DWIDTH 14 0
BBX 11 12 1 0
BITMAP
1F80
7FC0
E0E0
40E0
00E0
1F80
1FC0
00E0
40E0
E0E0
7FC0
1F80
ENDCHAR
STARTCHAR uni0438
ENCODING 1080
SWIDTH 600 0
DWIDTH 14 0
BBX 10 12 2 0
BITMAP
C1C0
C1C0
C3C0
C7C0
C6C0
CCC0
DCC0
D8C0
F8C0
F0C0
E0C0
E0C0
ENDCHAR
STARTCHAR uni0439
ENCODING 1081
SWIDTH 600 0
DWIDTH 14 0
BBX 10 19 2 0
BITMAP
2100
6180
7380
3F00
1E00
0000
0000
C1C0
C1C0
C3C0
C7C0
C6C0
CCC0
DCC0
D8C0
F8C0
F0C0
E0C0
E0C0
ENDCHAR
STARTCHAR uni043A
ENCODING 1082
SWIDTH 600 0
DWIDTH 14 0
BBX 11 12 2 0
BITMAP
E0E0
E1C0
E380
E300
E700
FE00
FE00
E700
E380
E380
E1E0
E0E0
ENDCHAR
STARTCHAR uni043B
ENCODING 1083
SWIDTH 600 0
DWIDTH 14 0
BBX 12 12 0 0
BITMAP
1FF0
1FF0
1C70
1C70
1C70
1C70
1C70
1C70
1870
3870
F870
F070
ENDCHAR
STARTCHAR uni043C
ENCODING 1084
SWIDTH 600 0
DWIDTH 14 0
BBX 12 12 1 0
BITMAP
F070
F0F0
F8F0
F9F0
FDF0
EF70
EF70
E670
E670
E470
E070
E070
ENDCHAR
STARTCHAR uni043D
ENCODING 1085
SWIDTH 600 0
DWIDTH 14 0
BBX 10 12 2 0
BITMAP
E0C0
E0C0
E0C0
E0C0
E0C0
FFC0
FFC0
E0C0
E0C0
E0C0
E0C0
E0C0
ENDCHAR
STARTCHAR uni043E
ENCODING 1086
SWIDTH 600 0
DWIDTH 14 0
BBX 12 12 1 0
BITMAP
1F80
3FC0
70E0
6060
E070
E070
E070
E070
6060
70E0
3FC0
1F80
ENDCHAR
STARTCHAR uni043F
ENCODING 1087
SWIDTH 600 0
DWIDTH 14 0
BBX 10 12 2 0
BITMAP
FFC0
FFC0
E0C0
E0C0
E0C0
E0C0
E0C0
E0C0
E0C0
E0C0
E0C0
E0C0
ENDCHAR
STARTCHAR uni0440
ENCODING 1088
SWIDTH 600 0
DWIDTH 14 0
BBX 11 17 2 -5
BITMAP
CF00
DFC0
E1C0
C0E0
C0E0
C0E0
C0E0
C0E0
C0E0
E1C0
DFC0
CF00
C000
C000
C000
C000
C000
ENDCHAR
STARTCHAR uni0441
ENCODING 1089
SWIDTH 600 0
DWIDTH 14 0
BBX 10 12 2 0
BITMAP
1F00
7F80
F1C0
E080
C000
C000
C000
C000
E080
F1C0
7FC0
1F00
ENDCHAR
STARTCHAR uni0442
ENCODING 1090
SWIDTH 600 0
DWIDTH 14 0
BBX 12 12 1 0
BITMAP
FFF0
FFF0
0600
0600
0600
0600
0600
0600
0600
0600
0600
0600
ENDCHAR
STARTCHAR uni0443
ENCODING 1091
SWIDTH 600 0
DWIDTH 14 0
BBX 12 17 1 -5
BITMAP
E070
E070
6060
70E0
30C0
38C0
39C0
1980
1F80
0F00
0F00
0F00
0600
0E00
0C00
7C00
7800
ENDCHAR
STARTCHAR uni0444
ENCODING 1092
SWIDTH 600 0
DWIDTH 14 0
BBX 12 22 1 -5
BITMAP
0600
0600
0600
0600
0600
76E0
FFF0
E630
C630
C630
C630
C630
C630
C630
C630
FFF0
76E0
0600
0600
0600
0600
0600
ENDCHAR
STARTCHAR uni0445
ENCODING 1093
SWIDTH 600 0
DWIDTH 14 0
BBX 12 12 1 0
BITMAP
E070
70E0
39C0
1D80
1F80
0F00
0F00
1F80
19C0
39C0
70E0
E070
ENDCHAR
STARTCHAR uni0446
ENCODING 1094
SWIDTH 600 0
DWIDTH 14 0
BBX 13 15 1 -3
BITMAP
E0E0
E0E0
E0E0
E0E0
E0E0
E0E0
E0E0
E0E0
E0E0
E0E0
FFF8
FFF8
0038
0038
0038
ENDCHAR
STARTCHAR uni0447
ENCODING 1095
SWIDTH 600 0
DWIDTH 14 0
BBX 11 12 1 0
BITMAP
E0E0
E0E0
E0E0
E0E0
60E0
70E0
7FE0
3EE0
00E0
00E0
00E0
00E0
ENDCHAR
STARTCHAR uni0448
ENCODING 1096
SWIDTH 600 0
DWIDTH 14 0
BBX 12 12 1 0
BITMAP
C630
C630
C630
C630
C630
C630
C630
C630
C630
C630
FFF0
FFF0
ENDCHAR
STARTCHAR uni0449
ENCODING 1097
SWIDTH 600 0
DWIDTH 14 0
BBX 13 15 1 -3
BITMAP
C630
C630
C630
C630
C630
C630
C630
C630
C630
C630
FFF8
FFF8
0018
0018
0018
ENDCHAR
STARTCHAR uni044A
ENCODING 1098
SWIDTH 600 0
DWIDTH 14 0
BBX 13 12 0 0
BITMAP
FC00
FC00
1C00
1C00
1FE0
1FF8
1C38
1C18
1C18
1C38
1FF8
1FE0
ENDCHAR
STARTCHAR uni044B
ENCODING 1099
SWIDTH 600 0
DWIDTH 14 0
BBX 12 12 1 0
BITMAP
C030
C030
C030
C030
FC30
FE30
C730
C330
C330
C730
FE30
FC30
ENDCHAR
STARTCHAR uni044C
ENCODING 1100
SWIDTH 600 0
DWIDTH 14 0
BBX 11 12 2 0
BITMAP
E000
E000
E000
E000
FF80
FFC0
E1C0
E0C0
E0E0
E1C0
FFC0
FF80
ENDCHAR
STARTCHAR uni044D
ENCODING 1101
SWIDTH 600 0
DWIDTH 14 0
BBX 10 12 2 0
BITMAP
3E00
7F80
E3C0
41C0
00C0
1FC0
1FC0
00C0
41C0
E1C0
7F80
3E00
ENDCHAR
STARTCHAR uni044E
ENCODING 1102
SWIDTH 600 0
DWIDTH 14 0
BBX 12 12 1 0
BITMAP
C3C0
C7E0
C670
CE30
CC30
FC30
FC30
CC30
CE30
CE70
C7E0
C3C0
ENDCHAR
STARTCHAR uni044F
ENCODING 1103
SWIDTH 600 0
DWIDTH 14 0
BBX 11 12 1 0
BITMAP
1FE0
7FE0
70E0
60E0
60E0
70E0
7FE0
1FE0
1CE0
38E0
F0E0
E0E0
ENDCHAR
STARTCHAR uni0450
ENCODING 1104
SWIDTH 600 0
DWIDTH 14 0
BBX 12 19 1 0
BITMAP
0C00
1C00
0E00
0600
0600
0000
0000
1F80
3FC0
70E0
6060
E070
FFF0
FFF0
E000
6040
70E0
3FE0
0F80
ENDCHAR
STARTCHAR uni0451
ENCODING 1105
SWIDTH 600 0
DWIDTH 14 0
BBX 12 18 1 0
BITMAP
39C0
39C0
39C0
0000
0000
0000
1F80
3FC0
70E0
6060
E070
FFF0
FFF0
E000
6040
70E0
3FE0
0F80
ENDCHAR
STARTCHAR uni0452
ENCODING 1106
SWIDTH 600 0
DWIDTH 14 0
BBX 12 23 0 -5
BITMAP
3000
3000
FF00
FF00
3000
3000
33C0
37E0
3870
3870
3030
3030
3030
3030
3030
3030
3030
3030
0030
0030
0030
0FF0
0FE0
ENDCHAR
STARTCHAR uni0453
ENCODING 1107
SWIDTH 600 0
DWIDTH 14 0
BBX 9 19 3 0
BITMAP
0400
0F00
0C00
1C00
0800
0000
0000
FF80
FF80
E000
E000
E000
E000
E000
E000
E000
E000
E000
E000
ENDCHAR
STARTCHAR uni0454
ENCODING 1108
SWIDTH 600 0
DWIDTH 14 0
BBX 10 12 2 0
BITMAP
1F00
7F80
E1C0
E080
C000
FE00
FE00
C000
E080
E1C0
7F80
1F00
ENDCHAR
STARTCHAR uni0455
ENCODING 1109
SWIDTH 600 0
DWIDTH 14 0
BBX 11 12 1 0
BITMAP
1F80
3FE0
7060
6000
7800
3FC0
1FE0
00E0
4060
60E0
FFE0
1F80
ENDCHAR
STARTCHAR uni0456
ENCODING 1110
SWIDTH 600 0
DWIDTH 14 0
BBX 11 18 2 0
BITMAP
0E00
0F00
0E00
0000
0000
0000
FE00
FE00
0E00
0E00
0E00
0E00
0E00
0E00
0E00
0E00
FFE0
FFE0
ENDCHAR
STARTCHAR uni0457
ENCODING 1111
SWIDTH 600 0
DWIDTH 14 0
BBX 11 18 2 0
BITMAP
39C0
39C0
39C0
0000
0000
0000
FE00
FE00
0E00
0E00
0E00
0E00
0E00
0E00
0E00
0E00
FFE0
FFE0
ENDCHAR
STARTCHAR uni0458
ENCODING 1112
SWIDTH 600 0
DWIDTH 14 0
BBX 9 23 2 -5
BITMAP
0700
0780
0700
0000
0000
0000
FF00
FF00
0300
0300
0300
0300
0300
0300
0300
0300
0300
0300
0300
0300
0300
FF00
FE00
ENDCHAR
STARTCHAR uni0459
ENCODING 1113
SWIDTH 600 0
DWIDTH 14 0
BBX 14 12 0 0
BITMAP
3F80
3F80
3180
3180
31F0
31F8
319C
318C
318C
719C
E1F8
C1F0
ENDCHAR
STARTCHAR uni045A
ENCODING 1114
SWIDTH 600 0
DWIDTH 14 0
BBX 13 12 1 0
BITMAP
C700
C700
C700
C700
C7E0
FFF0
FF38
C718
C718
C738
C7F0
C7E0
ENDCHAR
STARTCHAR uni045B
ENCODING 1115
SWIDTH 600 0
DWIDTH 14 0
BBX 12 18 0 0
BITMAP
3000
3000
FF00
FF00
3000
3000
33C0
37E0
3870
3870
3030
3030
3030
3030
3030
3030
3030
3030
ENDCHAR
STARTCHAR uni045C
ENCODING 1116
SWIDTH 600 0
DWIDTH 14 0
BBX 11 19 2 0
BITMAP
0600
0700
0E00
0C00
0C00
0000
0000
E0E0
E1C0
E380
E300
E700
FE00
FE00
E700
E380
E380
E1E0
E0E0
ENDCHAR
STARTCHAR uni045D
ENCODING 1117
SWIDTH 600 0
DWIDTH 14 0
BBX 10 19 2 0
BITMAP
1000
3800
1800
0C00
0C00
0000
0000
C1C0
C1C0
C3C0
C7C0
C6C0
CCC0
DCC0
D8C0
F8C0
F0C0
E0C0
E0C0
ENDCHAR
STARTCHAR uni045E
ENCODING 1118
SWIDTH 600 0
DWIDTH 14 0
BBX 12 24 1 -5
BITMAP
1080
30C0
39C0
1F80
0F00
0000
0000
E070
E070
6060
70E0
30C0
38C0
39C0
1980
1F80
0F00
0F00
0F00
0600
0E00
0C00
7C00
7800
ENDCHAR
STARTCHAR uni045F
ENCODING 1119
SWIDTH 600 0
DWIDTH 14 0
BBX 10 15 2 -3
BITMAP
C0C0
C0C0
C0C0
C0C0
C0C0
C0C0
C0C0
C0C0
C0C0
C0C0
FFC0
FFC0
0C00
0C00
0C00
ENDCHAR
STARTCHAR uni0472
ENCODING 1138
SWIDTH 600 0
DWIDTH 14 0
BBX 12 17 1 0
BITMAP
1F80
3FC0
70E0
6060
E070
E070
E070
FFF0
FFF0
E070
E070
E070
E070
6060
70E0
3FC0
1F80
ENDCHAR
STARTCHAR uni0473
ENCODING 1139
SWIDTH 600 0
DWIDTH 14 0
BBX 12 12 1 0
BITMAP
1F80
3FC0
70E0
6060
E070
FFF0
FFF0
E070
6060
70E0
3FC0
1F80
ENDCHAR
STARTCHAR uni0490
ENCODING 1168
SWIDTH 600 0
DWIDTH 14 0
BBX 9 21 3 0
BITMAP
0180
0180
0180
0180
FF80
FF80
C000
C000
C000
C000
C000
C000
C000
C000
C000
C000
C000
C000
C000
C000
C000
ENDCHAR
STARTCHAR uni0491
ENCODING 1169
SWIDTH 600 0
DWIDTH 14 0
BBX 9 15 3 0
BITMAP
0180
0180
0180
FF80
FF80
E000
E000
E000
E000
E000
E000
E000
E000
E000
E000
ENDCHAR
STARTCHAR uni0492
ENCODING 1170
SWIDTH 600 0
DWIDTH 14 0
BBX 12 17 1 0
BITMAP
3FF0
3FF0
3800
3800
3800
3800
3800
FF80
FF80
3800
3800
3800
3800
3800
3800
3800
3800
ENDCHAR
STARTCHAR uni0493
ENCODING 1171
SWIDTH 600 0
DWIDTH 14 0
BBX 12 12 1 0
BITMAP
3FF0
3FF0
3800
3800
3800
FF80
FF80
3800
3800
3800
3800
3800
ENDCHAR
STARTCHAR uni0494
ENCODING 1172
SWIDTH 600 0
DWIDTH 14 0
BBX 11 21 2 -4
BITMAP
FF80
FF80
C000
C000
C000
C000
C000
DF00
FFC0
C1C0
C0E0
C0E0
C0E0
C0E0
C0E0
C0E0
C0E0
00E0
00C0
0FC0
0F80
ENDCHAR
STARTCHAR uni0495
ENCODING 1173
SWIDTH 600 0
DWIDTH 14 0
BBX 11 17 2 -5
BITMAP
FF80
FF80
E000
E000
E000
EF80
FFC0
E1C0
E0C0
E0C0
E0E0
E0E0
00E0
00C0
01C0
07C0
0780
ENDCHAR
STARTCHAR uni0496
ENCODING 1174
SWIDTH 600 0
DWIDTH 14 0
BBX 15 20 0 -3
BITMAP
C718
E718
6738
6738
6730
7730
3770
3FE0
3FE0
7770
7730
7730
6738
E738
E718
E71E
C71E
0006
0006
0006
ENDCHAR
STARTCHAR uni0497
ENCODING 1175
SWIDTH 600 0
DWIDTH 14 0
BBX 14 15 0 -3
BITMAP
E318
6318
6338
7330
3330
3FE0
3FF0
7330
6330
6338
E31C
E31C
000C
000C
000C
ENDCHAR
STARTCHAR uni0498
ENCODING 1176
SWIDTH 600 0
DWIDTH 14 0
BBX 12 20 1 -3
BITMAP
1F80
7FC0
E1E0
40E0
00E0
00E0
00C0
1F80
1FC0
00E0
00E0
0070
0070
40E0
E1E0
7FC0
3F80
0E00
0E00
0E00
ENDCHAR
STARTCHAR uni0499
ENCODING 1177
SWIDTH 600 0
DWIDTH 14 0
BBX 11 15 1 -3
BITMAP
1F80
7FC0
E0E0
40E0
00E0
1F80
1FC0
00E0
40E0
E0E0
7FC0
3F80
0E00
0E00
0E00
ENDCHAR
STARTCHAR uni049A
ENCODING 1178
SWIDTH 600 0
DWIDTH 14 0
BBX 13 20 1 -3
BITMAP
E070
E0E0
E0E0
E1C0
E1C0
E180
E380
E300
FF00
FF00
E380
E380
E1C0
E1C0
E0C0
E0F8
E078
0038
0038
0038
ENDCHAR
STARTCHAR uni049B
ENCODING 1179
SWIDTH 600 0
DWIDTH 14 0
BBX 11 15 2 -3
BITMAP
C1C0
C1C0
C380
C300
C700
FE00
FE00
C700
C300
C380
C1E0
C0E0
0060
0060
0060
ENDCHAR
STARTCHAR uni049C
ENCODING 1180
SWIDTH 600 0
DWIDTH 14 0
BBX 13 17 1 0
BITMAP
C070
C070
C060
C0E0
CCE0
CCC0
CDC0
CD80
FF80
FF80
CDC0
CDC0
CCC0
CCE0
C0E0
C078
C038
ENDCHAR
STARTCHAR uni049D
ENCODING 1181
SWIDTH 600 0
DWIDTH 14 0
BBX 12 12 1 0
BITMAP
E070
E060
ECE0
ECC0
EDC0
FF80
FF80
EDC0
EDC0
ECE0
E070
E070
ENDCHAR
STARTCHAR uni04A0
ENCODING 1184
SWIDTH 600 0
DWIDTH 14 0
BBX 14 17 0 0
BITMAP
FC1C
FC38
1C38
1C30
1C70
1C70
1CE0
1CE0
1FC0
1FC0
1CE0
1C60
1C70
1C70
1C30
1C3C
1C1C
ENDCHAR
STARTCHAR uni04A1
ENCODING 1185
SWIDTH 600 0
DWIDTH 14 0
BBX 14 12 0 0
BITMAP
FC38
FC30
1C70
1C60
1CE0
1FC0
1FC0
1CE0
1C60
1C70
1C3C
1C3C
ENDCHAR
STARTCHAR uni04A2
ENCODING 1186
SWIDTH 600 0
DWIDTH 14 0
BBX 13 20 1 -3
BITMAP
E0E0
E0E0
E0E0
E0E0
E0E0
E0E0
E0E0
E0E0
FFE0
FFE0
E0E0
E0E0
E0E0
E0E0
E0E0
E0F8
E0F8
0038
0038
0038
ENDCHAR
STARTCHAR uni04A3
ENCODING 1187
SWIDTH 600 0
DWIDTH 14 0
BBX 13 15 1 -3
BITMAP
E0E0
E0E0
E0E0
E0E0
E0E0
FFE0
FFE0
E0E0
E0E0
E0E0
E0F8
E0F8
0038
0038
0038
ENDCHAR
STARTCHAR uni04A4
ENCODING 1188
SWIDTH 600 0
DWIDTH 14 0
BBX 13 17 1 0
BITMAP
C3F8
C3F8
C380
C380
C380
C380
C380
FF80
FF80
C380
C380
C380
C380
C380
C380
C380
C380
ENDCHAR
STARTCHAR uni04A5
ENCODING 1189
SWIDTH 600 0
DWIDTH 14 0
BBX 13 12 1 0
BITMAP
C3F8
C3F8
C300
C300
C300
FF00
FF00
C300
C300
C300
C300
C300
ENDCHAR
STARTCHAR uni04AA
ENCODING 1194
SWIDTH 600 0
DWIDTH 14 0
BBX 12 20 1 -3
BITMAP
0F80
3FE0
38E0
7070
6040
E000
E000
E000
E000
E000
E000
E000
6040
7070
78E0
3FE0
0F80
0700
0700
0700
ENDCHAR
STARTCHAR uni04AB
ENCODING 1195
SWIDTH 600 0
DWIDTH 14 0
BBX 10 15 2 -3
BITMAP
1F00
7F80
F1C0
E080
C000
C000
C000
C000
E080
F1C0
7FC0
1F00
0E00
0E00
0E00
ENDCHAR
STARTCHAR uni04AE
ENCODING 1198
SWIDTH 600 0
DWIDTH 14 0
BBX 14 17 0 0
BITMAP
E01C
7038
7038
3870
3870
1CE0
1CE0
0FC0
0780
0780
0300
0300
0300
0300
0300
0300
0300
ENDCHAR
STARTCHAR uni04AF
ENCODING 1199
SWIDTH 600 0
DWIDTH 14 0
BBX 12 17 1 -5
BITMAP
E070
6060
7060
70E0
30C0
39C0
1980
1980
1F80
0F00
0F00
0F00
0600
0600
0600
0600
0600
ENDCHAR
STARTCHAR uni04B0
ENCODING 1200
SWIDTH 600 0
DWIDTH 14 0
BBX 14 17 0 0
BITMAP
E01C
7038
7038
3870
3870
1CE0
1CE0
0FC0
0FC0
0780
0780
3FF0
3FF0
0300
0300
0300
0300
ENDCHAR
STARTCHAR uni04B1
ENCODING 1201
SWIDTH 600 0
DWIDTH 14 0
BBX 12 17 1 -5
BITMAP
E070
6060
7060
70E0
30C0
39C0
1980
1980
1F80
0F00
0F00
0F00
7FE0
7FE0
0600
0600
0600
ENDCHAR
STARTCHAR uni04B2
ENCODING 1202
SWIDTH 600 0
DWIDTH 14 0
BBX 14 20 0 -3
BITMAP
F038
7038
3870
38E0
1CE0
0FC0
0FC0
0780
0780
0780
0FC0
1DC0
1CE0
3860
3070
703C
E03C
000C
000C
000C
ENDCHAR
STARTCHAR uni04B3
ENCODING 1203
SWIDTH 600 0
DWIDTH 14 0
BBX 13 15 1 -3
BITMAP
E070
70E0
39C0
1D80
1F80
0F00
0F00
1F80
1980
39C0
70F8
E078
0038
0038
0038
ENDCHAR
STARTCHAR uni04B6
ENCODING 1206
SWIDTH 600 0
DWIDTH 14 0
BBX 13 20 1 -3
BITMAP
E0E0
E0E0
E0E0
E0E0
E0E0
E0E0
E0E0
E0E0
E0E0
7FE0
3FE0
00E0
00E0
00E0
00E0
00F8
00F8
0038
0038
0038
ENDCHAR
STARTCHAR uni04B7
ENCODING 1207
SWIDTH 600 0
DWIDTH 14 0
BBX 13 15 1 -3
BITMAP
E0E0
E0E0
E0E0
E0E0
E0E0
E1E0
7FE0
3EE0
00E0
00E0
00F8
00F8
0038
0038
0038
ENDCHAR
STARTCHAR uni04B8
ENCODING 1208
SWIDTH 600 0
DWIDTH 14 0
BBX 11 17 1 0
BITMAP
E060
E060
E060
E060
E060
E660
E660
E660
F660
7FE0
3FE0
0660
0660
0660
0060
0060
0060
ENDCHAR
STARTCHAR uni04B9
ENCODING 1209
SWIDTH 600 0
DWIDTH 14 0
BBX 11 12 1 0
BITMAP
E0E0
E0E0
E0E0
E6E0
E6E0
76E0
7FE0
3EE0
06E0
06E0
00E0
00E0
ENDCHAR
STARTCHAR uni04BA
ENCODING 1210
SWIDTH 600 0
DWIDTH 14 0
BBX 11 17 2 0
BITMAP
C000
C000
C000
C000
C000
C000
FF00
FFC0
C1C0
C0E0
C0E0
C0E0
C0E0
C0E0
C0E0
C0E0
C0E0
ENDCHAR
STARTCHAR uni04BB
ENCODING 1211
SWIDTH 600 0
DWIDTH 14 0
BBX 10 18 2 0
BITMAP
C000
C000
C000
C000
C000
C000
CF00
DF80
E1C0
E1C0
C0C0
C0C0
C0C0
C0C0
C0C0
C0C0
C0C0
C0C0
ENDCHAR
STARTCHAR uni04C0
ENCODING 1216
SWIDTH 600 0
DWIDTH 14 0
BBX 10 17 2 0
BITMAP
FFC0
FFC0
0C00
0C00
0C00
0C00
0C00
0C00
0C00
0C00
0C00
0C00
0C00
0C00
0C00
FFC0
FFC0
ENDCHAR
STARTCHAR uni04C1
ENCODING 1217
SWIDTH 600 0
DWIDTH 14 0
BBX 14 23 0 0
BITMAP
0840
1860
1CE0
0FC0
0780
0000
E31C
631C
6318
7318
7338
3330
3330
1FE0
3FF0
3330
3338
7338
7318
6318
631C
E31C
E31C
ENDCHAR
STARTCHAR uni04C2
ENCODING 1218
SWIDTH 600 0
DWIDTH 14 0
BBX 14 19 0 0
BITMAP
0840
1860
1CE0
0FC0
0780
0000
0000
631C
6318
7318
3330
3330
3FE0
3FF0
3330
7338
6318
6318
E31C
ENDCHAR
STARTCHAR uni04CF
ENCODING 1231
SWIDTH 600 0
DWIDTH 14 0
BBX 10 18 2 0
BITMAP
FFC0
FFC0
0C00
0C00
0C00
0C00
0C00
0C00
0C00
0C00
0C00
0C00
0C00
0C00
0C00
0C00
FFC0
FFC0
ENDCHAR
STARTCHAR uni04D0
ENCODING 1232
SWIDTH 600 0
DWIDTH 14 0
BBX 14 23 0 0
BITMAP
0840
1860
1CE0
0FC0
0780
0000
0780
0780
0FC0
0FC0
0CC0
0CC0
1CE0
1CE0
1860
3870
3FF0
3FF0
3030
7038
7038
6018
E01C
ENDCHAR
STARTCHAR uni04D1
ENCODING 1233
SWIDTH 600 0
DWIDTH 14 0
BBX 12 19 1 0
BITMAP
1100
71C0
3180
1F80
0F00
0000
0000
1F00
7FC0
61C0
40E0
00E0
3FE0
7FE0
E0E0
E0E0
E1E0
7FF0
3E70
ENDCHAR
STARTCHAR uni04D2
ENCODING 1234
SWIDTH 600 0
DWIDTH 14 0
BBX 14 22 0 0
BITMAP
1CE0
1CE0
1CE0
0000
0000
0780
0780
0FC0
0FC0
0CC0
0CC0
1CE0
1CE0
1860
3870
3FF0
3FF0
3030
7038
7038
6018
E01C
ENDCHAR
STARTCHAR uni04D3
ENCODING 1235
SWIDTH 600 0
DWIDTH 14 0
BBX 12 18 1 0
BITMAP
3980
39C0
3980
0000
0000
0000
1F00
7FC0
61C0
40E0
00E0
3FE0
7FE0
E0E0
E0E0
E1E0
7FF0
3E70
ENDCHAR
STARTCHAR uni04D4
ENCODING 1236
SWIDTH 600 0
DWIDTH 14 0
BBX 13 17 0 0
BITMAP
0FF8
0FF8
0D80
0D80
1D80
1980
1980
19F8
39F8
3180
3F80
7F80
7180
6180
6180
E1F8
E1F8
ENDCHAR
STARTCHAR uni04D5
ENCODING 1237
SWIDTH 600 0
DWIDTH 14 0
BBX 14 12 0 0
BITMAP
3CF0
7FF8
E718
430C
030C
3FFC
7FFC
E300
C300
C79C
FDF8
78F0
ENDCHAR
STARTCHAR uni04D6
ENCODING 1238
SWIDTH 600 0
DWIDTH 14 0
BBX 10 23 2 0
BITMAP
2100
6180
7380
3F00
1E00
0000
FFC0
FFC0
E000
E000
E000
E000
E000
FFC0
FFC0
E000
E000
E000
E000
E000
E000
FFC0
FFC0
ENDCHAR
STARTCHAR uni04D7
ENCODING 1239
SWIDTH 600 0
DWIDTH 14 0
BBX 12 19 1 0
BITMAP
1080
30C0
39C0
1F80
0F00
0000
0000
1F80
3FC0
70E0
6060
E070
FFF0
FFF0
E000
6040
70E0
3FE0
0F80
ENDCHAR
STARTCHAR uni04D8
ENCODING 1240
SWIDTH 600 0
DWIDTH 14 0
BBX 12 17 1 0
BITMAP
1F80
3FC0
70E0
E060
6070
0070
0070
0070
FFF0
FFF0
E070
E070
E070
6060
70E0
3FC0
1F80
ENDCHAR
STARTCHAR uni04D9
ENCODING 1241
SWIDTH 600 0
DWIDTH 14 0
BBX 12 12 1 0
BITMAP
1F00
7FC0
70E0
4060
0070
FFF0
FFF0
E070
6060
70E0
3FC0
1F80
ENDCHAR
STARTCHAR uni04DC
ENCODING 1244
SWIDTH 600 0
DWIDTH 14 0
BBX 14 22 0 0
BITMAP
1CE0
1CE0
1CE0
0000
0000
E31C
631C
6318
7318
7338
3330
3330
1FE0
3FF0
3330
3338
7338
7318
6318
631C
E31C
E31C
ENDCHAR
STARTCHAR uni04DD
ENCODING 1245
SWIDTH 600 0
DWIDTH 14 0
BBX 14 18 0 0
BITMAP
1CE0
1CE0
1CE0
0000
0000
0000
631C
6318
7318
3330
3330
3FE0
3FF0
3330
7338
6318
6318
E31C
ENDCHAR
STARTCHAR uni04DE
ENCODING 1246
SWIDTH 600 0
DWIDTH 14 0
BBX 12 22 1 0
BITMAP
3980
3BC0
3980
0000
0000
1F80
7FC0
E1E0
40E0
00E0
00E0
00C0
1F80
1FC0
00E0
00E0
0070
0070
40E0
E1E0
7FC0
3F00
ENDCHAR
STARTCHAR uni04DF
ENCODING 1247
SWIDTH 600 0
DWIDTH 14 0
BBX 11 18 1 0
BITMAP
39C0
39C0
39C0
0000
0000
0000
1F80
7FC0
E0E0
40E0
00E0
1F80
1FC0
00E0
40E0
E0E0
7FC0
1F80
ENDCHAR
STARTCHAR uni04E2
ENCODING 1250
SWIDTH 600 0
DWIDTH 14 0
BBX 11 21 1 0
BITMAP
1FC0
1FC0
0000
0000
E060
E0E0
E0E0
E1E0
E1E0
E3E0
E360
E760
E660
EE60
EC60
FC60
F860
F860
F060
F060
E060
ENDCHAR
STARTCHAR uni04E3
ENCODING 1251
SWIDTH 600 0
DWIDTH 14 0
BBX 10 17 2 0
BITMAP
3F80
3F80
0000
0000
0000
C1C0
C1C0
C3C0
C7C0
C6C0
CCC0
DCC0
D8C0
F8C0
F0C0
E0C0
E0C0
ENDCHAR
STARTCHAR uni04E4
ENCODING 1252
SWIDTH 600 0
DWIDTH 14 0
BBX 11 22 1 0
BITMAP
39C0
39C0
39C0
0000
0000
E060
E0E0
E0E0
E1E0
E1E0
E3E0
E360
E760
E660
EE60
EC60
FC60
F860
F860
F060
F060
E060
ENDCHAR
STARTCHAR uni04E5
ENCODING 1253
SWIDTH 600 0
DWIDTH 14 0
BBX 10 18 2 0
BITMAP
7380
7380
7380
0000
0000
0000
C1C0
C1C0
C3C0
C7C0
C6C0
CCC0
DCC0
D8C0
F8C0
F0C0
E0C0
E0C0
ENDCHAR
STARTCHAR uni04E6
ENCODING 1254
SWIDTH 600 0
DWIDTH 14 0
BBX 12 22 1 0
BITMAP
39C0
39C0
39C0
0000
0000
1F80
3FC0
70E0
6060
E070
E070
E070
E070
E070
E070
E070
E070
E070
6060
70E0
3FC0
1F80
ENDCHAR
STARTCHAR uni04E7
ENCODING 1255
SWIDTH 600 0
DWIDTH 14 0
BBX 12 18 1 0
BITMAP
39C0
39C0
39C0
0000
0000
0000
1F80
3FC0
70E0
6060
E070
E070
E070
E070
6060
70E0
3FC0
1F80
ENDCHAR
STARTCHAR uni04E8
ENCODING 1256
SWIDTH 600 0
DWIDTH 14 0
BBX 12 17 1 0
BITMAP
1F80
3FC0
70E0
6060
E070
E070
E070
FFF0
FFF0
E070
E070
E070
E070
6060
70E0
3FC0
1F80
ENDCHAR
STARTCHAR uni04E9
ENCODING 1257
SWIDTH 600 0
DWIDTH 14 0
BBX 12 12 1 0
BITMAP
1F80
3FC0
70E0
6060
E070
FFF0
FFF0
E070
6060
70E0
3FC0
1F80
ENDCHAR
STARTCHAR uni04EE
ENCODING 1262
SWIDTH 600 0
DWIDTH 14 0
BBX 13 21 1 0
BITMAP
1FC0
1FC0
0000
0000
E038
E070
6070
7060
70E0
38E0
38C0
19C0
1D80
0D80
0F80
0700
0700
0700
0600
3E00
3C00
ENDCHAR
STARTCHAR uni04EF
ENCODING 1263
SWIDTH 600 0
DWIDTH 14 0
BBX 12 22 1 -5
BITMAP
1FC0
1FC0
0000
0000
0000
E070
E070
6060
70E0
30C0
38C0
39C0
1980
1F80
0F00
0F00
0F00
0600
0E00
0C00
7C00
7800
ENDCHAR
STARTCHAR uni04F0
ENCODING 1264
SWIDTH 600 0
DWIDTH 14 0
BBX 13 22 1 0
BITMAP
39C0
39C0
39C0
0000
0000
E038
E070
6070
7060
70E0
38E0
38C0
19C0
1D80
0D80
0F80
0700
0700
0700
0600
3E00
3C00
ENDCHAR
STARTCHAR uni04F1
ENCODING 1265
SWIDTH 600 0
DWIDTH 14 0
BBX 12 23 1 -5
BITMAP
39C0
39C0
39C0
0000
0000
0000
E070
E070
6060
70E0
30C0
38C0
39C0
1980
1F80
0F00
0F00
0F00
0600
0E00
0C00
7C00
7800
ENDCHAR
STARTCHAR uni04F2
ENCODING 1266
SWIDTH 600 0
DWIDTH 14 0
BBX 13 23 1 0
BITMAP
0440
0EE0
0CC0
19C0
1980
0000
E038
E070
6070
7060
70E0
38E0
38C0
19C0
1D80
0D80
0F80
0700
0700
0700
0600
3E00
3C00
ENDCHAR
STARTCHAR uni04F3
ENCODING 1267
SWIDTH 600 0
DWIDTH 14 0
BBX 12 24 1 -5
BITMAP
0440
0EE0
0CC0
1980
1180
0000
0000
E070
E070
6060
70E0
30C0
38C0
39C0
1980
1F80
0F00
0F00
0F00
0600
0E00
0C00
7C00
7800
ENDCHAR
STARTCHAR uni04F4
ENCODING 1268
SWIDTH 600 0
DWIDTH 14 0
BBX 11 22 1 0
BITMAP
3980
39C0
3980
0000
0000
E060
E060
E060
E060
E060
E060
E060
E060
7060
7FE0
1F60
0060
0060
0060
0060
0060
0060
ENDCHAR
STARTCHAR uni04F5
ENCODING 1269
SWIDTH 600 0
DWIDTH 14 0
BBX 11 18 1 0
BITMAP
3980
39C0
3980
0000
0000
0000
E0E0
E0E0
E0E0
E0E0
60E0
70E0
7FE0
3EE0
00E0
00E0
00E0
00E0
ENDCHAR
STARTCHAR uni04F8
ENCODING 1272
SWIDTH 600 0
DWIDTH 14 0
BBX 12 22 1 0
BITMAP
39C0
39C0
39C0
0000
0000
C030
C030
C030
C030
C030
C030
C030
FC30
FE30
C730
C330
C330
C330
C330
C730
FE30
FC30
ENDCHAR
STARTCHAR uni04F9
ENCODING 1273
SWIDTH 600 0
DWIDTH 14 0
BBX 12 18 1 0
BITMAP
39C0
39C0
39C0
0000
0000
0000
C030
C030
C030
C030
FC30
FE30
C730
C330
C330
C730
FE30
FC30
ENDCHAR
STARTCHAR uni0E3F
ENCODING 3647
SWIDTH 600 0
DWIDTH 14 0
BBX 11 23 2 -3
BITMAP
0C00
0C00
0C00
FF00
FFC0
CDC0
CCE0
CCE0
CCC0
CDC0
FF80
FF80
CDC0
CCE0
CCE0
CCE0
CCE0
CDC0
FFC0
FF00
0C00
0C00
0C00
ENDCHAR
STARTCHAR Wgrave
ENCODING 7808
SWIDTH 600 0
DWIDTH 14 0
BBX 14 23 0 0
BITMAP
0400
0E00
0600
0300
0300
0000
E01C
601C
6018
6018
6318
6798
6798
6798
6798
6698
6CD8
6CD8
6CD8
7CF8
7CF8
7878
3870
ENDCHAR
STARTCHAR wgrave
ENCODING 7809
SWIDTH 600 0
DWIDTH 14 0
BBX 14 19 0 0
BITMAP
0400
0E00
0600
0300
0300
0000
0000
E30C
E79C
6798
6798
6798
6498
64D8
6CD8
7CD0
3CF0
3CF0
3870
ENDCHAR
STARTCHAR Wacute
ENCODING 7810
SWIDTH 600 0
DWIDTH 14 0
BBX 14 23 0 0
BITMAP
0080
01C0
0380
0300
0300
0000
E01C
601C
6018
6018
6318
6798
6798
6798
6798
6698
6CD8
6CD8
6CD8
7CF8
7CF8
7878
3870
ENDCHAR
STARTCHAR wacute
ENCODING 7811
SWIDTH 600 0
DWIDTH 14 0
BBX 14 19 0 0
BITMAP
0080
01C0
0180
0300
0300
0000
0000
E30C
E79C
6798
6798
6798
6498
64D8
6CD8
7CD0
3CF0
3CF0
3870
ENDCHAR
STARTCHAR Wdieresis
ENCODING 7812
SWIDTH 600 0
DWIDTH 14 0
BBX 14 22 0 0
BITMAP
1CE0
1CE0
1CE0
0000
0000
E01C
601C
6018
6018
6318
6798
6798
6798
6798
6698
6CD8
6CD8
6CD8
7CF8
7CF8
7878
3870
ENDCHAR
STARTCHAR wdieresis
ENCODING 7813
SWIDTH 600 0
DWIDTH 14 0
BBX 14 18 0 0
BITMAP
1CE0
1CE0
1CE0
0000
0000
0000
E30C
E79C
6798
6798
6798
6498
64D8
6CD8
7CD0
3CF0
3CF0
3870
ENDCHAR
STARTCHAR uni1E9E
ENCODING 7838
SWIDTH 600 0
DWIDTH 14 0
BBX 13 17 1 0
BITMAP
FFF0
FFF0
E070
E0E0
E1C0
E1C0
E380
E3C0
E3F0
E070
E038
E038
E038
E038
E470
EFF0
E7C0
ENDCHAR
STARTCHAR uni1EA0
ENCODING 7840
SWIDTH 600 0
DWIDTH 14 0
BBX 14 21 0 -4
BITMAP
0780
0780
0FC0
0FC0
0CC0
0CC0
1CE0
1CE0
1860
3870
3FF0
3FF0
3030
7038
7038
6018
E01C
0000
0380
0380
0380
ENDCHAR
STARTCHAR uni1EA1
ENCODING 7841
SWIDTH 600 0
DWIDTH 14 0
BBX 12 16 1 -4
BITMAP
1F00
7FC0
61C0
40E0
00E0
3FE0
7FE0
E0E0
E0E0
E1E0
7FF0
3E70
0000
0E00
0E00
0600
ENDCHAR
STARTCHAR uni1EA2
ENCODING 7842
SWIDTH 600 0
DWIDTH 14 0
BBX 14 23 0 0
BITMAP
0780
07C0
01C0
0180
0300
0000
0780
0780
0FC0
0FC0
0CC0
0CC0
1CE0
1CE0
1860
3870
3FF0
3FF0
3030
7038
7038
6018
E01C
ENDCHAR
STARTCHAR uni1EA3
ENCODING 7843
SWIDTH 600 0
DWIDTH 14 0
BBX 12 19 1 0
BITMAP
1F00
1F00
0300
0300
0600
0000
0000
1F00
7FC0
61C0
40E0
00E0
3FE0
7FE0
E0E0
E0E0
E1E0
7FF0
3E70
ENDCHAR
STARTCHAR uni1EA4
ENCODING 7844
SWIDTH 600 0
DWIDTH 14 0
BBX 14 26 0 0
BITMAP
0018
001C
0038
03B0
07E0
0EC0
1C60
0820
0000
0780
0780
0FC0
0FC0
0CC0
0CC0
1CE0
1CE0
1860
3870
3FF0
3FF0
3030
7038
7038
6018
E01C
ENDCHAR
STARTCHAR uni1EA5
ENCODING 7845
SWIDTH 600 0
DWIDTH 14 0
BBX 13 22 1 0
BITMAP
0030
0038
0070
0E60
0FC0
1B80
31C0
2080
0000
0000
1F00
7FC0
61C0
40E0
00E0
3FE0
7FE0
E0E0
E0E0
E1E0
7FF0
3E70
ENDCHAR
STARTCHAR uni1EA6
ENCODING 7846
SWIDTH 600 0
DWIDTH 14 0
BBX 14 26 0 0
BITMAP
2000
E000
3000
3380
1FC0
0EC0
1C60
0820
0000
0780
0780
0FC0
0FC0
0CC0
0CC0
1CE0
1CE0
1860
3870
3FF0
3FF0
3030
7038
7038
6018
E01C
ENDCHAR
STARTCHAR uni1EA7
ENCODING 7847
SWIDTH 600 0
DWIDTH 14 0
BBX 13 22 0 0
BITMAP
6000
E000
7000
3700
1780
0DC0
18E0
1040
0000
0000
0F80
3FE0
30E0
2070
0070
1FF0
3FF0
7070
7070
70F0
3FF8
1F38
ENDCHAR
STARTCHAR uni1EA8
ENCODING 7848
SWIDTH 600 0
DWIDTH 14 0
BBX 14 27 0 0
BITMAP
00F8
00F8
0018
0030
03B0
07C0
0EC0
1C60
0820
0000
0780
0780
0FC0
0FC0
0CC0
0CC0
1CE0
1CE0
1860
3870
3FF0
3FF0
3030
7038
7038
6018
E01C
ENDCHAR
STARTCHAR uni1EA9
ENCODING 7849
SWIDTH 600 0
DWIDTH 14 0
BBX 12 23 1 0
BITMAP
01E0
01F0
0030
0060
0E40
0F00
1B80
31C0
2080
0000
0000
1F00
7FC0
61C0
40E0
00E0
3FE0
7FE0
E0E0
E0E0
E1E0
7FF0
3E70
ENDCHAR
STARTCHAR uni1EAA
ENCODING 7850
SWIDTH 600 0
DWIDTH 14 0
BBX 14 25 0 0
BITMAP
0E20
1FE0
11C0
0380
07C0
0CE0
1860
0000
0780
0780
0FC0
0FC0
0CC0
0CC0
1CE0
1CE0
1860
3870
3FF0
3FF0
3030
7038
7038
6018
E01C
ENDCHAR
STARTCHAR uni1EAB
ENCODING 7851
SWIDTH 600 0
DWIDTH 14 0
BBX 12 22 1 0
BITMAP
1C80
3FC0
2380
0000
0F00
1F80
39C0
3080
0000
0000
1F00
7FC0
61C0
40E0
00E0
3FE0
7FE0
E0E0
E0E0
E1E0
7FF0
3E70
ENDCHAR
STARTCHAR uni1EAC
ENCODING 7852
SWIDTH 600 0
DWIDTH 14 0
BBX 14 27 0 -4
BITMAP
0780
0780
0FC0
1CE0
0840
0000
0780
0780
0FC0
0FC0
0CC0
0CC0
1CE0
1CE0
1860
3870
3FF0
3FF0
3030
7038
7038
6018
E01C
0000
0380
0380
0380
ENDCHAR
STARTCHAR uni1EAD
ENCODING 7853
SWIDTH 600 0
DWIDTH 14 0
BBX 12 23 1 -4
BITMAP
0E00
1F00
1B80
31C0
2080
0000
0000
1F00
7FC0
61C0
40E0
00E0
3FE0
7FE0
E0E0
E0E0
E1E0
7FF0
3E70
0000
0E00
0E00
0600
ENDCHAR
STARTCHAR uni1EAE
ENCODING 7854
SWIDTH 600 0
DWIDTH 14 0
BBX 14 26 0 0
BITMAP
0080
01C0
0180
0380
1B30
1C60
0FC0
0780
0000
0780
0780
0FC0
0FC0
0CC0
0CC0
1CE0
1CE0
1860
3870
3FF0
3FF0
3030
7038
7038
6018
E01C
ENDCHAR
STARTCHAR uni1EAF
ENCODING 7855
SWIDTH 600 0
DWIDTH 14 0
BBX 12 22 1 0
BITMAP
0100
0380
0300
0600
36C0
31C0
1F80
0F00
0000
0000
1F00
7FC0
61C0
40E0
00E0
3FE0
7FE0
E0E0
E0E0
E1E0
7FF0
3E70
ENDCHAR
STARTCHAR uni1EB0
ENCODING 7856
SWIDTH 600 0
DWIDTH 14 0
BBX 14 26 0 0
BITMAP
0600
0E00
0700
0300
1930
1C60
0FC0
0780
0000
0780
0780
0FC0
0FC0
0CC0
0CC0
1CE0
1CE0
1860
3870
3FF0
3FF0
3030
7038
7038
6018
E01C
ENDCHAR
STARTCHAR uni1EB1
ENCODING 7857
SWIDTH 600 0
DWIDTH 14 0
BBX 12 22 1 0
BITMAP
0800
1C00
0C00
0600
36C0
31C0
1F80
0F00
0000
0000
1F00
7FC0
61C0
40E0
00E0
3FE0
7FE0
E0E0
E0E0
E1E0
7FF0
3E70
ENDCHAR
STARTCHAR uni1EB2
ENCODING 7858
SWIDTH 600 0
DWIDTH 14 0
BBX 14 26 0 0
BITMAP
0780
0780
0180
0180
1B30
1C60
0FC0
0780
0000
0780
0780
0FC0
0FC0
0CC0
0CC0
1CE0
1CE0
1860
3870
3FF0
3FF0
3030
7038
7038
6018
E01C
ENDCHAR
STARTCHAR uni1EB3
ENCODING 7859
SWIDTH 600 0
DWIDTH 14 0
BBX 12 22 1 0
BITMAP
1F00
1F00
0300
0600
36C0
31C0
1F80
0F00
0000
0000
1F00
7FC0
61C0
40E0
00E0
3FE0
7FE0
E0E0
E0E0
E1E0
7FF0
3E70
ENDCHAR
STARTCHAR uni1EB4
ENCODING 7860
SWIDTH 600 0
DWIDTH 14 0
BBX 14 26 0 0
BITMAP
0E20
1FE0
11C0
0000
1820
1C70
0FE0
0780
0000
0780
0780
0FC0
0FC0
0CC0
0CC0
1CE0
1CE0
1860
3870
3FF0
3FF0
3030
7038
7038
6018
E01C
ENDCHAR
STARTCHAR uni1EB5
ENCODING 7861
SWIDTH 600 0
DWIDTH 14 0
BBX 12 22 1 0
BITMAP
1C80
3FC0
2380
0000
20C0
31C0
3F80
0F00
0000
0000
1F00
7FC0
61C0
40E0
00E0
3FE0
7FE0
E0E0
E0E0
E1E0
7FF0
3E70
ENDCHAR
STARTCHAR uni1EB6
ENCODING 7862
SWIDTH 600 0
DWIDTH 14 0
BBX 14 27 0 -4
BITMAP
1040
1860
1CE0
0FC0
0780
0000
0780
0780
0FC0
0FC0
0CC0
0CC0
1CE0
1CE0
1860
3870
3FF0
3FF0
3030
7038
7038
6018
E01C
0000
0380
0380
0380
ENDCHAR
STARTCHAR uni1EB7
ENCODING 7863
SWIDTH 600 0
DWIDTH 14 0
BBX 12 23 1 -4
BITMAP
2080
30C0
3980
1F80
0F00
0000
0000
1F00
7FC0
61C0
40E0
00E0
3FE0
7FE0
E0E0
E0E0
E1E0
7FF0
3E70
0000
0E00
0E00
0600
ENDCHAR
STARTCHAR uni1EB8
ENCODING 7864
SWIDTH 600 0
DWIDTH 14 0
BBX 10 21 2 -4
BITMAP
FFC0
FFC0
E000
E000
E000
E000
E000
FFC0
FFC0
E000
E000
E000
E000
E000
E000
FFC0
FFC0
0000
0E00
0E00
0E00
ENDCHAR
STARTCHAR uni1EB9
ENCODING 7865
SWIDTH 600 0
DWIDTH 14 0
BBX 12 16 1 -4
BITMAP
1F80
3FC0
70E0
6060
E070
FFF0
FFF0
E000
6040
70E0
3FE0
0F80
0000
0700
0700
0700
ENDCHAR
STARTCHAR uni1EBA
ENCODING 7866
SWIDTH 600 0
DWIDTH 14 0
BBX 10 23 2 0
BITMAP
1E00
1F00
0300
0600
0400
0000
FFC0
FFC0
E000
E000
E000
E000
E000
FFC0
FFC0
E000
E000
E000
E000
E000
E000
FFC0
FFC0
ENDCHAR
STARTCHAR uni1EBB
ENCODING 7867
SWIDTH 600 0
DWIDTH 14 0
BBX 12 19 1 0
BITMAP
0F00
0F80
0380
0300
0600
0000
0000
1F80
3FC0
70E0
6060
E070
FFF0
FFF0
E000
6040
70E0
3FE0
0F80
ENDCHAR
STARTCHAR uni1EBC
ENCODING 7868
SWIDTH 600 0
DWIDTH 14 0
BBX 10 22 2 0
BITMAP
3880
7F80
4700
0000
0000
FFC0
FFC0
E000
E000
E000
E000
E000
FFC0
FFC0
E000
E000
E000
E000
E000
E000
FFC0
FFC0
ENDCHAR
STARTCHAR uni1EBD
ENCODING 7869
SWIDTH 600 0
DWIDTH 14 0
BBX 12 17 1 0
BITMAP
1C40
3FC0
2380
0000
0000
1F80
3FC0
70E0
6060
E070
FFF0
FFF0
E000
6040
70E0
3FE0
0F80
ENDCHAR
STARTCHAR uni1EBE
ENCODING 7870
SWIDTH 600 0
DWIDTH 14 0
BBX 12 26 2 0
BITMAP
0020
0070
0060
0EC0
1FC0
3B00
7180
2080
0000
FFC0
FFC0
E000
E000
E000
E000
E000
FFC0
FFC0
E000
E000
E000
E000
E000
E000
FFC0
FFC0
ENDCHAR
STARTCHAR uni1EBF
ENCODING 7871
SWIDTH 600 0
DWIDTH 14 0
BBX 13 22 1 0
BITMAP
0010
0038
0030
0760
0FC0
1D80
38C0
1040
0000
0000
1F80
3FC0
70E0
6060
E070
FFF0
FFF0
E000
6040
70E0
3FE0
0F80
ENDCHAR
STARTCHAR uni1EC0
ENCODING 7872
SWIDTH 600 0
DWIDTH 14 0
BBX 11 26 1 0
BITMAP
4000
E000
6000
7700
2F80
1D80
38C0
1040
0000
7FE0
7FE0
7000
7000
7000
7000
7000
7FE0
7FE0
7000
7000
7000
7000
7000
7000
7FE0
7FE0
ENDCHAR
STARTCHAR uni1EC1
ENCODING 7873
SWIDTH 600 0
DWIDTH 14 0
BBX 13 22 0 0
BITMAP
2000
E000
3000
3380
1FC0
0EC0
1C60
0820
0000
0000
0FC0
1FE0
3870
3030
7038
7FF8
7FF8
7000
3020
3870
1FF0
07C0
ENDCHAR
STARTCHAR uni1EC2
ENCODING 7874
SWIDTH 600 0
DWIDTH 14 0
BBX 11 27 2 0
BITMAP
03E0
03E0
0060
00C0
0EC0
1F00
3B00
7180
2080
0000
FFC0
FFC0
E000
E000
E000
E000
E000
FFC0
FFC0
E000
E000
E000
E000
E000
E000
FFC0
FFC0
ENDCHAR
STARTCHAR uni1EC3
ENCODING 7875
SWIDTH 600 0
DWIDTH 14 0
BBX 12 23 1 0
BITMAP
01F0
01F0
0030
0060
0760
0F80
1D80
38C0
1040
0000
0000
1F80
3FC0
70E0
6060
E070
FFF0
FFF0
E000
6040
70E0
3FE0
0F80
ENDCHAR
STARTCHAR uni1EC4
ENCODING 7876
SWIDTH 600 0
DWIDTH 14 0
BBX 10 25 2 0
BITMAP
3880
7FC0
4780
0E00
1F00
3380
6080
0000
FFC0
FFC0
E000
E000
E000
E000
E000
FFC0
FFC0
E000
E000
E000
E000
E000
E000
FFC0
FFC0
ENDCHAR
STARTCHAR uni1EC5
ENCODING 7877
SWIDTH 600 0
DWIDTH 14 0
BBX 12 22 1 0
BITMAP
1C40
3FC0
2380
0000
0700
0F80
19C0
30C0
0000
0000
1F80
3FC0
70E0
6060
E070
FFF0
FFF0
E000
6040
70E0
3FE0
0F80
ENDCHAR
STARTCHAR uni1EC6
ENCODING 7878
SWIDTH 600 0
DWIDTH 14 0
BBX 10 27 2 -4
BITMAP
1E00
1F00
3B00
7180
2180
0000
FFC0
FFC0
E000
E000
E000
E000
E000
FFC0
FFC0
E000
E000
E000
E000
E000
E000
FFC0
FFC0
0000
0E00
0E00
0E00
ENDCHAR
STARTCHAR uni1EC7
ENCODING 7879
SWIDTH 600 0
DWIDTH 14 0
BBX 12 23 1 -4
BITMAP
0F00
0F00
1D80
39C0
10C0
0000
0000
1F80
3FC0
70E0
6060
E070
FFF0
FFF0
E000
6040
70E0
3FE0
0F80
0000
0700
0700
0700
ENDCHAR
STARTCHAR uni1EC8
ENCODING 7880
SWIDTH 600 0
DWIDTH 14 0
BBX 10 23 2 0
BITMAP
1E00
1F00
0700
0600
0C00
0000
FFC0
FFC0
0C00
0C00
0C00
0C00
0C00
0C00
0C00
0C00
0C00
0C00
0C00
0C00
0C00
FFC0
FFC0
ENDCHAR
STARTCHAR uni1EC9
ENCODING 7881
SWIDTH 600 0
DWIDTH 14 0
BBX 11 19 2 0
BITMAP
0F00
0F80
0300
0300
0600
0000
0000
FE00
FE00
0E00
0E00
0E00
0E00
0E00
0E00
0E00
0E00
FFE0
FFE0
ENDCHAR
STARTCHAR uni1ECA
ENCODING 7882
SWIDTH 600 0
DWIDTH 14 0
BBX 10 21 2 -4
BITMAP
FFC0
FFC0
0C00
0C00
0C00
0C00
0C00
0C00
0C00
0C00
0C00
0C00
0C00
0C00
0C00
FFC0
FFC0
0000
0E00
0E00
0E00
ENDCHAR
STARTCHAR uni1ECB
ENCODING 7883
SWIDTH 600 0
DWIDTH 14 0
BBX 11 22 2 -4
BITMAP
0E00
0F00
0E00
0000
0000
0000
FE00
FE00
0E00
0E00
0E00
0E00
0E00
0E00
0E00
0E00
FFE0
FFE0
0000
0600
0F00
0600
ENDCHAR
STARTCHAR uni1ECC
ENCODING 7884
SWIDTH 600 0
DWIDTH 14 0
BBX 12 21 1 -4
BITMAP
1F80
3FC0
70E0
6060
E070
E070
E070
E070
E070
E070
E070
E070
E070
6060
70E0
3FC0
1F80
0000
0700
0700
0700
ENDCHAR
STARTCHAR uni1ECD
ENCODING 7885
SWIDTH 600 0
DWIDTH 14 0
BBX 12 16 1 -4
BITMAP
1F80
3FC0
70E0
6060
E070
E070
E070
E070
6060
70E0
3FC0
1F80
0000
0700
0700
0700
ENDCHAR
STARTCHAR uni1ECE
ENCODING 7886
SWIDTH 600 0
DWIDTH 14 0
BBX 12 23 1 0
BITMAP
0F00
0F80
0380
0300
0600
0000
1F80
3FC0
70E0
6060
E070
E070
E070
E070
E070
E070
E070
E070
E070
6060
70E0
3FC0
1F80
ENDCHAR
STARTCHAR uni1ECF
ENCODING 7887
SWIDTH 600 0
DWIDTH 14 0
BBX 12 19 1 0
BITMAP
0F00
0F80
0380
0300
0600
0000
0000
1F80
3FC0
70E0
6060
E070
E070
E070
E070
6060
70E0
3FC0
1F80
ENDCHAR
STARTCHAR uni1ED0
ENCODING 7888
SWIDTH 600 0
DWIDTH 14 0
BBX 13 26 1 0
BITMAP
0030
0038
0070
0760
0FC0
1D80
38C0
1040
0000
1F80
3FC0
70E0
6060
E070
E070
E070
E070
E070
E070
E070
E070
E070
6060
70E0
3FC0
1F80
ENDCHAR
STARTCHAR uni1ED1
ENCODING 7889
SWIDTH 600 0
DWIDTH 14 0
BBX 13 22 1 0
BITMAP
0030
0038
0070
0760
0FC0
1D80
38C0
1040
0000
0000
1F80
3FC0
70E0
6060
E070
E070
E070
E070
6060
70E0
3FC0
1F80
ENDCHAR
STARTCHAR uni1ED2
ENCODING 7890
SWIDTH 600 0
DWIDTH 14 0
BBX 13 26 0 0
BITMAP
2000
E000
3000
3380
1FC0
0EC0
1C60
0820
0000
0FC0
1FE0
3870
3030
7038
7038
7038
7038
7038
7038
7038
7038
7038
3030
3870
1FE0
0FC0
ENDCHAR
STARTCHAR uni1ED3
ENCODING 7891
SWIDTH 600 0
DWIDTH 14 0
BBX 13 22 0 0
BITMAP
2000
E000
3000
3380
1FC0
0EC0
1C60
0820
0000
0000
0FC0
1FE0
3870
3030
7038
7038
7038
7038
3030
3870
1FE0
0FC0
ENDCHAR
STARTCHAR uni1ED4
ENCODING 7892
SWIDTH 600 0
DWIDTH 14 0
BBX 12 27 1 0
BITMAP
01F0
01F0
0030
0060
0760
0F80
1D80
38C0
1040
0000
1F80
3FC0
70E0
6060
E070
E070
E070
E070
E070
E070
E070
E070
E070
6060
70E0
3FC0
1F80
ENDCHAR
STARTCHAR uni1ED5
ENCODING 7893
SWIDTH 600 0
DWIDTH 14 0
BBX 12 23 1 0
BITMAP
01F0
01F0
0030
0060
0760
0F80
1D80
38C0
1040
0000
0000
1F80
3FC0
70E0
6060
E070
E070
E070
E070
6060
70E0
3FC0
1F80
ENDCHAR
STARTCHAR uni1ED6
ENCODING 7894
SWIDTH 600 0
DWIDTH 14 0
BBX 12 25 1 0
BITMAP
1C40
3FC0
2380
0700
0F80
19C0
30C0
0000
1F80
3FC0
70E0
6060
E070
E070
E070
E070
E070
E070
E070
E070
E070
6060
70E0
3FC0
1F80
ENDCHAR
STARTCHAR uni1ED7
ENCODING 7895
SWIDTH 600 0
DWIDTH 14 0
BBX 12 22 1 0
BITMAP
1C40
3FC0
2380
0000
0700
0F80
19C0
30C0
0000
0000
1F80
3FC0
70E0
6060
E070
E070
E070
E070
6060
70E0
3FC0
1F80
ENDCHAR
STARTCHAR uni1ED8
ENCODING 7896
SWIDTH 600 0
DWIDTH 14 0
BBX 12 27 1 -4
BITMAP
0F00
0F00
1F80
39C0
1080
0000
1F80
3FC0
70E0
6060
E070
E070
E070
E070
E070
E070
E070
E070
E070
6060
70E0
3FC0
1F80
0000
0700
0700
0700
ENDCHAR
STARTCHAR uni1ED9
ENCODING 7897
SWIDTH 600 0
DWIDTH 14 0
BBX 12 23 1 -4
BITMAP
0F00
0F00
1F80
39C0
1080
0000
0000
1F80
3FC0
70E0
6060
E070
E070
E070
E070
6060
70E0
3FC0
1F80
0000
0700
0700
0700
ENDCHAR
STARTCHAR uni1EDA
ENCODING 7898
SWIDTH 600 0
DWIDTH 14 0
BBX 12 23 1 0
BITMAP
0100
0380
0700
0600
0630
0030
1FF0
3FF0
70E0
6060
E070
E070
E070
E070
E070
E070
E070
E070
E070
6060
70E0
3FC0
1F80
ENDCHAR
STARTCHAR uni1EDB
ENCODING 7899
SWIDTH 600 0
DWIDTH 14 0
BBX 12 19 1 0
BITMAP
0100
0380
0300
0600
0600
0030
0030
1FF0
3FF0
70E0
6060
E070
E070
E070
E070
6070
70E0
3FC0
1F80
ENDCHAR
STARTCHAR uni1EDC
ENCODING 7900
SWIDTH 600 0
DWIDTH 14 0
BBX 12 23 1 0
BITMAP
0800
1C00
0C00
0600
0630
0030
1FF0
3FF0
70E0
6060
E070
E070
E070
E070
E070
E070
E070
E070
E070
6060
70E0
3FC0
1F80
ENDCHAR
STARTCHAR uni1EDD
ENCODING 7901
SWIDTH 600 0
DWIDTH 14 0
BBX 12 19 1 0
BITMAP
0800
1C00
0C00
0600
0600
0030
0030
1FF0
3FF0
70E0
6060
E070
E070
E070
E070
6070
70E0
3FC0
1F80
ENDCHAR
STARTCHAR uni1EDE
ENCODING 7902
SWIDTH 600 0
DWIDTH 14 0
BBX 12 23 1 0
BITMAP
0F00
0F80
0380
0300
0630
0030
1FF0
3FF0
70E0
6060
E070
E070
E070
E070
E070
E070
E070
E070
E070
6060
70E0
3FC0
1F80
ENDCHAR
STARTCHAR uni1EDF
ENCODING 7903
SWIDTH 600 0
DWIDTH 14 0
BBX 12 19 1 0
BITMAP
0F00
0F80
0380
0300
0600
0030
0030
1FF0
3FF0
70E0
6060
E070
E070
E070
E070
6070
70E0
3FC0
1F80
ENDCHAR
STARTCHAR uni1EE0
ENCODING 7904
SWIDTH 600 0
DWIDTH 14 0
BBX 12 22 1 0
BITMAP
1C80
3FC0
2380
0030
0030
1FF0
3FF0
70E0
6060
E070
E070
E070
E070
E070
E070
E070
E070
E070
6060
70E0
3FC0
1F80
ENDCHAR
STARTCHAR uni1EE1
ENCODING 7905
SWIDTH 600 0
DWIDTH 14 0
BBX 12 17 1 0
BITMAP
1C80
3FC0
2380
0030
0030
1FF0
3FF0
70E0
6060
E070
E070
E070
E070
6070
70E0
3FC0
1F80
ENDCHAR
STARTCHAR uni1EE2
ENCODING 7906
SWIDTH 600 0
DWIDTH 14 0
BBX 12 23 1 -4
BITMAP
0030
0030
1FF0
3FF0
70E0
6060
E070
E070
E070
E070
E070
E070
E070
E070
E070
6060
70E0
3FC0
1F80
0000
0700
0700
0700
ENDCHAR
STARTCHAR uni1EE3
ENCODING 7907
SWIDTH 600 0
DWIDTH 14 0
BBX 12 18 1 -4
BITMAP
0030
0030
1FF0
3FF0
70E0
6060
E070
E070
E070
E070
6070
70E0
3FC0
1F80
0000
0700
0700
0700
ENDCHAR
STARTCHAR uni1EE4
ENCODING 7908
SWIDTH 600 0
DWIDTH 14 0
BBX 12 21 1 -4
BITMAP
E070
E070
E070
E070
E070
E070
E070
E070
E070
E070
E070
6060
6060
6060
70E0
3FC0
1F80
0000
0700
0700
0700
ENDCHAR
STARTCHAR uni1EE5
ENCODING 7909
SWIDTH 600 0
DWIDTH 14 0
BBX 10 16 2 -4
BITMAP
C0C0
C0C0
C0C0
C0C0
C0C0
C0C0
C0C0
C0C0
E1C0
E1C0
7EC0
3CC0
0000
0C00
0E00
0C00
ENDCHAR
STARTCHAR uni1EE6
ENCODING 7910
SWIDTH 600 0
DWIDTH 14 0
BBX 12 23 1 0
BITMAP
0F00
0F80
0380
0300
0600
0000
E070
E070
E070
E070
E070
E070
E070
E070
E070
E070
E070
6060
6060
6060
70E0
3FC0
1F80
ENDCHAR
STARTCHAR uni1EE7
ENCODING 7911
SWIDTH 600 0
DWIDTH 14 0
BBX 10 19 2 0
BITMAP
1E00
1F00
0600
0600
0C00
0000
0000
C0C0
C0C0
C0C0
C0C0
C0C0
C0C0
C0C0
C0C0
E1C0
E1C0
7EC0
3CC0
ENDCHAR
STARTCHAR uni1EE8
ENCODING 7912
SWIDTH 600 0
DWIDTH 14 0
BBX 13 23 1 0
BITMAP
0100
0380
0700
0618
0618
0018
E078
E078
E070
E070
E070
E070
E070
E070
E070
E070
E070
6070
6060
6060
70E0
3FC0
1F80
ENDCHAR
STARTCHAR uni1EE9
ENCODING 7913
SWIDTH 600 0
DWIDTH 14 0
BBX 12 19 2 0
BITMAP
0600
0700
0E00
0C00
0C30
0030
0030
C0F0
C0F0
C0C0
C0C0
C0C0
C0C0
C0C0
C0C0
E1C0
E1C0
7EC0
3CC0
ENDCHAR
STARTCHAR uni1EEA
ENCODING 7914
SWIDTH 600 0
DWIDTH 14 0
BBX 13 23 1 0
BITMAP
0800
1C00
0C00
0618
0618
0018
E078
E078
E070
E070
E070
E070
E070
E070
E070
E070
E070
6070
6060
6060
70E0
3FC0
1F80
ENDCHAR
STARTCHAR uni1EEB
ENCODING 7915
SWIDTH 600 0
DWIDTH 14 0
BBX 12 19 2 0
BITMAP
1000
3800
1800
0C00
0C30
0030
0030
C0F0
C0F0
C0C0
C0C0
C0C0
C0C0
C0C0
C0C0
E1C0
E1C0
7EC0
3CC0
ENDCHAR
STARTCHAR uni1EEC
ENCODING 7916
SWIDTH 600 0
DWIDTH 14 0
BBX 13 23 1 0
BITMAP
0F00
0F80
0380
0318
0618
0018
E078
E078
E070
E070
E070
E070
E070
E070
E070
E070
E070
6070
6060
6060
70E0
3FC0
1F80
ENDCHAR
STARTCHAR uni1EED
ENCODING 7917
SWIDTH 600 0
DWIDTH 14 0
BBX 12 19 2 0
BITMAP
1E00
1F00
0600
0600
0C30
0030
0030
C0F0
C0F0
C0C0
C0C0
C0C0
C0C0
C0C0
C0C0
E1C0
E1C0
7EC0
3CC0
ENDCHAR
STARTCHAR uni1EEE
ENCODING 7918
SWIDTH 600 0
DWIDTH 14 0
BBX 13 22 1 0
BITMAP
1C80
3FC0
2398
0018
0018
E078
E078
E070
E070
E070
E070
E070
E070
E070
E070
E070
6070
6060
6060
70E0
3FC0
1F80
ENDCHAR
STARTCHAR uni1EEF
ENCODING 7919
SWIDTH 600 0
DWIDTH 14 0
BBX 12 17 2 0
BITMAP
3900
7F80
4730
0030
0030
C0F0
C0F0
C0C0
C0C0
C0C0
C0C0
C0C0
C0C0
E1C0
E1C0
7EC0
3CC0
ENDCHAR
STARTCHAR uni1EF0
ENCODING 7920
SWIDTH 600 0
DWIDTH 14 0
BBX 13 24 1 -4
BITMAP
0018
0018
0018
E078
E078
E070
E070
E070
E070
E070
E070
E070
E070
E070
6070
6060
6060
70E0
3FC0
1F80
0000
0700
0700
0700
ENDCHAR
STARTCHAR uni1EF1
ENCODING 7921
SWIDTH 600 0
DWIDTH 14 0
BBX 12 19 2 -4
BITMAP
0030
0030
0030
C0F0
C0F0
C0C0
C0C0
C0C0
C0C0
C0C0
C0C0
E1C0
E1C0
7EC0
3CC0
0000
0C00
0E00
0C00
ENDCHAR
STARTCHAR Ygrave
ENCODING 7922
SWIDTH 600 0
DWIDTH 14 0
BBX 14 23 0 0
BITMAP
0400
0E00
0600
0300
0300
0000
E01C
7038
7038
3870
3870
1CE0
1CE0
0FC0
0780
0780
0300
0300
0300
0300
0300
0300
0300
ENDCHAR
STARTCHAR ygrave
ENCODING 7923
SWIDTH 600 0
DWIDTH 14 0
BBX 12 24 1 -5
BITMAP
0C00
1C00
0E00
0600
0600
0000
0000
E070
E070
6060
70E0
30C0
38C0
39C0
1980
1F80
0F00
0F00
0F00
0600
0E00
0C00
7C00
7800
ENDCHAR
STARTCHAR uni1EF4
ENCODING 7924
SWIDTH 600 0
DWIDTH 14 0
BBX 14 21 0 -4
BITMAP
E01C
7038
7038
3870
3870
1CE0
1CE0
0FC0
0780
0780
0300
0300
0300
0300
0300
0300
0300
0000
0380
0380
0380
ENDCHAR
STARTCHAR uni1EF5
ENCODING 7925
SWIDTH 600 0
DWIDTH 14 0
BBX 12 17 1 -5
BITMAP
E070
E070
6060
70E0
30C0
38C0
39C0
1980
1F80
0F00
0F00
0F00
0600
0E70
0C70
7C70
7800
ENDCHAR
STARTCHAR uni1EF6
ENCODING 7926
SWIDTH 600 0
DWIDTH 14 0
BBX 14 23 0 0
BITMAP
0780
07C0
01C0
0180
0300
0000
E01C
7038
7038
3870
3870
1CE0
1CE0
0FC0
0780
0780
0300
0300
0300
0300
0300
0300
0300
ENDCHAR
STARTCHAR uni1EF7
ENCODING 7927
SWIDTH 600 0
DWIDTH 14 0
BBX 12 24 1 -5
BITMAP
0F00
0F80
0380
0300
0600
0000
0000
E070
E070
6060
70E0
30C0
38C0
39C0
1980
1F80
0F00
0F00
0F00
0600
0E00
0C00
7C00
7800
ENDCHAR
STARTCHAR uni1EF8
ENCODING 7928
SWIDTH 600 0
DWIDTH 14 0
BBX 14 22 0 0
BITMAP
0E20
1FE0
11C0
0000
0000
E01C
7038
7038
3870
3870
1CE0
1CE0
0FC0
0780
0780
0300
0300
0300
0300
0300
0300
0300
ENDCHAR
STARTCHAR uni1EF9
ENCODING 7929
SWIDTH 600 0
DWIDTH 14 0
BBX 12 22 1 -5
BITMAP
1C40
3FC0
2380
0000
0000
E070
E070
6060
70E0
30C0
38C0
39C0
1980
1F80
0F00
0F00
0F00
0600
0E00
0C00
7C00
7800
ENDCHAR
STARTCHAR endash
ENCODING 8211
SWIDTH 600 0
DWIDTH 14 0
BBX 12 2 1 6
BITMAP
FFF0
FFF0
ENDCHAR
STARTCHAR emdash
ENCODING 8212
SWIDTH 600 0
DWIDTH 14 0
BBX 14 2 0 6
BITMAP
FFFC
FFFC
ENDCHAR
STARTCHAR quoteleft
ENCODING 8216
SWIDTH 600 0
DWIDTH 14 0
BBX 5 7 4 11
BITMAP
18
18
38
38
70
70
F0
ENDCHAR
STARTCHAR quoteright
ENCODING 8217
SWIDTH 600 0
DWIDTH 14 0
BBX 5 7 5 11
BITMAP
78
70
70
E0
E0
E0
C0
ENDCHAR
STARTCHAR quotesinglbase
ENCODING 8218
SWIDTH 600 0
DWIDTH 14 0
BBX 5 7 4 -3
BITMAP
38
78
70
70
60
60
E0
ENDCHAR
STARTCHAR quotedblleft
ENCODING 8220
SWIDTH 600 0
DWIDTH 14 0
BBX 11 7 1 11
BITMAP
1860
1860
38E0
38E0
71C0
71C0
F3C0
ENDCHAR
STARTCHAR quotedblright
ENCODING 8221
SWIDTH 600 0
DWIDTH 14 0
BBX 11 7 2 11
BITMAP
79E0
71C0
71C0
7180
E380
E380
C300
ENDCHAR
STARTCHAR quotedblbase
ENCODING 8222
SWIDTH 600 0
DWIDTH 14 0
BBX 11 7 2 -3
BITMAP
79E0
71C0
71C0
E380
E380
E300
C300
ENDCHAR
STARTCHAR dagger
ENCODING 8224
SWIDTH 600 0
DWIDTH 14 0
BBX 12 23 1 -5
BITMAP
0600
0600
0600
0600
0600
0600
FFF0
FFF0
0600
0600
0600
0600
0600
0600
0600
0600
0600
0600
0600
0600
0600
0600
0600
ENDCHAR
STARTCHAR daggerdbl
ENCODING 8225
SWIDTH 600 0
DWIDTH 14 0
BBX 12 23 1 -5
BITMAP
0600
0600
0600
0600
0600
0600
FFF0
FFF0
0600
0600
0600
0600
0600
0600
0600
0600
FFF0
FFF0
0600
0600
0600
0600
0600
ENDCHAR
STARTCHAR bullet
ENCODING 8226
SWIDTH 600 0
DWIDTH 14 0
BBX 6 6 4 4
BITMAP
78
FC
FC
FC
FC
78
ENDCHAR
STARTCHAR ellipsis
ENCODING 8230
SWIDTH 600 0
DWIDTH 14 0
BBX 12 3 1 0
BITMAP
E670
EF70
E670
ENDCHAR
STARTCHAR perthousand
ENCODING 8240
SWIDTH 600 0
DWIDTH 14 0
BBX 14 17 0 0
BITMAP
7800
FC00
CE00
C600
CE00
FC10
78E8
0780
1C00
6000
0E78
1FFC
39CC
318C
39CC
1FFC
0E78
ENDCHAR
STARTCHAR guilsinglleft
ENCODING 8249
SWIDTH 600 0
DWIDTH 14 0
BBX 6 11 4 1
BITMAP
08
18
3C
70
E0
C0
E0
70
38
1C
08
ENDCHAR
STARTCHAR guilsinglright
ENCODING 8250
SWIDTH 600 0
DWIDTH 14 0
BBX 6 11 4 1
BITMAP
40
60
F0
38
1C
0C
1C
38
70
E0
40
ENDCHAR
STARTCHAR fraction
ENCODING 8260
SWIDTH 600 0
DWIDTH 14 0
BBX 14 17 0 0
BITMAP
000C
0018
0038
0030
0060
0060
00C0
0000
0000
0000
0C00
1800
1800
3000
7000
6000
C000
ENDCHAR
STARTCHAR uni2070
ENCODING 8304
SWIDTH 600 0
DWIDTH 14 0
BBX 8 9 3 8
BITMAP
3C
7E
66
C3
DB
C3
66
7E
3C
ENDCHAR
STARTCHAR uni2074
ENCODING 8308
SWIDTH 600 0
DWIDTH 14 0
BBX 8 9 3 8
BITMAP
0C
1C
34
64
44
FF
FF
04
04
ENDCHAR
STARTCHAR uni2075
ENCODING 8309
SWIDTH 600 0
DWIDTH 14 0
BBX 7 9 3 8
BITMAP
7E
7E
60
7C
06
46
66
FE
3C
ENDCHAR
STARTCHAR uni2076
ENCODING 8310
SWIDTH 600 0
DWIDTH 14 0
BBX 7 9 4 8
BITMAP
3C
70
E0
F8
CC
C6
CE
FC
78
ENDCHAR
STARTCHAR uni2077
ENCODING 8311
SWIDTH 600 0
DWIDTH 14 0
BBX 6 9 4 8
BITMAP
FC
FC
8C
8C
18
18
30
30
60
ENDCHAR
STARTCHAR uni2078
ENCODING 8312
SWIDTH 600 0
DWIDTH 14 0
BBX 8 9 3 8
BITMAP
3C
7E
66
3C
66
C2
E7
7E
3C
ENDCHAR
STARTCHAR uni2079
ENCODING 8313
SWIDTH 600 0
DWIDTH 14 0
BBX 7 9 3 8
BITMAP
3C
7E
E6
C2
66
3E
0E
1C
78
ENDCHAR
STARTCHAR uni2080
ENCODING 8320
SWIDTH 600 0
DWIDTH 14 0
BBX 8 9 3 0
BITMAP
3C
7E
66
C3
DB
C3
66
7E
3C
ENDCHAR
STARTCHAR uni2081
ENCODING 8321
SWIDTH 600 0
DWIDTH 14 0
BBX 7 9 4 0
BITMAP
78
F8
D8
18
18
18
18
FE
FE
ENDCHAR
STARTCHAR uni2082
ENCODING 8322
SWIDTH 600 0
DWIDTH 14 0
BBX 6 9 4 0
BITMAP
78
FC
CC
0C
1C
38
E0
FC
FC
ENDCHAR
STARTCHAR uni2083
ENCODING 8323
SWIDTH 600 0
DWIDTH 14 0
BBX 7 9 3 0
BITMAP
3C
7E
46
06
1C
06
46
FE
3C
ENDCHAR
STARTCHAR uni2084
ENCODING 8324
SWIDTH 600 0
DWIDTH 14 0
BBX 8 9 3 0
BITMAP
0C
1C
34
64
44
FF
FF
04
04
ENDCHAR
STARTCHAR uni2085
ENCODING 8325
SWIDTH 600 0
DWIDTH 14 0
BBX 7 9 3 0
BITMAP
7E
7E
60
7C
06
46
66
FE
3C
ENDCHAR
STARTCHAR uni2086
ENCODING 8326
SWIDTH 600 0
DWIDTH 14 0
BBX 7 9 4 0
BITMAP
3C
70
E0
F8
CC
C6
CE
FC
78
ENDCHAR
STARTCHAR uni2087
ENCODING 8327
SWIDTH 600 0
DWIDTH 14 0
BBX 6 9 4 0
BITMAP
FC
FC
8C
8C
18
18
30
30
60
ENDCHAR
STARTCHAR uni2088
ENCODING 8328
SWIDTH 600 0
DWIDTH 14 0
BBX 8 9 3 0
BITMAP
3C
7E
66
3C
66
C2
E7
7E
3C
ENDCHAR
STARTCHAR uni2089
ENCODING 8329
SWIDTH 600 0
DWIDTH 14 0
BBX 7 9 3 0
BITMAP
3C
7E
E6
C2
66
3E
0E
1C
78
ENDCHAR
STARTCHAR uni20A1
ENCODING 8353
SWIDTH 600 0
DWIDTH 14 0
BBX 12 21 1 -2
BITMAP
0680
0480
0F80
3FE0
3DE0
7DF0
6DC0
ED80
ED80
ED80
ED00
E900
E900
E900
6940
7B70
3BE0
3FE0
1F80
1B00
1B00
ENDCHAR
STARTCHAR uni20A4
ENCODING 8356
SWIDTH 600 0
DWIDTH 14 0
BBX 12 17 1 0
BITMAP
0FC0
3FE0
3870
7020
7000
7000
FF80
FF80
3800
3800
FF80
FF80
3800
7000
7000
7FF0
7FF0
ENDCHAR
STARTCHAR uni20A6
ENCODING 8358
SWIDTH 600 0
DWIDTH 14 0
BBX 14 17 0 0
BITMAP
3C30
3C30
3C30
3C30
3630
3630
F7FC
F3FC
3330
3330
FFBC
FFBC
31B0
31F0
30F0
30F0
30F0
ENDCHAR
STARTCHAR uni20A8
ENCODING 8360
SWIDTH 600 0
DWIDTH 14 0
BBX 13 17 1 0
BITMAP
FC00
FE00
C600
C600
C600
C678
C6F8
FEC0
F8C0
DCC0
DCE0
CC70
CE38
C618
C738
C7F0
C1E0
ENDCHAR
STARTCHAR uni20A9
ENCODING 8361
SWIDTH 600 0
DWIDTH 14 0
BBX 14 17 0 0
BITMAP
7038
7038
7038
3038
3030
FFFC
FFFC
37B0
37B0
F4BC
F4BC
34B0
34F0
3CF0
3CF0
3CF0
3CF0
ENDCHAR
STARTCHAR uni20AA
ENCODING 8362
SWIDTH 600 0
DWIDTH 14 0
BBX 12 17 1 0
BITMAP
FC30
FF30
C330
C1B0
D9B0
D9B0
D9B0
D9B0
D9B0
D9B0
D9B0
D9B0
D9B0
D830
D870
DFE0
DFC0
ENDCHAR
STARTCHAR uni20AB
ENCODING 8363
SWIDTH 600 0
DWIDTH 14 0
BBX 11 18 2 0
BITMAP
01C0
0FE0
0FE0
01C0
3DC0
7FC0
E3C0
E1C0
C1C0
C1C0
C1C0
C1C0
E3C0
7FC0
3DC0
0000
FFC0
FFC0
ENDCHAR
STARTCHAR Euro
ENCODING 8364
SWIDTH 600 0
DWIDTH 14 0
BBX 12 17 1 0
BITMAP
0F80
3FE0
3870
7060
6000
E000
FF80
FF80
E000
E000
FF80
FF80
6000
7070
3870
3FE0
0F80
ENDCHAR
STARTCHAR uni20AD
ENCODING 8365
SWIDTH 600 0
DWIDTH 14 0
BBX 14 17 0 0
BITMAP
3838
3870
3870
38E0
39C0
39C0
3B80
FFF8
FFF8
3B80
39C0
39C0
38E0
3870
3870
3838
383C
ENDCHAR
STARTCHAR uni20AE
ENCODING 8366
SWIDTH 600 0
DWIDTH 14 0
BBX 14 17 0 0
BITMAP
FFFC
FFFC
0300
0300
0300
0330
03F0
03C0
0F00
3F30
33F0
03C0
0F00
3F00
3300
0300
0300
ENDCHAR
STARTCHAR uni20B1
ENCODING 8369
SWIDTH 600 0
DWIDTH 14 0
BBX 14 17 0 0
BITMAP
3FC0
3FE0
3070
3070
FFFC
FFFC
3030
FFFC
FFFC
3070
3070
3FE0
3FC0
3000
3000
3000
3000
ENDCHAR
STARTCHAR uni20B2
ENCODING 8370
SWIDTH 600 0
DWIDTH 14 0
BBX 12 21 1 -2
BITMAP
0180
0180
0F80
3FC0
73E0
6360
E350
E200
E600
E600
E7F0
E7F0
E670
E470
EC60
6C60
7CE0
3FC0
0F80
0C00
1800
ENDCHAR
STARTCHAR uni20B4
ENCODING 8372
SWIDTH 600 0
DWIDTH 14 0
BBX 14 17 0 0
BITMAP
0F80
1FE0
3860
0070
0070
FFFC
FFFC
0380
0700
FFFC
FFFC
3800
3800
3820
1C70
1FF0
07C0
ENDCHAR
STARTCHAR uni20B5
ENCODING 8373
SWIDTH 600 0
DWIDTH 14 0
BBX 12 21 1 -2
BITMAP
0180
0180
0F80
3FC0
3BE0
7370
6340
E300
E200
E600
E600
E600
E600
E600
6420
7C70
3CE0
3FE0
0F80
0C00
1C00
ENDCHAR
STARTCHAR uni20B8
ENCODING 8376
SWIDTH 600 0
DWIDTH 14 0
BBX 12 17 1 0
BITMAP
FFF0
FFF0
0000
0000
FFF0
FFF0
0600
0600
0600
0600
0600
0600
0600
0600
0600
0600
0600
ENDCHAR
STARTCHAR uni20B9
ENCODING 8377
SWIDTH 600 0
DWIDTH 14 0
BBX 12 17 1 0
BITMAP
FFF0
FFF0
0300
0380
FFF0
FFF0
0180
0380
0780
FF00
FC00
1E00
0E00
0700
0380
01C0
00E0
ENDCHAR
STARTCHAR uni20BA
ENCODING 8378
SWIDTH 600 0
DWIDTH 14 0
BBX 12 17 1 0
BITMAP
3800
3800
3880
3B80
3F00
3C00
7880
FB80
BF00
3C00
7830
F830
B870
3870
38E0
3FC0
3F80
ENDCHAR
STARTCHAR uni20BD
ENCODING 8381
SWIDTH 600 0
DWIDTH 14 0
BBX 12 17 1 0
BITMAP
7FC0
7FE0
7070
7070
7070
7070
7070
FFE0
FFC0
7000
7000
FF80
FF80
7000
7000
7000
7000
ENDCHAR
STARTCHAR uni20BF
ENCODING 8383
SWIDTH 600 0
DWIDTH 14 0
BBX 11 23 2 -3
BITMAP
3600
3600
3600
FF80
FFC0
C1C0
C0C0
C0C0
C0C0
C1C0
FF00
FF80
C1C0
C0E0
C0E0
C0E0
C0E0
C1C0
FFC0
FF80
3600
3600
3600
ENDCHAR
STARTCHAR uni2113
ENCODING 8467
SWIDTH 600 0
DWIDTH 14 0
BBX 11 18 1 0
BITMAP
0F00
1F80
19C0
38C0
38C0
39C0
39C0
3980
3B80
3F00
3E00
3C00
F800
7840
3860
18E0
1FC0
0F80
ENDCHAR
STARTCHAR uni2116
ENCODING 8470
SWIDTH 600 0
DWIDTH 14 0
BBX 13 17 1 0
BITMAP
E670
E6D8
A698
A698
B698
B698
B698
B6D0
B670
B600
B6F8
9600
9E00
9E00
9E00
9E00
9E00
ENDCHAR
STARTCHAR trademark
ENCODING 8482
SWIDTH 600 0
DWIDTH 14 0
BBX 13 7 0 10
BITMAP
FF18
33B8
33A8
3368
3358
3358
3318
ENDCHAR
STARTCHAR Omega
ENCODING 8486
SWIDTH 600 0
DWIDTH 14 0
BBX 12 17 1 0
BITMAP
1F80
3FC0
70E0
6060
E070
E070
E070
E070
E070
E070
E070
6060
70E0
39C0
1980
F9F0
F9F0
ENDCHAR
STARTCHAR uni212E
ENCODING 8494
SWIDTH 600 0
DWIDTH 14 0
BBX 14 17 0 0
BITMAP
0780
1860
3030
3030
7038
7038
7038
F03C
FFFC
F000
7000
7000
7000
3018
3010
1860
0780
ENDCHAR
STARTCHAR uni2150
ENCODING 8528
SWIDTH 600 0
DWIDTH 14 0
BBX 14 17 0 0
BITMAP
380C
D818
1838
1830
1860
1860
18C0
7E00
0000
00FC
0C8C
1898
1818
3030
7030
6020
C060
ENDCHAR
STARTCHAR uni2151
ENCODING 8529
SWIDTH 600 0
DWIDTH 14 0
BBX 14 17 0 0
BITMAP
380C
D818
1838
1830
1860
1860
18C0
7E00
0000
0070
0C88
198C
188C
30FC
7018
6030
C0E0
ENDCHAR
STARTCHAR uni2153
ENCODING 8531
SWIDTH 600 0
DWIDTH 14 0
BBX 14 17 0 0
BITMAP
380C
D818
1838
1830
1860
1860
18C0
7E00
0000
00F0
0C98
180C
1818
3070
700C
608C
C1F8
ENDCHAR
STARTCHAR uni2154
ENCODING 8532
SWIDTH 600 0
DWIDTH 14 0
BBX 14 17 0 0
BITMAP
780C
CC18
0C38
0C30
1860
3060
60C0
FC00
0000
00F0
0C98
180C
1818
3070
700C
608C
C1F8
ENDCHAR
STARTCHAR uni2155
ENCODING 8533
SWIDTH 600 0
DWIDTH 14 0
BBX 14 17 0 0
BITMAP
380C
D818
1838
1830
1860
1860
18C0
7E00
0000
00F8
0C80
1880
18B8
30CC
700C
608C
C078
ENDCHAR
STARTCHAR uni2156
ENCODING 8534
SWIDTH 600 0
DWIDTH 14 0
BBX 14 17 0 0
BITMAP
780C
CC18
0C38
0C30
1860
3060
60C0
FC00
0000
00F8
0C80
1880
18B8
30CC
700C
608C
C078
ENDCHAR
STARTCHAR uni2157
ENCODING 8535
SWIDTH 600 0
DWIDTH 14 0
BBX 14 17 0 0
BITMAP
780C
CC18
0C38
0C30
3860
0C60
CCC0
7C00
0000
00F8
0C80
1880
18B8
30CC
700C
608C
C078
ENDCHAR
STARTCHAR uni2158
ENCODING 8536
SWIDTH 600 0
DWIDTH 14 0
BBX 14 17 0 0
BITMAP
1C0C
3C18
2C38
6C30
CC60
FE60
0CC0
0C00
0000
00F8
0C80
1880
18B8
30CC
700C
608C
C078
ENDCHAR
STARTCHAR uni2159
ENCODING 8537
SWIDTH 600 0
DWIDTH 14 0
BBX 14 17 0 0
BITMAP
380C
D818
1838
1830
1860
1860
18C0
7E00
0000
0038
0C60
18C0
18B8
31CC
718C
60CC
C078
ENDCHAR
STARTCHAR uni215A
ENCODING 8538
SWIDTH 600 0
DWIDTH 14 0
BBX 14 17 0 0
BITMAP
7C0C
4018
4038
5C30
6C60
0660
CCC0
7800
0000
0038
0C60
18C0
18B8
31CC
718C
60CC
C078
ENDCHAR
STARTCHAR uni215B
ENCODING 8539
SWIDTH 600 0
DWIDTH 14 0
BBX 14 17 0 0
BITMAP
380C
D818
1838
1830
1860
1860
18C0
7E00
0000
0078
0CC8
188C
18C8
3070
708C
618C
C0F8
ENDCHAR
STARTCHAR uni215C
ENCODING 8540
SWIDTH 600 0
DWIDTH 14 0
BBX 14 17 0 0
BITMAP
780C
CC18
0C38
0C30
3860
0C60
CCC0
7C00
0000
0078
0CC8
188C
18C8
3070
708C
618C
C0F8
ENDCHAR
STARTCHAR uni215D
ENCODING 8541
SWIDTH 600 0
DWIDTH 14 0
BBX 14 17 0 0
BITMAP
7C0C
4018
4038
5C30
6C60
0660
CCC0
7800
0000
0078
0CC8
188C
18C8
3070
708C
618C
C0F8
ENDCHAR
STARTCHAR uni215E
ENCODING 8542
SWIDTH 600 0
DWIDTH 14 0
BBX 14 17 0 0
BITMAP
FC0C
CC18
CC38
0C30
1860
1860
30C0
3000
0000
0078
0CC8
188C
18C8
3070
708C
618C
C0F8
ENDCHAR
STARTCHAR uni2190
ENCODING 8592
SWIDTH 600 0
DWIDTH 14 0
BBX 14 10 0 3
BITMAP
0400
0E00
1C00
3800
7FFC
FFFC
3800
1C00
0E00
0400
ENDCHAR
STARTCHAR uni2191
ENCODING 8593
SWIDTH 600 0
DWIDTH 14 0
BBX 10 17 2 0
BITMAP
0C00
1E00
3F00
7F80
EDC0
CCC0
8C80
0C00
0C00
0C00
0C00
0C00
0C00
0C00
0C00
0C00
0C00
ENDCHAR
STARTCHAR uni2192
ENCODING 8594
SWIDTH 600 0
DWIDTH 14 0
BBX 14 10 0 3
BITMAP
0080
01C0
00E0
0070
FFF8
FFFC
0070
00E0
01C0
0080
ENDCHAR
STARTCHAR uni2193
ENCODING 8595
SWIDTH 600 0
DWIDTH 14 0
BBX 10 17 2 0
BITMAP
0C00
0C00
0C00
0C00
0C00
0C00
0C00
0C00
0C00
0C00
8C80
CCC0
EDC0
7F80
3F00
1E00
0C00
ENDCHAR
STARTCHAR uni2194
ENCODING 8596
SWIDTH 600 0
DWIDTH 14 0
BBX 14 10 0 3
BITMAP
0840
1CE0
3870
7038
FFFC
FFFC
7038
3870
1CE0
0840
ENDCHAR
STARTCHAR uni2195
ENCODING 8597
SWIDTH 600 0
DWIDTH 14 0
BBX 10 17 2 0
BITMAP
0800
1E00
3F00
7F80
EDC0
CCC0
8C80
0C00
0C00
0C00
8C80
CCC0
EDC0
7F80
3F00
1E00
0800
ENDCHAR
STARTCHAR uni2196
ENCODING 8598
SWIDTH 600 0
DWIDTH 14 0
BBX 13 13 1 2
BITMAP
FF00
FF00
F000
F800
DC00
CE00
C700
0380
01C0
00E0
0070
0038
0020
ENDCHAR
STARTCHAR uni2197
ENCODING 8599
SWIDTH 600 0
DWIDTH 14 0
BBX 13 13 0 2
BITMAP
07F8
07F8
0078
00F8
01D8
0398
0718
0E00
1C00
3800
7000
E000
4000
ENDCHAR
STARTCHAR uni2198
ENCODING 8600
SWIDTH 600 0
DWIDTH 14 0
BBX 13 13 0 2
BITMAP
4000
6000
F000
3800
1C00
0E00
0718
0398
01D8
00F8
0078
07F8
07F8
ENDCHAR
STARTCHAR uni2199
ENCODING 8601
SWIDTH 600 0
DWIDTH 14 0
BBX 13 13 1 2
BITMAP
0020
0030
0078
00E0
01C0
0380
C700
CE00
DC00
F800
F000
FF00
FF00
ENDCHAR
STARTCHAR uni21A9
ENCODING 8617
SWIDTH 600 0
DWIDTH 14 0
BBX 14 13 0 2
BITMAP
0060
0078
003C
041C
0E0C
1C1C
381C
7FF8
FFE0
3800
1C00
0E00
0400
ENDCHAR
STARTCHAR uni21AA
ENCODING 8618
SWIDTH 600 0
DWIDTH 14 0
BBX 14 13 0 2
BITMAP
1800
7800
F000
E080
C1C0
E0E0
E070
7FF8
3FFC
0070
00E0
01C0
0080
ENDCHAR
STARTCHAR uni21B0
ENCODING 8624
SWIDTH 600 0
DWIDTH 14 0
BBX 12 16 1 0
BITMAP
0C00
1C00
3800
7000
FFF0
FFF0
7070
3870
1C70
0C70
0070
0070
0070
0070
0070
0070
ENDCHAR
STARTCHAR uni21B1
ENCODING 8625
SWIDTH 600 0
DWIDTH 14 0
BBX 12 16 1 0
BITMAP
0300
0380
01C0
00E0
FFF0
FFF0
E0E0
E1C0
E380
E300
E000
E000
E000
E000
E000
E000
ENDCHAR
STARTCHAR uni21B2
ENCODING 8626
SWIDTH 600 0
DWIDTH 14 0
BBX 12 17 1 0
BITMAP
0070
0070
0070
0070
0070
0070
0070
0C70
1C70
3870
7070
FFF0
FFF0
7000
3800
1C00
0C00
ENDCHAR
STARTCHAR uni21B3
ENCODING 8627
SWIDTH 600 0
DWIDTH 14 0
BBX 12 17 1 0
BITMAP
E000
E000
E000
E000
E000
E000
E000
E300
E380
E1C0
E0E0
FFF0
FFF0
00E0
01C0
0380
0300
ENDCHAR
STARTCHAR uni21B6
ENCODING 8630
SWIDTH 600 0
DWIDTH 14 0
BBX 14 15 0 1
BITMAP
01E0
07F8
0618
0E1C
0C0C
0C00
0C00
0C00
4C80
ECC0
7DE0
3F80
1F00
0E00
0400
ENDCHAR
STARTCHAR uni21B7
ENCODING 8631
SWIDTH 600 0
DWIDTH 14 0
BBX 14 15 0 1
BITMAP
1E00
7F80
6180
E1C0
C0C0
00C0
00C0
00C0
08C8
0CDC
1EF8
07F0
03E0
01C0
0080
ENDCHAR
STARTCHAR uni21BA
ENCODING 8634
SWIDTH 600 0
DWIDTH 14 0
BBX 14 17 0 0
BITMAP
03F8
03F8
03C0
1B60
3B30
7338
6318
6018
E01C
E01C
E01C
6018
6018
7038
3870
1FE0
0FC0
ENDCHAR
STARTCHAR uni21BB
ENCODING 8635
SWIDTH 600 0
DWIDTH 14 0
BBX 14 17 0 0
BITMAP
7F00
7F00
0F00
1B60
3370
7338
6318
6018
E01C
E01C
E01C
6018
6018
7038
3870
1FE0
0FC0
ENDCHAR
STARTCHAR uni21C4
ENCODING 8644
SWIDTH 600 0
DWIDTH 14 0
BBX 14 18 0 -1
BITMAP
0080
01C0
00E0
0070
FFF8
FFFC
0070
00E0
05C0
0E80
1C00
3800
7FFC
FFFC
3800
1C00
0E00
0400
ENDCHAR
STARTCHAR uni21C6
ENCODING 8646
SWIDTH 600 0
DWIDTH 14 0
BBX 14 18 0 -1
BITMAP
0400
0E00
1C00
3800
7FFC
FFFC
3800
1C00
0E80
05C0
00E0
0070
FFF8
FFFC
0070
00E0
01C0
0080
ENDCHAR
STARTCHAR partialdiff
ENCODING 8706
SWIDTH 600 0
DWIDTH 14 0
BBX 12 17 1 0
BITMAP
3E00
0F00
0780
03C0
01C0
1EE0
3F60
70F0
E070
E070
E070
E070
E070
6060
70E0
3FC0
1F80
ENDCHAR
STARTCHAR Delta
ENCODING 8710
SWIDTH 600 0
DWIDTH 14 0
BBX 12 17 1 0
BITMAP
0F00
0F00
1F80
1F80
1980
1980
39C0
39C0
30C0
70E0
70E0
60E0
E070
E070
E070
FFF0
FFF0
ENDCHAR
STARTCHAR product
ENCODING 8719
SWIDTH 600 0
DWIDTH 14 0
BBX 11 17 2 0
BITMAP
FFE0
FFE0
C0E0
C0E0
C0E0
C0E0
C0E0
C0E0
C0E0
C0E0
C0E0
C0E0
C0E0
C0E0
C0E0
C0E0
C0E0
ENDCHAR
STARTCHAR summation
ENCODING 8721
SWIDTH 600 0
DWIDTH 14 0
BBX 12 22 1 -5
BITMAP
FFF0
FFF0
F000
7000
3800
3C00
1C00
0E00
0700
0700
0380
0380
0700
0700
0E00
1C00
3C00
3800
7000
F000
FFF0
FFF0
ENDCHAR
STARTCHAR minus
ENCODING 8722
SWIDTH 600 0
DWIDTH 14 0
BBX 12 2 1 6
BITMAP
FFF0
FFF0
ENDCHAR
STARTCHAR radical
ENCODING 8730
SWIDTH 600 0
DWIDTH 14 0
BBX 14 17 0 0
BITMAP
001C
0018
0018
0038
0030
F030
F830
1870
1860
1C60
0CE0
0CC0
0CC0
0EC0
07C0
0780
0780
ENDCHAR
STARTCHAR infinity
ENCODING 8734
SWIDTH 600 0
DWIDTH 14 0
BBX 14 9 0 3
BITMAP
3870
7CF8
E69C
C30C
C30C
C50C
E59C
7CF8
3870
ENDCHAR
STARTCHAR integral
ENCODING 8747
SWIDTH 600 0
DWIDTH 14 0
BBX 12 23 1 -5
BITMAP
03F0
07F0
0E00
0E00
0E00
0E00
0E00
0E00
0E00
0E00
0E00
0E00
0E00
0E00
0E00
0E00
0E00
0E00
0E00
0E00
0E00
FE00
FC00
ENDCHAR
STARTCHAR approxequal
ENCODING 8776
SWIDTH 600 0
DWIDTH 14 0
BBX 12 10 1 2
BITMAP
3820
7E70
E7E0
41C0
0000
0000
3820
7E70
E7E0
41C0
ENDCHAR
STARTCHAR notequal
ENCODING 8800
SWIDTH 600 0
DWIDTH 14 0
BBX 12 11 1 2
BITMAP
00C0
0180
FFF0
FFF0
0700
0600
0E00
FFF0
FFF0
1800
3000
ENDCHAR
STARTCHAR lessequal
ENCODING 8804
SWIDTH 600 0
DWIDTH 14 0
BBX 10 14 2 0
BITMAP
00C0
03C0
0F80
7E00
F000
E000
F800
3F00
0FC0
01C0
0040
0000
FFC0
FFC0
ENDCHAR
STARTCHAR greaterequal
ENCODING 8805
SWIDTH 600 0
DWIDTH 14 0
BBX 10 14 2 0
BITMAP
C000
F000
7C00
1F80
03C0
01C0
07C0
3F00
FC00
E000
8000
0000
FFC0
FFC0
ENDCHAR
STARTCHAR lozenge
ENCODING 9674
SWIDTH 600 0
DWIDTH 14 0
BBX 12 17 1 0
BITMAP
0600
0F00
1F80
1980
39C0
30E0
6060
E070
C030
E070
6060
30E0
39C0
1980
1F80
0F00
0600
ENDCHAR
STARTCHAR uni2713
ENCODING 10003
SWIDTH 600 0
DWIDTH 14 0
BBX 14 17 0 0
BITMAP
0008
001C
0018
0038
0038
6030
E070
7060
70E0
30E0
38C0
19C0
1980
1F80
0F80
0F00
0F00
ENDCHAR
STARTCHAR uni274C
ENCODING 10060
SWIDTH 600 0
DWIDTH 14 0
BBX 12 17 1 0
BITMAP
4020
C030
E070
70E0
39C0
39C0
1F80
0F00
0F00
0F00
1F80
1980
39C0
70E0
E070
E070
4020
ENDCHAR
STARTCHAR uni2B0E
ENCODING 11022
SWIDTH 600 0
DWIDTH 14 0
BBX 14 12 0 2
BITMAP
FFC0
FFC0
01C0
01C0
01C0
09D0
1DD8
0FBC
07F0
03E0
01C0
0080
ENDCHAR
STARTCHAR uni2B0F
ENCODING 11023
SWIDTH 600 0
DWIDTH 14 0
BBX 14 12 0 3
BITMAP
0080
01C0
03E0
07F0
0FB8
1DDC
09D0
01C0
01C0
01C0
FFC0
FFC0
ENDCHAR
STARTCHAR uni2B10
ENCODING 11024
SWIDTH 600 0
DWIDTH 14 0
BBX 14 12 0 2
BITMAP
0FFC
0FFC
0E00
0E00
0E00
4E40
6EE0
F7C0
3F80
1F00
0E00
0400
ENDCHAR
STARTCHAR uni2B11
ENCODING 11025
SWIDTH 600 0
DWIDTH 14 0
BBX 14 12 0 3
BITMAP
0400
0E00
1F00
3F80
77C0
EEE0
4E40
0E00
0E00
0E00
0FFC
0FFC
ENDCHAR
STARTCHAR uniEBE7
ENCODING 60391
SWIDTH 600 0
DWIDTH 14 0
BBX 10 24 2 -5
BITMAP
1E00
2100
4900
3700
2D00
6D80
1200
0C00
0000
1E00
2E00
3100
FFC0
C0C0
DEC0
0C00
0000
7380
7380
3F00
1100
3F00
3F00
7380
ENDCHAR
STARTCHAR dieresisacute
ENCODING 63191
SWIDTH 0 0
DWIDTH 0 0
BBX 8 8 -4 14
BITMAP
04
0E
0C
18
18
E7
E7
E7
ENDCHAR
STARTCHAR dieresisgrave
ENCODING 63192
SWIDTH 0 0
DWIDTH 0 0
BBX 8 8 -4 14
BITMAP
20
70
30
18
18
E7
E7
E7
ENDCHAR
STARTCHAR fi
ENCODING 64257
SWIDTH 600 0
DWIDTH 14 0
BBX 12 18 1 0
BITMAP
3EE0
7EF0
70E0
7000
7000
7000
FFE0
FFE0
7060
7060
7060
7060
7060
7060
7060
7060
7060
7060
ENDCHAR
STARTCHAR fl
ENCODING 64258
SWIDTH 600 0
DWIDTH 14 0
BBX 11 18 1 0
BITMAP
3E60
7E60
7060
7060
7060
7060
FE60
FE60
7060
7060
7060
7060
7060
7060
7060
7060
7060
7060
ENDCHAR
STARTCHAR .notdef
ENCODING -1
SWIDTH 600 0
DWIDTH 14 0
BBX 13 19 1 0
BITMAP
FFF8
FFF8
C018
C018
C018
C018
C018
C018
C018
C018
C018
C018
C018
C018
C018
C018
C018
FFF8
FFF8
ENDCHAR
STARTCHAR a.alt01
ENCODING -1
SWIDTH 600 0
DWIDTH 14 0
BBX 11 12 1 0
BITMAP
1E60
7F60
70E0
E060
E060
E060
E060
E060
E060
70E0
7F60
1E60
ENDCHAR
STARTCHAR g.alt01
ENCODING -1
SWIDTH 600 0
DWIDTH 14 0
BBX 11 17 1 -5
BITMAP
1E60
7F60
70E0
E060
E060
E060
E060
E060
E060
70E0
7F60
1E60
0060
00E0
21E0
7FC0
1F00
ENDCHAR
STARTCHAR g.alt02
ENCODING -1
SWIDTH 600 0
DWIDTH 14 0
BBX 13 17 1 -5
BITMAP
1FF0
3FF0
70E0
60E0
60E0
70E0
3FC0
1F80
2000
6000
7FE0
3FF0
6030
E038
E070
7FF0
3FC0
ENDCHAR
STARTCHAR zero.alt01
ENCODING -1
SWIDTH 600 0
DWIDTH 14 0
BBX 12 17 1 0
BITMAP
1F80
3FC0
70E0
6060
E070
E0F0
E1F0
E370
E670
EC70
F870
F070
E070
6060
70E0
3FC0
1F80
ENDCHAR
STARTCHAR zero.alt02
ENCODING -1
SWIDTH 600 0
DWIDTH 14 0
BBX 12 17 1 0
BITMAP
1F80
3FC0
70E0
6060
E070
E070
E070
E070
E070
E070
E070
E070
E070
6060
70E0
3FC0
1F80
ENDCHAR
STARTCHAR aacute.alt01
ENCODING -1
SWIDTH 600 0
DWIDTH 14 0
BBX 11 19 1 0
BITMAP
0300
0380
0700
0600
0C00
0000
0000
1E60
7F60
70E0
E060
E060
E060
E060
E060
E060
70E0
7F60
1E60
ENDCHAR
STARTCHAR abreve.alt01
ENCODING -1
SWIDTH 600 0
DWIDTH 14 0
BBX 11 19 1 0
BITMAP
2080
30C0
3980
1F80
0F00
0000
0000
1E60
7F60
70E0
E060
E060
E060
E060
E060
E060
70E0
7F60
1E60
ENDCHAR
STARTCHAR acircumflex.alt01
ENCODING -1
SWIDTH 600 0
DWIDTH 14 0
BBX 11 19 1 0
BITMAP
0E00
1F00
1B80
31C0
2080
0000
0000
1E60
7F60
70E0
E060
E060
E060
E060
E060
E060
70E0
7F60
1E60
ENDCHAR
STARTCHAR adieresis.alt01
ENCODING -1
SWIDTH 600 0
DWIDTH 14 0
BBX 11 18 1 0
BITMAP
39C0
39C0
39C0
0000
0000
0000
1E60
7F60
70E0
E060
E060
E060
E060
E060
E060
70E0
7F60
1E60
ENDCHAR
STARTCHAR uni1EA1.alt01
ENCODING -1
SWIDTH 600 0
DWIDTH 14 0
BBX 11 16 1 -4
BITMAP
1E60
7F60
70E0
E060
E060
E060
E060
E060
E060
70E0
7F60
1E60
0000
0600
0F00
0600
ENDCHAR
STARTCHAR agrave.alt01
ENCODING -1
SWIDTH 600 0
DWIDTH 14 0
BBX 11 19 1 0
BITMAP
0800
1C00
0C00
0E00
0600
0000
0000
1E60
7F60
70E0
E060
E060
E060
E060
E060
E060
70E0
7F60
1E60
ENDCHAR
STARTCHAR uni1EA3.alt01
ENCODING -1
SWIDTH 600 0
DWIDTH 14 0
BBX 11 19 1 0
BITMAP
0F00
0F00
0300
0300
0600
0000
0000
1E60
7F60
70E0
E060
E060
E060
E060
E060
E060
70E0
7F60
1E60
ENDCHAR
STARTCHAR amacron.alt01
ENCODING -1
SWIDTH 600 0
DWIDTH 14 0
BBX 11 17 1 0
BITMAP
3F80
3F80
0000
0000
0000
1E60
7F60
70E0
E060
E060
E060
E060
E060
E060
70E0
7F60
1E60
ENDCHAR
STARTCHAR aogonek.alt01
ENCODING -1
SWIDTH 600 0
DWIDTH 14 0
BBX 12 17 1 -5
BITMAP
1E60
7F60
70E0
E060
E060
E060
E060
E060
E060
70E0
7F60
1E60
0040
0180
01A0
01F0
01E0
ENDCHAR
STARTCHAR aring.alt01
ENCODING -1
SWIDTH 600 0
DWIDTH 14 0
BBX 11 21 1 0
BITMAP
0E00
1F00
1980
1180
1980
1F00
0E00
0000
0000
1E60
7F60
70E0
E060
E060
E060
E060
E060
E060
70E0
7F60
1E60
ENDCHAR
STARTCHAR aringacute.alt01
ENCODING -1
SWIDTH 600 0
DWIDTH 14 0
BBX 11 24 1 0
BITMAP
0200
0380
0700
0400
0000
0F00
1F80
1180
1180
1F80
0F00
0000
1E60
7F60
70E0
E060
E060
E060
E060
E060
E060
70E0
7F60
1E60
ENDCHAR
STARTCHAR atilde.alt01
ENCODING -1
SWIDTH 600 0
DWIDTH 14 0
BBX 11 17 1 0
BITMAP
3C80
3FC0
2380
0000
0000
1E60
7F60
70E0
E060
E060
E060
E060
E060
E060
70E0
7F60
1E60
ENDCHAR
STARTCHAR uni1EAF.alt01
ENCODING -1
SWIDTH 600 0
DWIDTH 14 0
BBX 11 22 1 0
BITMAP
0100
0380
0300
0600
36C0
31C0
1F80
0F00
0000
0000
1E60
7F60
70E0
E060
E060
E060
E060
E060
E060
70E0
7F60
1E60
ENDCHAR
STARTCHAR uni1EB7.alt01
ENCODING -1
SWIDTH 600 0
DWIDTH 14 0
BBX 11 23 1 -4
BITMAP
2080
30C0
3980
1F80
0F00
0000
0000
1E60
7F60
70E0
E060
E060
E060
E060
E060
E060
70E0
7F60
1E60
0000
0600
0F00
0600
ENDCHAR
STARTCHAR uni1EB1.alt01
ENCODING -1
SWIDTH 600 0
DWIDTH 14 0
BBX 11 22 1 0
BITMAP
0800
1C00
0C00
0600
36C0
31C0
1F80
0F00
0000
0000
1E60
7F60
70E0
E060
E060
E060
E060
E060
E060
70E0
7F60
1E60
ENDCHAR
STARTCHAR uni1EB3.alt01
ENCODING -1
SWIDTH 600 0
DWIDTH 14 0
BBX 11 22 1 0
BITMAP
1F00
1F00
0300
0600
36C0
31C0
1F80
0F00
0000
0000
1E60
7F60
70E0
E060
E060
E060
E060
E060
E060
70E0
7F60
1E60
ENDCHAR
STARTCHAR uni1EB5.alt01
ENCODING -1
SWIDTH 600 0
DWIDTH 14 0
BBX 11 22 1 0
BITMAP
1C80
3FC0
2380
0000
20C0
31C0
3F80
0F00
0000
0000
1E60
7F60
70E0
E060
E060
E060
E060
E060
E060
70E0
7F60
1E60
ENDCHAR
STARTCHAR uni1EA5.alt01
ENCODING -1
SWIDTH 600 0
DWIDTH 14 0
BBX 13 22 1 0
BITMAP
0030
0038
0070
0E60
0FC0
1B80
31C0
3080
0000
0000
1E60
7F60
70E0
E060
E060
E060
E060
E060
E060
70E0
7F60
1E60
ENDCHAR
STARTCHAR uni1EAD.alt01
ENCODING -1
SWIDTH 600 0
DWIDTH 14 0
BBX 11 23 1 -4
BITMAP
0E00
1F00
1B80
31C0
2080
0000
0000
1E60
7F60
70E0
E060
E060
E060
E060
E060
E060
70E0
7F60
1E60
0000
0600
0F00
0600
ENDCHAR
STARTCHAR uni1EA7.alt01
ENCODING -1
SWIDTH 600 0
DWIDTH 14 0
BBX 12 22 0 0
BITMAP
6000
E000
7000
3700
1F80
0DC0
18E0
1840
0000
0000
0F30
3FB0
3870
7030
7030
7030
7030
7030
7030
3870
3FB0
0F30
ENDCHAR
STARTCHAR uni1EA9.alt01
ENCODING -1
SWIDTH 600 0
DWIDTH 14 0
BBX 12 23 1 0
BITMAP
01E0
01F0
0030
0060
0E40
0F00
1B80
31C0
3080
0000
0000
1E60
7F60
70E0
E060
E060
E060
E060
E060
E060
70E0
7F60
1E60
ENDCHAR
STARTCHAR uni1EAB.alt01
ENCODING -1
SWIDTH 600 0
DWIDTH 14 0
BBX 11 22 1 0
BITMAP
1C40
3FC0
2380
0000
0F00
1F80
39C0
3080
0000
0000
1E60
7F60
70E0
E060
E060
E060
E060
E060
E060
70E0
7F60
1E60
ENDCHAR
STARTCHAR gbreve.alt01
ENCODING -1
SWIDTH 600 0
DWIDTH 14 0
BBX 11 24 1 -5
BITMAP
2080
30C0
3980
1F80
0F00
0000
0000
1E60
7F60
70E0
E060
E060
E060
E060
E060
E060
70E0
7F60
1E60
0060
00E0
21E0
7FC0
1F00
ENDCHAR
STARTCHAR gcircumflex.alt01
ENCODING -1
SWIDTH 600 0
DWIDTH 14 0
BBX 11 24 1 -5
BITMAP
0E00
1F00
1B80
31C0
2080
0000
0000
1E60
7F60
70E0
E060
E060
E060
E060
E060
E060
70E0
7F60
1E60
0060
00E0
21E0
7FC0
1F00
ENDCHAR
STARTCHAR gcommaaccent.alt01
ENCODING -1
SWIDTH 600 0
DWIDTH 14 0
BBX 11 24 1 -5
BITMAP
0300
0300
0700
0600
0E00
0000
0000
1E60
7F60
70E0
E060
E060
E060
E060
E060
E060
70E0
7F60
1E60
0060
00E0
21E0
7FC0
1F00
ENDCHAR
STARTCHAR gdotaccent.alt01
ENCODING -1
SWIDTH 600 0
DWIDTH 14 0
BBX 11 22 1 -5
BITMAP
0E00
0F00
0E00
0000
0000
1E60
7F60
70E0
E060
E060
E060
E060
E060
E060
70E0
7F60
1E60
0060
00E0
21E0
7FC0
1F00
ENDCHAR
STARTCHAR germandbls.alt01
ENCODING -1
SWIDTH 600 0
DWIDTH 14 0
BBX 14 18 0 0
BITMAP
0780
1FE0
3860
3870
3030
3030
F0F0
F1F0
3380
3300
33C0
31F0
30F8
301C
301C
331C
37F8
31F0
ENDCHAR
STARTCHAR uni0430.alt01
ENCODING -1
SWIDTH 600 0
DWIDTH 14 0
BBX 11 12 1 0
BITMAP
1E60
7F60
70E0
E060
E060
E060
E060
E060
E060
70E0
7F60
1E60
ENDCHAR
STARTCHAR uni04D3.alt01
ENCODING -1
SWIDTH 600 0
DWIDTH 14 0
BBX 11 18 1 0
BITMAP
39C0
39C0
39C0
0000
0000
0000
1E60
7F60
70E0
E060
E060
E060
E060
E060
E060
70E0
7F60
1E60
ENDCHAR
STARTCHAR uni04D1.alt01
ENCODING -1
SWIDTH 600 0
DWIDTH 14 0
BBX 11 19 1 0
BITMAP
1100
71C0
3180
1F80
0F00
0000
0000
1E60
7F60
70E0
E060
E060
E060
E060
E060
E060
70E0
7F60
1E60
ENDCHAR
STARTCHAR zero.numr
ENCODING -1
SWIDTH 600 0
DWIDTH 14 0
BBX 6 8 4 9
BITMAP
78
CC
CC
CC
FC
CC
CC
78
ENDCHAR
STARTCHAR one.numr
ENCODING -1
SWIDTH 600 0
DWIDTH 14 0
BBX 6 8 4 9
BITMAP
70
F0
30
30
30
30
30
FC
ENDCHAR
STARTCHAR two.numr
ENCODING -1
SWIDTH 600 0
DWIDTH 14 0
BBX 6 8 4 9
BITMAP
78
CC
0C
08
18
20
C0
FC
ENDCHAR
STARTCHAR three.numr
ENCODING -1
SWIDTH 600 0
DWIDTH 14 0
BBX 6 8 4 9
BITMAP
78
CC
0C
0C
30
0C
CC
78
ENDCHAR
STARTCHAR four.numr
ENCODING -1
SWIDTH 600 0
DWIDTH 14 0
BBX 6 8 4 9
BITMAP
18
38
78
58
98
FC
18
18
ENDCHAR
STARTCHAR five.numr
ENCODING -1
SWIDTH 600 0
DWIDTH 14 0
BBX 6 8 4 9
BITMAP
FC
C0
C0
F8
CC
0C
CC
78
ENDCHAR
STARTCHAR six.numr
ENCODING -1
SWIDTH 600 0
DWIDTH 14 0
BBX 6 8 4 9
BITMAP
38
60
C0
F8
CC
CC
CC
78
ENDCHAR
STARTCHAR seven.numr
ENCODING -1
SWIDTH 600 0
DWIDTH 14 0
BBX 6 8 4 9
BITMAP
FC
CC
CC
18
18
30
30
60
ENDCHAR
STARTCHAR eight.numr
ENCODING -1
SWIDTH 600 0
DWIDTH 14 0
BBX 6 8 4 9
BITMAP
78
CC
CC
30
CC
CC
CC
78
ENDCHAR
STARTCHAR nine.numr
ENCODING -1
SWIDTH 600 0
DWIDTH 14 0
BBX 6 8 4 9
BITMAP
78
CC
CC
CC
7C
0C
18
70
ENDCHAR
STARTCHAR zero.dnom
ENCODING -1
SWIDTH 600 0
DWIDTH 14 0
BBX 6 8 4 0
BITMAP
78
CC
CC
CC
FC
CC
CC
78
ENDCHAR
STARTCHAR one.dnom
ENCODING -1
SWIDTH 600 0
DWIDTH 14 0
BBX 6 8 4 0
BITMAP
70
F0
30
30
30
30
30
FC
ENDCHAR
STARTCHAR two.dnom
ENCODING -1
SWIDTH 600 0
DWIDTH 14 0
BBX 6 8 4 0
BITMAP
78
CC
0C
08
18
20
C0
FC
ENDCHAR
STARTCHAR three.dnom
ENCODING -1
SWIDTH 600 0
DWIDTH 14 0
BBX 6 8 4 0
BITMAP
78
CC
0C
0C
30
0C
CC
78
ENDCHAR
STARTCHAR four.dnom
ENCODING -1
SWIDTH 600 0
DWIDTH 14 0
BBX 6 8 4 0
BITMAP
18
38
78
58
98
FC
18
18
ENDCHAR
STARTCHAR five.dnom
ENCODING -1
SWIDTH 600 0
DWIDTH 14 0
BBX 6 8 4 0
BITMAP
FC
C0
C0
F8
CC
0C
CC
78
ENDCHAR
STARTCHAR six.dnom
ENCODING -1
SWIDTH 600 0
DWIDTH 14 0
BBX 6 8 4 0
BITMAP
38
60
C0
F8
CC
CC
CC
78
ENDCHAR
STARTCHAR seven.dnom
ENCODING -1
SWIDTH 600 0
DWIDTH 14 0
BBX 6 8 4 0
BITMAP
FC
CC
CC
18
18
30
30
60
ENDCHAR
STARTCHAR eight.dnom
ENCODING -1
SWIDTH 600 0
DWIDTH 14 0
BBX 6 8 4 0
BITMAP
78
CC
CC
CC
78
CC
CC
78
ENDCHAR
STARTCHAR nine.dnom
ENCODING -1
SWIDTH 600 0
DWIDTH 14 0
BBX 6 8 4 0
BITMAP
78
CC
CC
CC
7C
0C
18
70
ENDCHAR
STARTCHAR tilde.alt01
ENCODING -1
SWIDTH 600 0
DWIDTH 14 0
BBX 8 3 3 14
BITMAP
72
FF
4E
ENDCHAR
STARTCHAR breve.cyrl
ENCODING -1
SWIDTH 600 0
DWIDTH 14 0
BBX 8 5 3 14
BITMAP
42
C3
E7
7E
3C
ENDCHAR
STARTCHAR ringacute
ENCODING -1
SWIDTH 600 0
DWIDTH 14 0
BBX 6 11 4 13
BITMAP
08
1C
38
30
00
78
FC
CC
CC
FC
78
ENDCHAR
STARTCHAR breveacute
ENCODING -1
SWIDTH 0 0
DWIDTH 0 0
BBX 8 8 -4 14
BITMAP
04
0E
0C
18
DB
E7
7E
3C
ENDCHAR
STARTCHAR brevegrave
ENCODING -1
SWIDTH 0 0
DWIDTH 0 0
BBX 8 8 -4 14
BITMAP
20
70
30
18
DB
E7
7E
3C
ENDCHAR
STARTCHAR brevehook
ENCODING -1
SWIDTH 0 0
DWIDTH 0 0
BBX 8 8 -4 14
BITMAP
7C
7C
0C
18
DB
E7
7E
3C
ENDCHAR
STARTCHAR brevetilde
ENCODING -1
SWIDTH 0 0
DWIDTH 0 0
BBX 8 8 -4 14
BITMAP
72
FF
8E
00
81
C3
7E
3C
ENDCHAR
STARTCHAR dieresiscaron
ENCODING -1
SWIDTH 0 0
DWIDTH 0 0
BBX 8 9 -4 14
BITMAP
82
C3
66
3C
3C
00
E7
E7
E7
ENDCHAR
STARTCHAR circumflexacute
ENCODING -1
SWIDTH 0 0
DWIDTH 0 0
BBX 11 8 -4 14
BITMAP
00C0
00E0
01C0
3D80
3F00
7E00
E700
4200
ENDCHAR
STARTCHAR circumflexbreve
ENCODING -1
SWIDTH 0 0
DWIDTH 0 0
BBX 8 9 -4 14
BITMAP
C3
C3
7E
3C
00
3C
7E
E7
42
ENDCHAR
STARTCHAR circumflexgrave
ENCODING -1
SWIDTH 0 0
DWIDTH 0 0
BBX 11 8 -7 14
BITMAP
6000
E000
7000
3780
1F80
0FC0
1CE0
0840
ENDCHAR
STARTCHAR circumflexhook
ENCODING -1
SWIDTH 0 0
DWIDTH 0 0
BBX 10 9 -4 14
BITMAP
07C0
07C0
00C0
0180
3D00
3C00
7E00
E700
4200
ENDCHAR
STARTCHAR dieresismacron
ENCODING -1
SWIDTH 0 0
DWIDTH 0 0
BBX 8 6 -4 14
BITMAP
7E
7E
00
E7
E7
E7
ENDCHAR
STARTCHAR circumflextilde
ENCODING -1
SWIDTH 0 0
DWIDTH 0 0
BBX 8 8 -4 14
BITMAP
71
FF
8E
00
3C
7E
E7
C3
ENDCHAR
STARTCHAR tilde.case
ENCODING -1
SWIDTH 600 0
DWIDTH 14 0
BBX 8 3 3 19
BITMAP
71
FF
8E
ENDCHAR
STARTCHAR tilde.alt01.case
ENCODING -1
SWIDTH 600 0
DWIDTH 14 0
BBX 8 3 3 19
BITMAP
72
FF
4E
ENDCHAR
STARTCHAR macron.case
ENCODING -1
SWIDTH 600 0
DWIDTH 14 0
BBX 7 2 4 19
BITMAP
FE
FE
ENDCHAR
STARTCHAR dotaccent.case
ENCODING -1
SWIDTH 600 0
DWIDTH 14 0
BBX 4 3 5 19
BITMAP
60
F0
60
ENDCHAR
STARTCHAR dieresis.case
ENCODING -1
SWIDTH 600 0
DWIDTH 14 0
BBX 8 3 3 19
BITMAP
E7
E7
E7
ENDCHAR
STARTCHAR hungarumlaut.case
ENCODING -1
SWIDTH 600 0
DWIDTH 14 0
BBX 8 5 4 18
BITMAP
62
77
E6
CC
8C
ENDCHAR
STARTCHAR acute.case
ENCODING -1
SWIDTH 600 0
DWIDTH 14 0
BBX 4 5 6 18
BITMAP
20
70
E0
C0
C0
ENDCHAR
STARTCHAR grave.case
ENCODING -1
SWIDTH 600 0
DWIDTH 14 0
BBX 4 5 4 18
BITMAP
40
E0
60
30
30
ENDCHAR
STARTCHAR circumflex.case
ENCODING -1
SWIDTH 600 0
DWIDTH 14 0
BBX 8 5 3 18
BITMAP
3C
3C
7E
E7
42
ENDCHAR
STARTCHAR caron.case
ENCODING -1
SWIDTH 600 0
DWIDTH 14 0
BBX 8 5 3 18
BITMAP
42
E7
7E
3C
3C
ENDCHAR
STARTCHAR breve.case
ENCODING -1
SWIDTH 600 0
DWIDTH 14 0
BBX 8 5 3 18
BITMAP
82
C3
E7
7E
3C
ENDCHAR
STARTCHAR breve.cyrl_case
ENCODING -1
SWIDTH 600 0
DWIDTH 14 0
BBX 8 5 3 18
BITMAP
42
C3
E7
7E
3C
ENDCHAR
STARTCHAR ring.case
ENCODING -1
SWIDTH 600 0
DWIDTH 14 0
BBX 6 7 4 18
BITMAP
78
FC
CC
CC
CC
FC
78
ENDCHAR
STARTCHAR ringacute.case
ENCODING -1
SWIDTH 600 0
DWIDTH 14 0
BBX 6 11 4 18
BITMAP
10
1C
38
30
00
78
FC
CC
CC
FC
78
ENDCHAR
STARTCHAR uni0309.case
ENCODING -1
SWIDTH 0 0
DWIDTH 0 0
BBX 5 5 -2 18
BITMAP
F0
F8
30
30
60
ENDCHAR
STARTCHAR breveacute.case
ENCODING -1
SWIDTH 0 0
DWIDTH 0 0
BBX 8 8 -4 18
BITMAP
04
0E
0C
18
DB
E7
7E
3C
ENDCHAR
STARTCHAR brevegrave.case
ENCODING -1
SWIDTH 0 0
DWIDTH 0 0
BBX 8 8 -4 18
BITMAP
20
70
30
18
DB
E7
7E
3C
ENDCHAR
STARTCHAR brevehook.case
ENCODING -1
SWIDTH 0 0
DWIDTH 0 0
BBX 8 8 -4 18
BITMAP
7C
7C
0C
18
DB
E7
7E
3C
ENDCHAR
STARTCHAR brevetilde.case
ENCODING -1
SWIDTH 0 0
DWIDTH 0 0
BBX 8 8 -4 18
BITMAP
71
FF
8E
00
81
C3
7E
3C
ENDCHAR
STARTCHAR dieresisacute.case
ENCODING -1
SWIDTH 0 0
DWIDTH 0 0
BBX 8 8 -4 18
BITMAP
04
0E
0C
18
18
E7
E7
E7
ENDCHAR
STARTCHAR dieresiscaron.case
ENCODING -1
SWIDTH 0 0
DWIDTH 0 0
BBX 8 9 -4 18
BITMAP
82
C3
66
3C
3C
00
E7
E7
E7
ENDCHAR
STARTCHAR dieresisgrave.case
ENCODING -1
SWIDTH 0 0
DWIDTH 0 0
BBX 8 8 -4 18
BITMAP
20
70
30
18
18
E7
E7
E7
ENDCHAR
STARTCHAR circumflexacute.case
ENCODING -1
SWIDTH 0 0
DWIDTH 0 0
BBX 11 8 -4 18
BITMAP
00C0
00E0
01C0
3D80
3F00
7E00
E700
4200
ENDCHAR
STARTCHAR circumflexbreve.case
ENCODING -1
SWIDTH 0 0
DWIDTH 0 0
BBX 8 9 -4 18
BITMAP
C3
C3
7E
3C
00
3C
7E
E7
42
ENDCHAR
STARTCHAR circumflexgrave.case
ENCODING -1
SWIDTH 0 0
DWIDTH 0 0
BBX 11 8 -7 18
BITMAP
6000
E000
7000
3780
1F80
0FC0
1CE0
0840
ENDCHAR
STARTCHAR circumflexhook.case
ENCODING -1
SWIDTH 0 0
DWIDTH 0 0
BBX 10 9 -4 18
BITMAP
07C0
07C0
00C0
0180
3D00
3C00
7E00
E700
4200
ENDCHAR
STARTCHAR dieresismacron.case
ENCODING -1
SWIDTH 0 0
DWIDTH 0 0
BBX 8 6 -4 18
BITMAP
7E
7E
00
E7
E7
E7
ENDCHAR
STARTCHAR circumflextilde.case
ENCODING -1
SWIDTH 0 0
DWIDTH 0 0
BBX 8 7 -4 18
BITMAP
71
FF
8E
3C
7E
E7
C3
ENDCHAR
ENDFONT
